<?xml version="1.0" encoding="UTF-8"?>
<svg xmlns="http://www.w3.org/2000/svg" xmlns:xlink="http://www.w3.org/1999/xlink" width="231" height="59" viewBox="0 0 231 59">
<path fill-rule="nonzero" fill="rgb(0%, 0%, 0%)" fill-opacity="1" d="M 5.601562 40.199219 L 13.878906 6.601562 C 14.839844 2.699219 16.398438 0 19.238281 0 C 20.28125 0 20.699219 0.5 20.699219 1.101562 C 20.699219 1.941406 20.058594 2.601562 19.28125 2.601562 C 18.898438 2.601562 18.519531 2.441406 18.519531 2 C 18.519531 1.460938 18.941406 1.261719 18.980469 0.980469 C 18.980469 0.839844 18.859375 0.761719 18.679688 0.761719 C 17.378906 0.761719 16.800781 2.578125 16.160156 5.179688 L 7.78125 39.261719 C 6.878906 42.878906 5.339844 45.378906 2.558594 45.378906 C 1.539062 45.378906 1.121094 44.878906 1.121094 44.300781 C 1.121094 43.441406 1.738281 42.78125 2.519531 42.78125 C 2.898438 42.78125 3.28125 42.941406 3.28125 43.378906 C 3.28125 43.859375 2.859375 44.140625 2.820312 44.378906 C 2.820312 44.539062 2.941406 44.621094 3.121094 44.621094 C 4.421875 44.621094 4.941406 42.859375 5.601562 40.199219 Z M 11.800781 40.199219 L 20.078125 6.601562 C 21.039062 2.699219 22.601562 0 25.441406 0 C 26.480469 0 26.898438 0.5 26.898438 1.101562 C 26.898438 1.941406 26.261719 2.601562 25.480469 2.601562 C 25.101562 2.601562 24.71875 2.441406 24.71875 2 C 24.71875 1.460938 25.140625 1.261719 25.179688 0.980469 C 25.179688 0.839844 25.058594 0.761719 24.878906 0.761719 C 23.578125 0.761719 23 2.578125 22.359375 5.179688 L 13.980469 39.261719 C 13.078125 42.878906 11.539062 45.378906 8.761719 45.378906 C 7.738281 45.378906 7.320312 44.878906 7.320312 44.300781 C 7.320312 43.441406 7.941406 42.78125 8.71875 42.78125 C 9.101562 42.78125 9.480469 42.941406 9.480469 43.378906 C 9.480469 43.859375 9.058594 44.140625 9.019531 44.378906 C 9.019531 44.539062 9.140625 44.621094 9.320312 44.621094 C 10.621094 44.621094 11.140625 42.859375 11.800781 40.199219 Z M 18 40.199219 L 26.28125 6.601562 C 27.238281 2.699219 28.800781 0 31.640625 0 C 32.679688 0 33.101562 0.5 33.101562 1.101562 C 33.101562 1.941406 32.460938 2.601562 31.679688 2.601562 C 31.300781 2.601562 30.921875 2.441406 30.921875 2 C 30.921875 1.460938 31.339844 1.261719 31.378906 0.980469 C 31.378906 0.839844 31.261719 0.761719 31.078125 0.761719 C 29.78125 0.761719 29.199219 2.578125 28.558594 5.179688 L 20.179688 39.261719 C 19.28125 42.878906 17.738281 45.378906 14.960938 45.378906 C 13.941406 45.378906 13.519531 44.878906 13.519531 44.300781 C 13.519531 43.441406 14.140625 42.78125 14.921875 42.78125 C 15.300781 42.78125 15.679688 42.941406 15.679688 43.378906 C 15.679688 43.859375 15.261719 44.140625 15.21875 44.378906 C 15.21875 44.539062 15.339844 44.621094 15.519531 44.621094 C 16.820312 44.621094 17.339844 42.859375 18 40.199219 Z M 18 40.199219 "/>
<path fill-rule="nonzero" fill="rgb(0%, 0%, 0%)" fill-opacity="1" d="M 19.136719 48.378906 L 19.078125 48.621094 C 18.101562 48.679688 17.488281 49.265625 17.097656 49.773438 L 10.484375 58.414062 L 10.121094 58.414062 L 10.121094 49.851562 C 10.121094 48.980469 9.550781 48.621094 8.636719 48.621094 L 8.699219 48.378906 L 13.109375 48.378906 L 13.046875 48.621094 L 12.761719 48.621094 C 11.789062 48.621094 11.710938 49.175781 11.710938 49.671875 L 11.710938 55.535156 L 11.773438 55.550781 L 15.972656 50.058594 C 16.257812 49.699219 16.542969 49.265625 16.542969 48.949219 C 16.542969 48.726562 16.332031 48.621094 15.761719 48.621094 L 15.460938 48.621094 L 15.523438 48.378906 Z M 19.136719 48.378906 "/>
<path fill-rule="nonzero" fill="rgb(0%, 0%, 0%)" fill-opacity="1" d="M 50.511719 15.269531 L 42.152344 15.269531 L 46.3125 25.148438 Z M 51.773438 14.449219 L 46.011719 27.929688 L 45.613281 27.929688 L 39.691406 14.449219 Z M 51.773438 14.449219 "/>
<path fill-rule="nonzero" fill="rgb(0%, 0%, 0%)" fill-opacity="1" d="M 61.558594 22.628906 C 61.558594 23.269531 61.019531 23.828125 60.378906 23.828125 C 59.71875 23.828125 59.15625 23.230469 59.15625 22.628906 C 59.15625 22.03125 59.71875 21.429688 60.378906 21.429688 C 61.019531 21.429688 61.558594 21.988281 61.558594 22.628906 Z M 61.558594 22.628906 "/>
<path fill-rule="nonzero" fill="rgb(0%, 0%, 0%)" fill-opacity="1" d="M 81.820312 11.089844 L 73.101562 11.089844 L 73.101562 10.011719 L 78.722656 10.011719 C 79.382812 10.011719 79.542969 9.871094 79.542969 9.628906 C 79.542969 9.488281 79.460938 9.128906 78.820312 8.589844 L 79.183594 8.429688 Z M 81.820312 11.089844 "/>
<path fill-rule="nonzero" fill="rgb(0%, 0%, 0%)" fill-opacity="1" d="M 82.121094 14.628906 L 81.320312 17.828125 L 81.003906 17.828125 C 81.023438 17.671875 81.023438 17.390625 81.023438 17.109375 C 80.960938 15.550781 79.761719 15.371094 78.820312 15.371094 L 75.882812 15.371094 L 74.640625 20.328125 L 76.300781 20.328125 C 77.542969 20.328125 78.460938 20.128906 78.882812 18.429688 L 79.203125 18.429688 L 78.003906 23.269531 L 77.683594 23.269531 C 77.742188 22.988281 77.78125 22.410156 77.78125 22.050781 C 77.78125 21.109375 76.960938 21.050781 76.382812 21.050781 L 74.441406 21.050781 L 73.203125 26.128906 C 73.183594 26.25 73.121094 26.410156 73.121094 26.550781 C 73.121094 27.050781 73.503906 27.371094 74.703125 27.371094 L 75.34375 27.371094 L 75.261719 27.691406 L 68.421875 27.691406 L 68.503906 27.371094 L 68.863281 27.371094 C 70.382812 27.371094 70.800781 26.808594 70.980469 26.128906 L 73.460938 16.191406 C 73.503906 16.03125 73.542969 15.851562 73.542969 15.710938 C 73.542969 15.289062 73.222656 14.929688 72.023438 14.929688 L 71.640625 14.929688 L 71.722656 14.628906 Z M 82.121094 14.628906 "/>
<path fill-rule="nonzero" fill="rgb(0%, 0%, 0%)" fill-opacity="1" d="M 92.414062 20.890625 C 92.414062 19.949219 92.117188 19.46875 91.296875 19.46875 C 89.316406 19.46875 87.695312 23.46875 87.695312 25.390625 C 87.695312 26.371094 88.253906 26.710938 88.816406 26.710938 C 90.214844 26.710938 91.535156 24.828125 92.09375 22.988281 C 92.316406 22.289062 92.414062 21.511719 92.414062 20.890625 Z M 95.695312 14.328125 L 92.714844 26.289062 C 92.695312 26.351562 92.675781 26.46875 92.675781 26.53125 C 92.675781 26.648438 92.777344 26.710938 92.976562 26.710938 C 93.375 26.710938 93.9375 26.011719 94.214844 25.589844 L 94.4375 25.828125 C 93.835938 26.730469 92.777344 27.929688 91.835938 27.929688 C 91.195312 27.929688 91.035156 27.46875 91.035156 27.109375 C 91.035156 26.710938 91.074219 26.429688 91.234375 25.828125 L 91.136719 25.828125 C 89.65625 27.691406 88.457031 27.929688 87.714844 27.929688 C 86.253906 27.929688 85.957031 26.449219 85.957031 25.390625 C 85.957031 23.328125 88.015625 18.871094 91.09375 18.871094 C 92.234375 18.871094 92.695312 19.390625 92.714844 19.871094 L 92.753906 19.871094 L 93.816406 15.691406 C 93.835938 15.609375 93.855469 15.53125 93.855469 15.449219 C 93.855469 15.191406 93.714844 15.050781 93.195312 15.050781 C 93.015625 15.050781 92.796875 15.089844 92.65625 15.109375 L 92.574219 14.808594 Z M 95.695312 14.328125 "/>
<path fill-rule="nonzero" fill="rgb(0%, 0%, 0%)" fill-opacity="1" d="M 110.996094 14.628906 L 110.914062 14.949219 C 109.617188 15.03125 108.796875 15.808594 108.277344 16.488281 L 99.457031 28.011719 L 98.976562 28.011719 L 98.976562 16.589844 C 98.976562 15.429688 98.214844 14.949219 96.996094 14.949219 L 97.074219 14.628906 L 102.957031 14.628906 L 102.875 14.949219 L 102.496094 14.949219 C 101.195312 14.949219 101.09375 15.691406 101.09375 16.351562 L 101.09375 24.171875 L 101.175781 24.191406 L 106.777344 16.871094 C 107.15625 16.390625 107.535156 15.808594 107.535156 15.390625 C 107.535156 15.089844 107.253906 14.949219 106.496094 14.949219 L 106.09375 14.949219 L 106.175781 14.628906 Z M 110.996094 14.628906 "/>
<path fill-rule="nonzero" fill="rgb(0%, 0%, 0%)" fill-opacity="1" d="M 125.589844 25.289062 L 113.8125 25.289062 L 113.8125 23.96875 L 125.589844 23.96875 Z M 125.589844 21.289062 L 113.8125 21.289062 L 113.8125 19.96875 L 125.589844 19.96875 Z M 125.589844 21.289062 "/>
<path fill-rule="nonzero" fill="rgb(0%, 0%, 0%)" fill-opacity="1" d="M 137.707031 40.199219 L 145.988281 6.601562 C 146.945312 2.699219 148.507812 0 151.347656 0 C 152.386719 0 152.808594 0.5 152.808594 1.101562 C 152.808594 1.941406 152.167969 2.601562 151.386719 2.601562 C 151.007812 2.601562 150.625 2.441406 150.625 2 C 150.625 1.460938 151.046875 1.261719 151.085938 0.980469 C 151.085938 0.839844 150.964844 0.761719 150.785156 0.761719 C 149.488281 0.761719 148.90625 2.578125 148.265625 5.179688 L 139.886719 39.261719 C 138.988281 42.878906 137.445312 45.378906 134.667969 45.378906 C 133.648438 45.378906 133.226562 44.878906 133.226562 44.300781 C 133.226562 43.441406 133.847656 42.78125 134.625 42.78125 C 135.007812 42.78125 135.386719 42.941406 135.386719 43.378906 C 135.386719 43.859375 134.964844 44.140625 134.925781 44.378906 C 134.925781 44.539062 135.046875 44.621094 135.226562 44.621094 C 136.527344 44.621094 137.046875 42.859375 137.707031 40.199219 Z M 143.90625 40.199219 L 152.1875 6.601562 C 153.148438 2.699219 154.707031 0 157.546875 0 C 158.585938 0 159.007812 0.5 159.007812 1.101562 C 159.007812 1.941406 158.367188 2.601562 157.585938 2.601562 C 157.207031 2.601562 156.828125 2.441406 156.828125 2 C 156.828125 1.460938 157.246094 1.261719 157.285156 0.980469 C 157.285156 0.839844 157.167969 0.761719 156.988281 0.761719 C 155.6875 0.761719 155.105469 2.578125 154.464844 5.179688 L 146.085938 39.261719 C 145.1875 42.878906 143.648438 45.378906 140.867188 45.378906 C 139.847656 45.378906 139.425781 44.878906 139.425781 44.300781 C 139.425781 43.441406 140.046875 42.78125 140.828125 42.78125 C 141.207031 42.78125 141.585938 42.941406 141.585938 43.378906 C 141.585938 43.859375 141.167969 44.140625 141.125 44.378906 C 141.125 44.539062 141.246094 44.621094 141.425781 44.621094 C 142.726562 44.621094 143.246094 42.859375 143.90625 40.199219 Z M 143.90625 40.199219 "/>
<path fill-rule="nonzero" fill="rgb(0%, 0%, 0%)" fill-opacity="1" d="M 146.382812 48.378906 L 145.585938 51.695312 L 145.347656 51.695312 C 145.363281 51.574219 145.363281 51.453125 145.363281 51.335938 C 145.363281 50.074219 144.640625 48.933594 142.960938 48.933594 C 142.316406 48.933594 141.148438 49.324219 141.148438 50.390625 C 141.148438 51.425781 142.0625 52.054688 142.902344 52.773438 C 143.785156 53.511719 144.671875 54.378906 144.671875 55.683594 C 144.671875 57.171875 143.367188 58.550781 141.011719 58.550781 C 139.601562 58.550781 139.136719 57.980469 137.996094 57.980469 C 137.621094 57.980469 137.410156 58.144531 137.171875 58.550781 L 136.933594 58.550781 L 137.832031 55.011719 L 138.070312 55.011719 C 138.070312 55.160156 138.085938 55.324219 138.085938 55.476562 C 138.132812 56.660156 138.6875 57.980469 140.652344 57.980469 C 142.558594 57.980469 142.992188 56.914062 142.992188 55.941406 C 142.992188 55.414062 142.722656 54.921875 142.300781 54.5 C 141.851562 54.035156 141.132812 53.496094 140.589844 52.96875 C 140.171875 52.550781 139.496094 51.738281 139.496094 51.003906 C 139.496094 49.789062 140.472656 48.378906 142.839844 48.378906 C 144.085938 48.378906 144.941406 48.933594 145.585938 48.933594 C 145.886719 48.933594 146.097656 48.605469 146.140625 48.378906 Z M 146.382812 48.378906 "/>
<path fill-rule="nonzero" fill="rgb(0%, 0%, 0%)" fill-opacity="1" d="M 178.5 11.089844 L 169.78125 11.089844 L 169.78125 10.011719 L 175.398438 10.011719 C 176.058594 10.011719 176.21875 9.871094 176.21875 9.628906 C 176.21875 9.488281 176.140625 9.128906 175.5 8.589844 L 175.859375 8.429688 Z M 178.5 11.089844 "/>
<path fill-rule="nonzero" fill="rgb(0%, 0%, 0%)" fill-opacity="1" d="M 178.800781 14.628906 L 178 17.828125 L 177.679688 17.828125 C 177.699219 17.671875 177.699219 17.390625 177.699219 17.109375 C 177.640625 15.550781 176.441406 15.371094 175.5 15.371094 L 172.558594 15.371094 L 171.320312 20.328125 L 172.980469 20.328125 C 174.21875 20.328125 175.140625 20.128906 175.558594 18.429688 L 175.878906 18.429688 L 174.679688 23.269531 L 174.359375 23.269531 C 174.421875 22.988281 174.460938 22.410156 174.460938 22.050781 C 174.460938 21.109375 173.640625 21.050781 173.058594 21.050781 L 171.121094 21.050781 L 169.878906 26.128906 C 169.859375 26.25 169.800781 26.410156 169.800781 26.550781 C 169.800781 27.050781 170.179688 27.371094 171.378906 27.371094 L 172.019531 27.371094 L 171.941406 27.691406 L 165.101562 27.691406 L 165.179688 27.371094 L 165.539062 27.371094 C 167.058594 27.371094 167.480469 26.808594 167.660156 26.128906 L 170.140625 16.191406 C 170.179688 16.03125 170.21875 15.851562 170.21875 15.710938 C 170.21875 15.289062 169.898438 14.929688 168.699219 14.929688 L 168.320312 14.929688 L 168.398438 14.628906 Z M 178.800781 14.628906 "/>
<path fill-rule="nonzero" fill="rgb(0%, 0%, 0%)" fill-opacity="1" d="M 187.003906 22.628906 C 187.003906 23.269531 186.464844 23.828125 185.824219 23.828125 C 185.164062 23.828125 184.605469 23.230469 184.605469 22.628906 C 184.605469 22.03125 185.164062 21.429688 185.824219 21.429688 C 186.464844 21.429688 187.003906 21.988281 187.003906 22.628906 Z M 187.003906 22.628906 "/>
<path fill-rule="nonzero" fill="rgb(0%, 0%, 0%)" fill-opacity="1" d="M 203.589844 15.148438 L 194.867188 15.148438 L 194.867188 14.070312 L 200.488281 14.070312 C 201.148438 14.070312 201.308594 13.929688 201.308594 13.691406 C 201.308594 13.550781 201.230469 13.191406 200.589844 12.648438 L 200.949219 12.488281 Z M 203.589844 15.148438 "/>
<path fill-rule="nonzero" fill="rgb(0%, 0%, 0%)" fill-opacity="1" d="M 202.449219 25.769531 L 202.347656 25.890625 C 201.789062 26.570312 200.828125 27.851562 199.789062 27.851562 C 199.148438 27.851562 198.96875 27.390625 198.96875 26.929688 C 198.96875 26.671875 199.050781 26.351562 199.109375 26.128906 L 200.25 21.710938 C 200.289062 21.550781 200.390625 21.148438 200.390625 20.871094 C 200.390625 20.488281 200.269531 20.109375 199.910156 20.109375 C 199.148438 20.109375 197.890625 21.828125 197.269531 22.769531 C 196.550781 23.851562 196.027344 24.789062 195.910156 25.210938 L 195.25 27.691406 L 193.707031 27.691406 L 195.609375 20.210938 C 195.609375 19.851562 195.550781 19.570312 195.007812 19.570312 C 194.808594 19.570312 194.589844 19.609375 194.449219 19.628906 L 194.410156 19.328125 L 197.589844 18.871094 L 196.570312 22.648438 L 196.628906 22.648438 C 196.730469 22.648438 197.707031 21.25 197.75 21.191406 C 198.550781 20.191406 199.75 18.871094 200.949219 18.871094 C 201.828125 18.871094 202.070312 19.449219 202.070312 20.109375 C 202.070312 20.609375 201.949219 21.109375 201.847656 21.511719 L 200.667969 26.128906 C 200.648438 26.171875 200.648438 26.230469 200.648438 26.328125 C 200.667969 26.449219 200.730469 26.609375 200.949219 26.609375 C 201.429688 26.609375 201.910156 25.890625 202.1875 25.550781 Z M 202.449219 25.769531 "/>
<path fill-rule="nonzero" fill="rgb(0%, 0%, 0%)" fill-opacity="1" d="M 214.183594 20.890625 C 214.183594 19.949219 213.882812 19.46875 213.0625 19.46875 C 211.082031 19.46875 209.460938 23.46875 209.460938 25.390625 C 209.460938 26.371094 210.023438 26.710938 210.582031 26.710938 C 211.980469 26.710938 213.300781 24.828125 213.863281 22.988281 C 214.082031 22.289062 214.183594 21.511719 214.183594 20.890625 Z M 217.460938 14.328125 L 214.480469 26.289062 C 214.460938 26.351562 214.441406 26.46875 214.441406 26.53125 C 214.441406 26.648438 214.542969 26.710938 214.742188 26.710938 C 215.140625 26.710938 215.703125 26.011719 215.980469 25.589844 L 216.203125 25.828125 C 215.601562 26.730469 214.542969 27.929688 213.601562 27.929688 C 212.960938 27.929688 212.800781 27.46875 212.800781 27.109375 C 212.800781 26.710938 212.84375 26.429688 213.003906 25.828125 L 212.902344 25.828125 C 211.421875 27.691406 210.222656 27.929688 209.480469 27.929688 C 208.023438 27.929688 207.722656 26.449219 207.722656 25.390625 C 207.722656 23.328125 209.78125 18.871094 212.863281 18.871094 C 214.003906 18.871094 214.460938 19.390625 214.480469 19.871094 L 214.523438 19.871094 L 215.582031 15.691406 C 215.601562 15.609375 215.621094 15.53125 215.621094 15.449219 C 215.621094 15.191406 215.480469 15.050781 214.960938 15.050781 C 214.78125 15.050781 214.5625 15.089844 214.421875 15.109375 L 214.34375 14.808594 Z M 217.460938 14.328125 "/>
<path fill-rule="nonzero" fill="rgb(0%, 0%, 0%)" fill-opacity="1" d="M 231.164062 14.328125 L 230.101562 18.75 L 229.78125 18.75 C 229.800781 18.589844 229.800781 18.429688 229.800781 18.269531 C 229.800781 16.589844 228.84375 15.070312 226.601562 15.070312 C 225.742188 15.070312 224.183594 15.589844 224.183594 17.011719 C 224.183594 18.390625 225.402344 19.230469 226.523438 20.191406 C 227.703125 21.171875 228.882812 22.328125 228.882812 24.070312 C 228.882812 26.050781 227.140625 27.890625 224.003906 27.890625 C 222.121094 27.890625 221.503906 27.128906 219.980469 27.128906 C 219.480469 27.128906 219.203125 27.351562 218.882812 27.890625 L 218.5625 27.890625 L 219.761719 23.171875 L 220.082031 23.171875 C 220.082031 23.371094 220.101562 23.589844 220.101562 23.789062 C 220.164062 25.371094 220.902344 27.128906 223.523438 27.128906 C 226.0625 27.128906 226.640625 25.710938 226.640625 24.410156 C 226.640625 23.710938 226.28125 23.050781 225.722656 22.488281 C 225.121094 21.871094 224.164062 21.148438 223.441406 20.449219 C 222.882812 19.890625 221.980469 18.808594 221.980469 17.828125 C 221.980469 16.210938 223.28125 14.328125 226.441406 14.328125 C 228.101562 14.328125 229.242188 15.070312 230.101562 15.070312 C 230.503906 15.070312 230.78125 14.628906 230.84375 14.328125 Z M 231.164062 14.328125 "/>
</svg>
