<?xml version="1.0" encoding="UTF-8"?>
<svg xmlns="http://www.w3.org/2000/svg" xmlns:xlink="http://www.w3.org/1999/xlink" width="359" height="23" viewBox="0 0 359 23">
<path fill-rule="nonzero" fill="rgb(0%, 0%, 0%)" fill-opacity="1" d="M 14.21875 4.960938 L 13.160156 9.421875 L 12.839844 9.421875 C 12.859375 9.261719 12.859375 9.078125 12.859375 8.578125 C 12.859375 7.28125 12.238281 5.699219 9.820312 5.699219 C 5.800781 5.699219 3.441406 9.71875 3.441406 13.140625 C 3.441406 15.378906 4.640625 17.421875 7.339844 17.421875 C 9.300781 17.421875 10.761719 16.441406 11.660156 15.460938 C 11.800781 15.320312 11.898438 15.199219 12 15.058594 L 12.398438 15.320312 C 11.859375 16.140625 11.199219 16.738281 10.621094 17.160156 C 9.058594 18.261719 7.539062 18.378906 6.761719 18.378906 C 2.898438 18.378906 1 15.761719 1 12.820312 C 1 8.21875 5.019531 4.960938 9.859375 4.960938 C 10.941406 4.960938 11.980469 5.5 13.019531 5.5 C 13.238281 5.5 13.558594 5.460938 13.859375 4.960938 Z M 14.21875 4.960938 "/>
<path fill-rule="nonzero" fill="rgb(0%, 0%, 0%)" fill-opacity="1" d="M 31.714844 15.738281 L 19.9375 15.738281 L 19.9375 14.421875 L 31.714844 14.421875 Z M 31.714844 11.738281 L 19.9375 11.738281 L 19.9375 10.421875 L 31.714844 10.421875 Z M 31.714844 11.738281 "/>
<path fill-rule="nonzero" fill="rgb(0%, 0%, 0%)" fill-opacity="1" d="M 45.570312 11.320312 C 45.570312 10.5 45.332031 9.898438 44.570312 9.898438 C 43.210938 9.898438 42.011719 11.640625 41.332031 13.320312 C 40.972656 14.21875 40.769531 15.101562 40.769531 15.800781 C 40.769531 16.859375 41.390625 17.121094 41.929688 17.121094 C 43.3125 17.121094 44.710938 15.21875 45.269531 13.320312 C 45.429688 12.800781 45.570312 12 45.570312 11.320312 Z M 47.671875 9.578125 L 45.851562 16.480469 C 46.132812 20.960938 45.832031 16.519531 45.832031 16.699219 C 45.832031 16.921875 45.949219 17.039062 46.109375 17.039062 C 46.3125 17.039062 46.609375 17 47.390625 15.960938 L 47.632812 16.199219 C 47.011719 17.140625 45.929688 18.339844 44.972656 18.339844 C 44.3125 18.339844 44.132812 17.878906 44.132812 17.238281 C 44.132812 16.980469 44.25 16.558594 44.351562 16.238281 L 44.269531 16.238281 C 42.832031 18.078125 41.589844 18.339844 40.8125 18.339844 C 39.550781 18.339844 39.03125 17.238281 39.03125 15.960938 C 39.03125 13.320312 41.671875 9.320312 44.550781 9.320312 C 45.410156 9.320312 45.832031 9.800781 45.871094 10.238281 L 45.890625 10.238281 L 46.070312 9.578125 Z M 47.671875 9.578125 "/>
<path fill-rule="nonzero" fill="rgb(0%, 0%, 0%)" fill-opacity="1" d="M 53.972656 18.265625 C 53.972656 15.144531 53.3125 13.390625 51.992188 13.390625 C 50.746094 13.390625 50.070312 15.160156 50.070312 18.203125 C 50.070312 21.25 50.730469 22.960938 52.019531 22.960938 C 53.296875 22.960938 53.972656 21.234375 53.972656 18.265625 Z M 55.410156 18.191406 C 55.410156 20.769531 54.464844 23.351562 52.019531 23.351562 C 49.457031 23.351562 48.632812 20.558594 48.632812 18.101562 C 48.632812 15.445312 49.667969 13 52.082031 13 C 54.046875 13 55.410156 15.113281 55.410156 18.191406 Z M 55.410156 18.191406 "/>
<path fill-rule="nonzero" fill="rgb(0%, 0%, 0%)" fill-opacity="1" d="M 73.753906 13.738281 L 68.535156 13.738281 L 68.535156 18.960938 L 67.214844 18.960938 L 67.214844 13.738281 L 61.996094 13.738281 L 61.996094 12.421875 L 67.214844 12.421875 L 67.214844 7.199219 L 68.535156 7.199219 L 68.535156 12.421875 L 73.753906 12.421875 Z M 73.753906 13.738281 "/>
<path fill-rule="nonzero" fill="rgb(0%, 0%, 0%)" fill-opacity="1" d="M 86.519531 11.320312 C 86.519531 10.5 86.28125 9.898438 85.519531 9.898438 C 84.160156 9.898438 82.960938 11.640625 82.28125 13.320312 C 81.921875 14.21875 81.71875 15.101562 81.71875 15.800781 C 81.71875 16.859375 82.339844 17.121094 82.878906 17.121094 C 84.261719 17.121094 85.660156 15.21875 86.21875 13.320312 C 86.378906 12.800781 86.519531 12 86.519531 11.320312 Z M 88.621094 9.578125 L 86.800781 16.480469 C 87.078125 20.960938 86.78125 16.519531 86.78125 16.699219 C 86.78125 16.921875 86.898438 17.039062 87.058594 17.039062 C 87.261719 17.039062 87.558594 17 88.339844 15.960938 L 88.578125 16.199219 C 87.960938 17.140625 86.878906 18.339844 85.921875 18.339844 C 85.261719 18.339844 85.078125 17.878906 85.078125 17.238281 C 85.078125 16.980469 85.199219 16.558594 85.300781 16.238281 L 85.21875 16.238281 C 83.78125 18.078125 82.539062 18.339844 81.761719 18.339844 C 80.5 18.339844 79.980469 17.238281 79.980469 15.960938 C 79.980469 13.320312 82.621094 9.320312 85.5 9.320312 C 86.359375 9.320312 86.78125 9.800781 86.820312 10.238281 L 86.839844 10.238281 L 87.019531 9.578125 Z M 88.621094 9.578125 "/>
<path fill-rule="nonzero" fill="rgb(0%, 0%, 0%)" fill-opacity="1" d="M 95.128906 23.140625 L 90.988281 23.140625 L 90.988281 22.914062 C 92.101562 22.855469 92.414062 22.539062 92.414062 21.714844 L 92.414062 14.980469 C 92.414062 14.46875 92.28125 14.246094 91.964844 14.246094 C 91.816406 14.246094 91.558594 14.320312 91.289062 14.425781 L 90.886719 14.574219 L 90.886719 14.363281 L 93.570312 13 L 93.703125 13.046875 L 93.703125 22 C 93.703125 22.644531 94.003906 22.914062 95.128906 22.914062 Z M 95.128906 23.140625 "/>
<path fill-rule="nonzero" fill="rgb(0%, 0%, 0%)" fill-opacity="1" d="M 106.042969 13.078125 C 106.042969 13.71875 105.503906 14.28125 104.863281 14.28125 C 104.203125 14.28125 103.644531 13.679688 103.644531 13.078125 C 103.644531 12.480469 104.203125 11.878906 104.863281 11.878906 C 105.503906 11.878906 106.042969 12.441406 106.042969 13.078125 Z M 106.042969 13.078125 "/>
<path fill-rule="nonzero" fill="rgb(0%, 0%, 0%)" fill-opacity="1" d="M 125.75 4.78125 L 124.6875 9.199219 L 124.367188 9.199219 C 124.390625 9.039062 124.390625 8.878906 124.390625 8.71875 C 124.390625 7.039062 123.429688 5.519531 121.1875 5.519531 C 120.328125 5.519531 118.769531 6.039062 118.769531 7.460938 C 118.769531 8.839844 119.988281 9.679688 121.109375 10.640625 C 122.289062 11.621094 123.46875 12.78125 123.46875 14.519531 C 123.46875 16.5 121.730469 18.339844 118.589844 18.339844 C 116.707031 18.339844 116.089844 17.578125 114.570312 17.578125 C 114.070312 17.578125 113.789062 17.800781 113.46875 18.339844 L 113.148438 18.339844 L 114.347656 13.621094 L 114.667969 13.621094 C 114.667969 13.820312 114.6875 14.039062 114.6875 14.238281 C 114.75 15.820312 115.488281 17.578125 118.109375 17.578125 C 120.648438 17.578125 121.230469 16.160156 121.230469 14.859375 C 121.230469 14.160156 120.867188 13.5 120.308594 12.941406 C 119.707031 12.320312 118.75 11.601562 118.027344 10.898438 C 117.46875 10.339844 116.570312 9.261719 116.570312 8.28125 C 116.570312 6.660156 117.867188 4.78125 121.027344 4.78125 C 122.6875 4.78125 123.828125 5.519531 124.6875 5.519531 C 125.089844 5.519531 125.367188 5.078125 125.429688 4.78125 Z M 125.75 4.78125 "/>
<path fill-rule="nonzero" fill="rgb(0%, 0%, 0%)" fill-opacity="1" d="M 142.3125 13.738281 L 137.09375 13.738281 L 137.09375 18.960938 L 135.773438 18.960938 L 135.773438 13.738281 L 130.554688 13.738281 L 130.554688 12.421875 L 135.773438 12.421875 L 135.773438 7.199219 L 137.09375 7.199219 L 137.09375 12.421875 L 142.3125 12.421875 Z M 142.3125 13.738281 "/>
<path fill-rule="nonzero" fill="rgb(0%, 0%, 0%)" fill-opacity="1" d="M 155.078125 11.320312 C 155.078125 10.5 154.835938 9.898438 154.078125 9.898438 C 152.71875 9.898438 151.519531 11.640625 150.835938 13.320312 C 150.476562 14.21875 150.277344 15.101562 150.277344 15.800781 C 150.277344 16.859375 150.898438 17.121094 151.4375 17.121094 C 152.816406 17.121094 154.21875 15.21875 154.777344 13.320312 C 154.9375 12.800781 155.078125 12 155.078125 11.320312 Z M 157.179688 9.578125 L 155.359375 16.480469 C 155.636719 20.960938 155.335938 16.519531 155.335938 16.699219 C 155.335938 16.921875 155.457031 17.039062 155.617188 17.039062 C 155.816406 17.039062 156.117188 17 156.898438 15.960938 L 157.136719 16.199219 C 156.519531 17.140625 155.4375 18.339844 154.476562 18.339844 C 153.816406 18.339844 153.636719 17.878906 153.636719 17.238281 C 153.636719 16.980469 153.757812 16.558594 153.859375 16.238281 L 153.777344 16.238281 C 152.335938 18.078125 151.097656 18.339844 150.316406 18.339844 C 149.058594 18.339844 148.539062 17.238281 148.539062 15.960938 C 148.539062 13.320312 151.179688 9.320312 154.058594 9.320312 C 154.917969 9.320312 155.335938 9.800781 155.378906 10.238281 L 155.398438 10.238281 L 155.578125 9.578125 Z M 157.179688 9.578125 "/>
<path fill-rule="nonzero" fill="rgb(0%, 0%, 0%)" fill-opacity="1" d="M 164.886719 21.085938 L 164.078125 23.140625 L 158.210938 23.140625 L 158.210938 22.960938 L 160.882812 20.125 C 162.292969 18.640625 162.832031 17.5 162.832031 16.226562 C 162.832031 14.859375 162.023438 14.109375 160.746094 14.109375 C 159.667969 14.109375 159.144531 14.589844 158.542969 16.058594 L 158.226562 15.984375 C 158.542969 14.230469 159.503906 13 161.347656 13 C 163.042969 13 164.121094 14.15625 164.121094 15.640625 C 164.121094 16.824219 163.539062 17.949219 162.203125 19.359375 L 159.726562 22 L 163.238281 22 C 163.867188 22 164.183594 21.835938 164.679688 20.996094 Z M 164.886719 21.085938 "/>
<path fill-rule="nonzero" fill="rgb(0%, 0%, 0%)" fill-opacity="1" d="M 174.601562 13.078125 C 174.601562 13.71875 174.0625 14.28125 173.421875 14.28125 C 172.761719 14.28125 172.203125 13.679688 172.203125 13.078125 C 172.203125 12.480469 172.761719 11.878906 173.421875 11.878906 C 174.0625 11.878906 174.601562 12.441406 174.601562 13.078125 Z M 174.601562 13.078125 "/>
<path fill-rule="nonzero" fill="rgb(0%, 0%, 0%)" fill-opacity="1" d="M 194.308594 4.78125 L 193.246094 9.199219 L 192.925781 9.199219 C 192.945312 9.039062 192.945312 8.878906 192.945312 8.71875 C 192.945312 7.039062 191.988281 5.519531 189.746094 5.519531 C 188.886719 5.519531 187.328125 6.039062 187.328125 7.460938 C 187.328125 8.839844 188.546875 9.679688 189.667969 10.640625 C 190.847656 11.621094 192.027344 12.78125 192.027344 14.519531 C 192.027344 16.5 190.285156 18.339844 187.148438 18.339844 C 185.265625 18.339844 184.648438 17.578125 183.125 17.578125 C 182.625 17.578125 182.347656 17.800781 182.027344 18.339844 L 181.707031 18.339844 L 182.90625 13.621094 L 183.226562 13.621094 C 183.226562 13.820312 183.246094 14.039062 183.246094 14.238281 C 183.308594 15.820312 184.046875 17.578125 186.667969 17.578125 C 189.207031 17.578125 189.785156 16.160156 189.785156 14.859375 C 189.785156 14.160156 189.425781 13.5 188.867188 12.941406 C 188.265625 12.320312 187.308594 11.601562 186.585938 10.898438 C 186.027344 10.339844 185.125 9.261719 185.125 8.28125 C 185.125 6.660156 186.425781 4.78125 189.585938 4.78125 C 191.246094 4.78125 192.386719 5.519531 193.246094 5.519531 C 193.648438 5.519531 193.925781 5.078125 193.988281 4.78125 Z M 194.308594 4.78125 "/>
<path fill-rule="nonzero" fill="rgb(0%, 0%, 0%)" fill-opacity="1" d="M 202.214844 8.085938 L 201.40625 10.140625 L 195.542969 10.140625 L 195.542969 9.960938 L 198.210938 7.125 C 199.621094 5.640625 200.160156 4.5 200.160156 3.226562 C 200.160156 1.859375 199.351562 1.109375 198.078125 1.109375 C 196.996094 1.109375 196.472656 1.589844 195.871094 3.058594 L 195.558594 2.984375 C 195.871094 1.230469 196.832031 0 198.675781 0 C 200.371094 0 201.453125 1.15625 201.453125 2.640625 C 201.453125 3.824219 200.867188 4.949219 199.53125 6.359375 L 197.058594 9 L 200.566406 9 C 201.195312 9 201.511719 8.835938 202.007812 7.996094 Z M 202.214844 8.085938 "/>
<path fill-rule="nonzero" fill="rgb(0%, 0%, 0%)" fill-opacity="1" d="M 220.589844 13.738281 L 215.371094 13.738281 L 215.371094 18.960938 L 214.050781 18.960938 L 214.050781 13.738281 L 208.832031 13.738281 L 208.832031 12.421875 L 214.050781 12.421875 L 214.050781 7.199219 L 215.371094 7.199219 L 215.371094 12.421875 L 220.589844 12.421875 Z M 220.589844 13.738281 "/>
<path fill-rule="nonzero" fill="rgb(0%, 0%, 0%)" fill-opacity="1" d="M 233.355469 11.320312 C 233.355469 10.5 233.117188 9.898438 232.355469 9.898438 C 230.996094 9.898438 229.796875 11.640625 229.117188 13.320312 C 228.753906 14.21875 228.554688 15.101562 228.554688 15.800781 C 228.554688 16.859375 229.175781 17.121094 229.714844 17.121094 C 231.09375 17.121094 232.496094 15.21875 233.054688 13.320312 C 233.214844 12.800781 233.355469 12 233.355469 11.320312 Z M 235.457031 9.578125 L 233.636719 16.480469 C 233.914062 20.960938 233.617188 16.519531 233.617188 16.699219 C 233.617188 16.921875 233.734375 17.039062 233.894531 17.039062 C 234.09375 17.039062 234.394531 17 235.175781 15.960938 L 235.414062 16.199219 C 234.796875 17.140625 233.714844 18.339844 232.753906 18.339844 C 232.09375 18.339844 231.914062 17.878906 231.914062 17.238281 C 231.914062 16.980469 232.035156 16.558594 232.136719 16.238281 L 232.054688 16.238281 C 230.617188 18.078125 229.375 18.339844 228.59375 18.339844 C 227.335938 18.339844 226.816406 17.238281 226.816406 15.960938 C 226.816406 13.320312 229.457031 9.320312 232.335938 9.320312 C 233.195312 9.320312 233.617188 9.800781 233.65625 10.238281 L 233.675781 10.238281 L 233.855469 9.578125 Z M 235.457031 9.578125 "/>
<path fill-rule="nonzero" fill="rgb(0%, 0%, 0%)" fill-opacity="1" d="M 236.96875 15.488281 L 236.730469 15.429688 C 237.164062 14.003906 238.109375 13 239.671875 13 C 241.066406 13 242.011719 13.824219 242.011719 15.054688 C 242.011719 15.773438 241.621094 16.523438 240.617188 17.125 C 241.277344 17.410156 241.546875 17.589844 241.859375 17.921875 C 242.28125 18.386719 242.519531 19.074219 242.519531 19.855469 C 242.519531 20.648438 242.265625 21.386719 241.832031 21.953125 C 241.109375 22.914062 239.6875 23.351562 238.351562 23.351562 C 237.253906 23.351562 236.671875 23.035156 236.671875 22.496094 C 236.671875 22.179688 236.941406 21.953125 237.285156 21.953125 C 237.539062 21.953125 237.78125 22.046875 238.199219 22.34375 C 238.753906 22.734375 239.070312 22.808594 239.492188 22.808594 C 240.601562 22.808594 241.441406 21.789062 241.441406 20.515625 C 241.441406 19.375 240.914062 18.640625 239.878906 18.339844 C 239.550781 18.234375 239.207031 18.191406 238.351562 18.191406 L 238.351562 17.980469 C 238.921875 17.785156 239.3125 17.621094 239.609375 17.441406 C 240.34375 17.019531 240.824219 16.34375 240.824219 15.429688 C 240.824219 14.410156 240.195312 13.898438 239.207031 13.898438 C 238.277344 13.898438 237.585938 14.378906 236.96875 15.488281 Z M 236.96875 15.488281 "/>
<path fill-rule="nonzero" fill="rgb(0%, 0%, 0%)" fill-opacity="1" d="M 252.878906 13.078125 C 252.878906 13.71875 252.339844 14.28125 251.699219 14.28125 C 251.039062 14.28125 250.480469 13.679688 250.480469 13.078125 C 250.480469 12.480469 251.039062 11.878906 251.699219 11.878906 C 252.339844 11.878906 252.878906 12.441406 252.878906 13.078125 Z M 252.878906 13.078125 "/>
<path fill-rule="nonzero" fill="rgb(0%, 0%, 0%)" fill-opacity="1" d="M 272.585938 4.78125 L 271.523438 9.199219 L 271.203125 9.199219 C 271.222656 9.039062 271.222656 8.878906 271.222656 8.71875 C 271.222656 7.039062 270.265625 5.519531 268.023438 5.519531 C 267.164062 5.519531 265.605469 6.039062 265.605469 7.460938 C 265.605469 8.839844 266.824219 9.679688 267.945312 10.640625 C 269.125 11.621094 270.304688 12.78125 270.304688 14.519531 C 270.304688 16.5 268.566406 18.339844 265.425781 18.339844 C 263.542969 18.339844 262.925781 17.578125 261.40625 17.578125 C 260.90625 17.578125 260.625 17.800781 260.304688 18.339844 L 259.984375 18.339844 L 261.183594 13.621094 L 261.503906 13.621094 C 261.503906 13.820312 261.523438 14.039062 261.523438 14.238281 C 261.585938 15.820312 262.324219 17.578125 264.945312 17.578125 C 267.484375 17.578125 268.066406 16.160156 268.066406 14.859375 C 268.066406 14.160156 267.703125 13.5 267.144531 12.941406 C 266.542969 12.320312 265.585938 11.601562 264.863281 10.898438 C 264.304688 10.339844 263.40625 9.261719 263.40625 8.28125 C 263.40625 6.660156 264.703125 4.78125 267.863281 4.78125 C 269.523438 4.78125 270.664062 5.519531 271.523438 5.519531 C 271.925781 5.519531 272.203125 5.078125 272.265625 4.78125 Z M 272.585938 4.78125 "/>
<path fill-rule="nonzero" fill="rgb(0%, 0%, 0%)" fill-opacity="1" d="M 274.300781 2.488281 L 274.058594 2.429688 C 274.496094 1.003906 275.441406 0 277 0 C 278.394531 0 279.339844 0.824219 279.339844 2.054688 C 279.339844 2.773438 278.949219 3.523438 277.945312 4.125 C 278.605469 4.410156 278.875 4.589844 279.191406 4.921875 C 279.609375 5.386719 279.847656 6.074219 279.847656 6.855469 C 279.847656 7.648438 279.59375 8.386719 279.160156 8.953125 C 278.441406 9.914062 277.015625 10.351562 275.679688 10.351562 C 274.585938 10.351562 274 10.035156 274 9.496094 C 274 9.179688 274.269531 8.953125 274.613281 8.953125 C 274.871094 8.953125 275.109375 9.046875 275.53125 9.34375 C 276.085938 9.734375 276.398438 9.808594 276.820312 9.808594 C 277.929688 9.808594 278.769531 8.789062 278.769531 7.515625 C 278.769531 6.375 278.246094 5.640625 277.210938 5.339844 C 276.878906 5.234375 276.535156 5.191406 275.679688 5.191406 L 275.679688 4.980469 C 276.25 4.785156 276.640625 4.621094 276.941406 4.441406 C 277.675781 4.019531 278.15625 3.34375 278.15625 2.429688 C 278.15625 1.410156 277.523438 0.898438 276.535156 0.898438 C 275.605469 0.898438 274.914062 1.378906 274.300781 2.488281 Z M 274.300781 2.488281 "/>
<path fill-rule="nonzero" fill="rgb(0%, 0%, 0%)" fill-opacity="1" d="M 298.867188 13.738281 L 293.648438 13.738281 L 293.648438 18.960938 L 292.328125 18.960938 L 292.328125 13.738281 L 287.109375 13.738281 L 287.109375 12.421875 L 292.328125 12.421875 L 292.328125 7.199219 L 293.648438 7.199219 L 293.648438 12.421875 L 298.867188 12.421875 Z M 298.867188 13.738281 "/>
<path fill-rule="nonzero" fill="rgb(0%, 0%, 0%)" fill-opacity="1" d="M 311.632812 11.320312 C 311.632812 10.5 311.394531 9.898438 310.632812 9.898438 C 309.273438 9.898438 308.074219 11.640625 307.394531 13.320312 C 307.035156 14.21875 306.832031 15.101562 306.832031 15.800781 C 306.832031 16.859375 307.453125 17.121094 307.992188 17.121094 C 309.375 17.121094 310.773438 15.21875 311.332031 13.320312 C 311.492188 12.800781 311.632812 12 311.632812 11.320312 Z M 313.734375 9.578125 L 311.914062 16.480469 C 312.195312 20.960938 311.894531 16.519531 311.894531 16.699219 C 311.894531 16.921875 312.011719 17.039062 312.171875 17.039062 C 312.375 17.039062 312.671875 17 313.453125 15.960938 L 313.695312 16.199219 C 313.074219 17.140625 311.992188 18.339844 311.035156 18.339844 C 310.375 18.339844 310.195312 17.878906 310.195312 17.238281 C 310.195312 16.980469 310.3125 16.558594 310.414062 16.238281 L 310.332031 16.238281 C 308.894531 18.078125 307.652344 18.339844 306.875 18.339844 C 305.613281 18.339844 305.09375 17.238281 305.09375 15.960938 C 305.09375 13.320312 307.734375 9.320312 310.613281 9.320312 C 311.472656 9.320312 311.894531 9.800781 311.933594 10.238281 L 311.953125 10.238281 L 312.132812 9.578125 Z M 313.734375 9.578125 "/>
<path fill-rule="nonzero" fill="rgb(0%, 0%, 0%)" fill-opacity="1" d="M 318.714844 19.675781 L 318.714844 14.53125 L 315.113281 19.675781 Z M 321.429688 20.636719 L 319.882812 20.636719 L 319.882812 23.140625 L 318.714844 23.140625 L 318.714844 20.636719 L 314.511719 20.636719 L 314.511719 19.675781 L 319.222656 13 L 319.882812 13 L 319.882812 19.675781 L 321.429688 19.675781 Z M 321.429688 20.636719 "/>
<path fill-rule="nonzero" fill="rgb(0%, 0%, 0%)" fill-opacity="1" d="M 331.15625 13.078125 C 331.15625 13.71875 330.617188 14.28125 329.976562 14.28125 C 329.316406 14.28125 328.757812 13.679688 328.757812 13.078125 C 328.757812 12.480469 329.316406 11.878906 329.976562 11.878906 C 330.617188 11.878906 331.15625 12.441406 331.15625 13.078125 Z M 331.15625 13.078125 "/>
<path fill-rule="nonzero" fill="rgb(0%, 0%, 0%)" fill-opacity="1" d="M 350.863281 4.78125 L 349.800781 9.199219 L 349.480469 9.199219 C 349.503906 9.039062 349.503906 8.878906 349.503906 8.71875 C 349.503906 7.039062 348.542969 5.519531 346.300781 5.519531 C 345.441406 5.519531 343.882812 6.039062 343.882812 7.460938 C 343.882812 8.839844 345.101562 9.679688 346.222656 10.640625 C 347.402344 11.621094 348.582031 12.78125 348.582031 14.519531 C 348.582031 16.5 346.84375 18.339844 343.703125 18.339844 C 341.824219 18.339844 341.203125 17.578125 339.683594 17.578125 C 339.183594 17.578125 338.902344 17.800781 338.582031 18.339844 L 338.261719 18.339844 L 339.460938 13.621094 L 339.78125 13.621094 C 339.78125 13.820312 339.800781 14.039062 339.800781 14.238281 C 339.863281 15.820312 340.601562 17.578125 343.222656 17.578125 C 345.761719 17.578125 346.34375 16.160156 346.34375 14.859375 C 346.34375 14.160156 345.980469 13.5 345.421875 12.941406 C 344.824219 12.320312 343.863281 11.601562 343.140625 10.898438 C 342.582031 10.339844 341.683594 9.261719 341.683594 8.28125 C 341.683594 6.660156 342.980469 4.78125 346.140625 4.78125 C 347.800781 4.78125 348.941406 5.519531 349.800781 5.519531 C 350.203125 5.519531 350.480469 5.078125 350.542969 4.78125 Z M 350.863281 4.78125 "/>
<path fill-rule="nonzero" fill="rgb(0%, 0%, 0%)" fill-opacity="1" d="M 356.042969 6.675781 L 356.042969 1.53125 L 352.441406 6.675781 Z M 358.757812 7.636719 L 357.210938 7.636719 L 357.210938 10.140625 L 356.042969 10.140625 L 356.042969 7.636719 L 351.84375 7.636719 L 351.84375 6.675781 L 356.550781 0 L 357.210938 0 L 357.210938 6.675781 L 358.757812 6.675781 Z M 358.757812 7.636719 "/>
</svg>
