<?xml version="1.0" encoding="UTF-8"?>
<svg xmlns="http://www.w3.org/2000/svg" xmlns:xlink="http://www.w3.org/1999/xlink" width="154" height="67" viewBox="0 0 154 67" data-dpi="1440">
<path fill-rule="nonzero" fill="rgb(100%, 100%, 100%)" fill-opacity="1" d="M 11.011719 17.640625 C 11.011719 15.691406 9.988281 15.058594 9.179688 15.058594 C 6.210938 15.058594 3.628906 19.53125 3.628906 23.699219 C 3.628906 24.839844 3.75 26.640625 5.640625 26.640625 C 7.949219 26.640625 9.71875 23.640625 10.558594 20.578125 C 10.828125 19.589844 11.011719 18.570312 11.011719 17.640625 Z M 5.851562 8.460938 L 5.550781 7.859375 C 6.390625 7.351562 7.46875 7.171875 8.488281 7.171875 C 12.269531 7.171875 14.128906 9.871094 14.128906 14.96875 C 14.128906 19.410156 12.300781 27.539062 5.28125 27.539062 C 2.339844 27.539062 1.199219 25.230469 1.199219 22.679688 C 1.199219 18.449219 4.53125 14.160156 8.910156 14.160156 C 9.871094 14.160156 11.160156 14.488281 11.789062 15.601562 C 11.910156 14.941406 12 14.21875 12 13.5 C 12 10.859375 11.128906 8.070312 8.070312 8.070312 C 7.261719 8.070312 6.601562 8.21875 5.851562 8.460938 Z M 5.851562 8.460938 "/>
<path fill-rule="nonzero" fill="rgb(100%, 100%, 100%)" fill-opacity="1" d="M 25.996094 12.128906 L 24.78125 15.210938 L 15.984375 15.210938 L 15.984375 14.941406 L 19.988281 10.6875 C 22.101562 8.460938 22.914062 6.75 22.914062 4.835938 C 22.914062 2.789062 21.699219 1.664062 19.785156 1.664062 C 18.164062 1.664062 17.378906 2.386719 16.476562 4.589844 L 16.003906 4.476562 C 16.476562 1.84375 17.917969 0 20.683594 0 C 23.226562 0 24.847656 1.734375 24.847656 3.960938 C 24.847656 5.738281 23.96875 7.425781 21.96875 9.539062 L 18.253906 13.5 L 23.519531 13.5 C 24.464844 13.5 24.9375 13.253906 25.679688 11.992188 Z M 25.996094 12.128906 "/>
<path fill-rule="nonzero" fill="rgb(100%, 100%, 100%)" fill-opacity="1" d="M 41.128906 14.371094 L 38.460938 24.808594 C 38.429688 24.929688 38.429688 24.988281 38.429688 25.078125 C 38.429688 25.320312 38.550781 25.5 38.851562 25.5 C 39.480469 25.5 40.050781 24.71875 40.558594 24.121094 L 40.710938 23.941406 L 41.101562 24.269531 C 40.410156 25.261719 38.878906 27.480469 37.140625 27.480469 C 36.269531 27.480469 35.941406 26.910156 35.941406 25.921875 C 35.941406 25.648438 35.96875 25.171875 36.058594 24.808594 L 36.839844 21.960938 L 36.808594 21.960938 C 36.601562 22.109375 33.898438 25.738281 32.699219 26.640625 C 32.011719 27.148438 31.230469 27.480469 30.539062 27.480469 C 29.128906 27.480469 28.710938 26.398438 28.710938 25.261719 C 28.710938 24.628906 28.800781 24.058594 28.949219 23.488281 L 30.71875 16.558594 C 30.839844 16.109375 30.898438 15.929688 30.898438 15.808594 C 30.898438 15.449219 30.570312 15.121094 29.910156 15.121094 C 29.699219 15.121094 29.339844 15.148438 29.128906 15.210938 L 29.039062 14.761719 L 33.75 13.980469 L 31.230469 23.761719 C 31.171875 24.03125 31.140625 24.238281 31.140625 24.480469 C 31.140625 25.109375 31.378906 25.5 31.921875 25.5 C 32.671875 25.5 33.871094 24.570312 34.921875 23.191406 C 36.210938 21.480469 37.589844 18.808594 38.191406 16.621094 L 38.820312 14.371094 Z M 41.128906 14.371094 "/>
<path fill="none" stroke-width="66" stroke-linecap="butt" stroke-linejoin="bevel" stroke="rgb(100%, 100%, 100%)" stroke-opacity="1" stroke-miterlimit="0" d="M 0.000015229 1236.979173 L 1401.041671 1236.979173 " transform="matrix(0.03, 0, 0, 0.03, -0.00000045687, -0.000000453293)"/>
<path fill-rule="nonzero" fill="rgb(100%, 100%, 100%)" fill-opacity="1" d="M 14.023438 57.929688 C 14.023438 55.980469 13.003906 55.351562 12.195312 55.351562 C 9.226562 55.351562 6.644531 59.820312 6.644531 63.988281 C 6.644531 65.128906 6.765625 66.929688 8.65625 66.929688 C 10.964844 66.929688 12.734375 63.929688 13.574219 60.871094 C 13.84375 59.878906 14.023438 58.859375 14.023438 57.929688 Z M 8.863281 48.75 L 8.566406 48.148438 C 9.40625 47.640625 10.484375 47.460938 11.503906 47.460938 C 15.285156 47.460938 17.144531 50.160156 17.144531 55.261719 C 17.144531 59.699219 15.316406 67.828125 8.296875 67.828125 C 5.355469 67.828125 4.214844 65.519531 4.214844 62.96875 C 4.214844 58.738281 7.546875 54.449219 11.925781 54.449219 C 12.886719 54.449219 14.175781 54.78125 14.804688 55.890625 C 14.925781 55.230469 15.015625 54.511719 15.015625 53.789062 C 15.015625 51.148438 14.144531 48.359375 11.085938 48.359375 C 10.273438 48.359375 9.613281 48.511719 8.863281 48.75 Z M 8.863281 48.75 "/>
<path fill-rule="nonzero" fill="rgb(100%, 100%, 100%)" fill-opacity="1" d="M 25.636719 54.359375 L 25.335938 55.5 L 23.234375 55.5 L 20.894531 65.101562 C 20.863281 65.191406 20.835938 65.339844 20.835938 65.429688 C 20.835938 65.609375 20.925781 65.789062 21.316406 65.789062 C 21.316406 65.789062 22.003906 65.730469 23.113281 64.230469 L 23.503906 64.558594 C 22.785156 65.488281 21.285156 67.769531 19.515625 67.769531 C 18.585938 67.769531 18.34375 67.019531 18.34375 66.210938 C 18.34375 65.820312 18.40625 65.429688 18.496094 65.101562 L 20.925781 55.5 L 18.613281 55.5 L 18.765625 54.628906 C 21.015625 54.210938 22.84375 53.101562 24.074219 50.488281 L 24.464844 50.488281 L 23.535156 54.359375 Z M 25.636719 54.359375 "/>
<path fill-rule="nonzero" fill="rgb(100%, 100%, 100%)" fill-opacity="1" d="M 37.199219 56.167969 L 35.984375 59.25 L 27.1875 59.25 L 27.1875 58.980469 L 31.191406 54.726562 C 33.308594 52.5 34.117188 50.789062 34.117188 48.878906 C 34.117188 46.828125 32.902344 45.703125 30.988281 45.703125 C 29.371094 45.703125 28.582031 46.425781 27.683594 48.628906 L 27.210938 48.515625 C 27.683594 45.886719 29.121094 44.039062 31.890625 44.039062 C 34.433594 44.039062 36.050781 45.773438 36.050781 48 C 36.050781 49.777344 35.175781 51.464844 33.171875 53.578125 L 29.460938 57.539062 L 34.726562 57.539062 C 35.671875 57.539062 36.140625 57.292969 36.886719 56.03125 Z M 37.199219 56.167969 "/>
<path fill-rule="nonzero" fill="rgb(100%, 100%, 100%)" fill-opacity="1" d="M 69.472656 41.011719 L 51.804688 41.011719 L 51.804688 39.03125 L 69.472656 39.03125 Z M 69.472656 35.011719 L 51.804688 35.011719 L 51.804688 33.03125 L 69.472656 33.03125 Z M 69.472656 35.011719 "/>
<path fill-rule="nonzero" fill="rgb(100%, 100%, 100%)" fill-opacity="1" d="M 90.136719 41.28125 L 90.496094 41.671875 C 88.964844 43.46875 87.105469 44.941406 84.558594 44.941406 C 81.648438 44.941406 80.445312 42.601562 80.445312 40.289062 C 80.445312 36.089844 84.078125 31.378906 88.335938 31.378906 C 89.835938 31.378906 91.246094 32.191406 91.246094 33.660156 C 91.246094 34.800781 90.765625 35.761719 89.625 35.761719 C 88.847656 35.761719 88.488281 35.128906 88.488281 34.621094 C 88.488281 33.898438 89.355469 33.539062 89.355469 32.878906 C 89.355469 32.519531 89.058594 32.25 88.335938 32.25 C 84.765625 32.25 83.058594 37.621094 83.058594 40.019531 C 83.058594 42.628906 84.527344 43.289062 85.875 43.289062 C 87.707031 43.289062 89.085938 42.300781 90.136719 41.28125 Z M 90.136719 41.28125 "/>
<path fill-rule="nonzero" fill="rgb(100%, 100%, 100%)" fill-opacity="1" d="M 103.863281 29.527344 L 102.648438 32.609375 L 93.847656 32.609375 L 93.847656 32.339844 L 97.855469 28.085938 C 99.96875 25.859375 100.777344 24.148438 100.777344 22.238281 C 100.777344 20.191406 99.5625 19.066406 97.652344 19.066406 C 96.03125 19.066406 95.246094 19.785156 94.34375 21.988281 L 93.871094 21.878906 C 94.34375 19.246094 95.785156 17.398438 98.550781 17.398438 C 101.09375 17.398438 102.714844 19.132812 102.714844 21.359375 C 102.714844 23.136719 101.835938 24.824219 99.835938 26.941406 L 96.121094 30.898438 L 101.386719 30.898438 C 102.332031 30.898438 102.804688 30.652344 103.546875 29.390625 Z M 103.863281 29.527344 "/>
<path fill-rule="nonzero" fill="rgb(100%, 100%, 100%)" fill-opacity="1" d="M 123.796875 25.980469 L 111.257812 25.980469 L 117.496094 40.800781 Z M 125.6875 24.75 L 117.046875 44.96875 L 116.445312 44.96875 L 107.566406 24.75 Z M 125.6875 24.75 "/>
<path fill-rule="nonzero" fill="rgb(100%, 100%, 100%)" fill-opacity="1" d="M 138.273438 29.527344 L 137.058594 32.609375 L 128.257812 32.609375 L 128.257812 32.339844 L 132.265625 28.085938 C 134.378906 25.859375 135.1875 24.148438 135.1875 22.238281 C 135.1875 20.191406 133.972656 19.066406 132.0625 19.066406 C 130.441406 19.066406 129.652344 19.785156 128.753906 21.988281 L 128.28125 21.878906 C 128.753906 19.246094 130.195312 17.398438 132.960938 17.398438 C 135.503906 17.398438 137.125 19.132812 137.125 21.359375 C 137.125 23.136719 136.246094 24.824219 134.246094 26.941406 L 130.53125 30.898438 L 135.796875 30.898438 C 136.742188 30.898438 137.214844 30.652344 137.957031 29.390625 Z M 138.273438 29.527344 "/>
<path fill-rule="nonzero" fill="rgb(100%, 100%, 100%)" fill-opacity="1" d="M 153.40625 31.769531 L 150.738281 42.210938 C 150.707031 42.328125 150.707031 42.390625 150.707031 42.480469 C 150.707031 42.71875 150.828125 42.898438 151.125 42.898438 C 151.757812 42.898438 152.328125 42.121094 152.835938 41.519531 L 152.988281 41.339844 L 153.375 41.671875 C 152.6875 42.660156 151.15625 44.878906 149.417969 44.878906 C 148.546875 44.878906 148.214844 44.308594 148.214844 43.320312 C 148.214844 43.050781 148.246094 42.570312 148.335938 42.210938 L 149.117188 39.359375 L 149.085938 39.359375 C 148.875 39.511719 146.175781 43.140625 144.976562 44.039062 C 144.285156 44.550781 143.507812 44.878906 142.816406 44.878906 C 141.40625 44.878906 140.988281 43.800781 140.988281 42.660156 C 140.988281 42.03125 141.078125 41.460938 141.226562 40.890625 L 142.996094 33.960938 C 143.117188 33.511719 143.175781 33.328125 143.175781 33.210938 C 143.175781 32.851562 142.847656 32.519531 142.1875 32.519531 C 141.976562 32.519531 141.617188 32.550781 141.40625 32.609375 L 141.316406 32.160156 L 146.027344 31.378906 L 143.507812 41.160156 C 143.445312 41.429688 143.417969 41.640625 143.417969 41.878906 C 143.417969 42.511719 143.65625 42.898438 144.195312 42.898438 C 144.945312 42.898438 146.148438 41.96875 147.195312 40.589844 C 148.488281 38.878906 149.867188 36.210938 150.464844 34.019531 L 151.097656 31.769531 Z M 153.40625 31.769531 "/>
</svg>
