<?xml version="1.0" encoding="UTF-8"?>
<svg xmlns="http://www.w3.org/2000/svg" xmlns:xlink="http://www.w3.org/1999/xlink" width="68" height="42" viewBox="0 0 68 42" data-dpi="720">
<path fill-rule="nonzero" fill="rgb(0%, 0%, 0%)" fill-opacity="1" d="M 10.480469 26.304688 L 6.621094 17.503906 L 2.71875 26.304688 Z M 13.5 28.144531 L 0.960938 28.144531 L 6.941406 14.664062 L 7.339844 14.664062 Z M 13.5 28.144531 "/>
<path fill-rule="nonzero" fill="rgb(0%, 0%, 0%)" fill-opacity="1" d="M 19.398438 19.40625 L 20.140625 19.40625 C 21.398438 19.40625 21.300781 17.863281 22.160156 16.585938 C 22.78125 15.644531 23.640625 14.785156 25.160156 14.785156 C 26.160156 14.785156 26.738281 15.265625 26.738281 15.964844 C 26.738281 16.523438 26.320312 16.765625 25.921875 16.765625 C 25.359375 16.765625 25.21875 16.546875 25.21875 16.265625 C 25.21875 15.984375 25.398438 15.683594 25.398438 15.523438 C 25.398438 15.425781 25.339844 15.363281 25.101562 15.363281 C 24.101562 15.363281 23.320312 16.445312 22.898438 18.003906 L 22.519531 19.40625 L 24.121094 19.40625 L 23.878906 20.164062 L 22.359375 20.164062 L 20.78125 26.285156 C 20.640625 26.824219 20.480469 27.585938 20.179688 28.324219 C 19.519531 29.984375 18.441406 31.886719 16.679688 31.886719 C 15.71875 31.886719 15.238281 31.40625 15.238281 30.804688 C 15.238281 30.324219 15.519531 29.824219 16.101562 29.824219 C 16.640625 29.824219 16.839844 30.183594 16.839844 30.484375 C 16.839844 30.863281 16.519531 30.886719 16.519531 31.125 C 16.519531 31.246094 16.640625 31.304688 16.820312 31.304688 C 18.121094 31.304688 18.71875 28.144531 19.019531 27.003906 L 20.761719 20.164062 L 19.21875 20.164062 Z M 19.398438 19.40625 "/>
<path fill-rule="nonzero" fill="rgb(0%, 0%, 0%)" fill-opacity="1" d="M 43.835938 25.746094 L 32.054688 25.746094 L 32.054688 24.425781 L 43.835938 24.425781 Z M 43.835938 21.746094 L 32.054688 21.746094 L 32.054688 20.425781 L 43.835938 20.425781 Z M 43.835938 21.746094 "/>
<path fill-rule="nonzero" fill="rgb(0%, 0%, 0%)" fill-opacity="1" d="M 55.3125 4.621094 L 56.050781 4.621094 C 57.3125 4.621094 57.210938 3.078125 58.070312 1.800781 C 58.691406 0.859375 59.550781 0 61.070312 0 C 62.070312 0 62.652344 0.480469 62.652344 1.179688 C 62.652344 1.738281 62.230469 1.980469 61.832031 1.980469 C 61.269531 1.980469 61.132812 1.761719 61.132812 1.480469 C 61.132812 1.199219 61.3125 0.898438 61.3125 0.738281 C 61.3125 0.640625 61.25 0.578125 61.011719 0.578125 C 60.011719 0.578125 59.230469 1.660156 58.8125 3.21875 L 58.429688 4.621094 L 60.03125 4.621094 L 59.792969 5.378906 L 58.269531 5.378906 L 56.691406 11.5 C 56.550781 12.039062 56.390625 12.800781 56.089844 13.539062 C 55.429688 15.199219 54.351562 17.101562 52.589844 17.101562 C 51.632812 17.101562 51.152344 16.621094 51.152344 16.019531 C 51.152344 15.539062 51.429688 15.039062 52.011719 15.039062 C 52.550781 15.039062 52.75 15.398438 52.75 15.699219 C 52.75 16.078125 52.429688 16.101562 52.429688 16.339844 C 52.429688 16.460938 52.550781 16.519531 52.730469 16.519531 C 54.03125 16.519531 54.632812 13.359375 54.929688 12.21875 L 56.671875 5.378906 L 55.132812 5.378906 Z M 55.3125 4.621094 "/>
<path fill-rule="nonzero" fill="rgb(0%, 0%, 0%)" fill-opacity="1" d="M 67.300781 11.746094 L 66.941406 13.933594 L 66.714844 13.933594 C 66.714844 12.976562 66.175781 12.136719 65.335938 12.136719 C 64.960938 12.136719 64.570312 12.390625 64.570312 13.003906 C 64.570312 13.828125 66.582031 15.210938 66.582031 16.636719 C 66.582031 17.566406 65.859375 18.511719 64.554688 18.511719 C 64.046875 18.511719 63.085938 18.210938 62.90625 18.210938 C 62.769531 18.210938 62.636719 18.269531 62.457031 18.523438 L 62.199219 18.523438 L 62.574219 16.183594 L 62.816406 16.183594 C 62.816406 17.128906 63.429688 18.136719 64.375 18.136719 C 65.261719 18.136719 65.472656 17.386719 65.472656 16.800781 C 65.472656 15.570312 63.519531 14.820312 63.519531 13.351562 C 63.519531 12.164062 64.40625 11.746094 65.230469 11.746094 C 65.875 11.746094 66.175781 12.046875 66.609375 12.046875 C 66.777344 12.046875 66.941406 11.894531 67.0625 11.746094 Z M 67.300781 11.746094 "/>
<path fill="none" stroke-width="66" stroke-linecap="butt" stroke-linejoin="bevel" stroke="rgb(0%, 0%, 0%)" stroke-opacity="1" stroke-miterlimit="0" d="M 2517.578198 1157.226581 L 3443.554753 1157.226581 " transform="matrix(0.02, 0, 0, 0.02, -0.00000183139, -0.000000547171)"/>
<path fill-rule="nonzero" fill="rgb(0%, 0%, 0%)" fill-opacity="1" d="M 69.121094 29.085938 L 69.042969 29.40625 L 68.679688 29.40625 C 67.179688 29.40625 66.722656 29.925781 66.542969 30.664062 L 63.660156 42.144531 L 63.179688 42.144531 L 57.699219 31.625 L 57.582031 31.625 L 55.421875 40.585938 C 55.382812 40.746094 55.359375 40.90625 55.359375 41.125 C 55.359375 41.523438 55.699219 41.824219 56.882812 41.824219 L 57.261719 41.824219 L 57.179688 42.144531 L 51.859375 42.144531 L 51.941406 41.824219 L 52.300781 41.824219 C 53.800781 41.824219 54.261719 41.265625 54.421875 40.585938 L 56.941406 30.40625 C 56.5625 29.546875 55.699219 29.40625 55.101562 29.40625 L 54.722656 29.40625 L 54.800781 29.085938 L 58.800781 29.085938 L 63.519531 38.386719 L 63.621094 38.386719 L 65.5625 30.664062 C 65.601562 30.484375 65.640625 30.34375 65.640625 30.144531 C 65.640625 29.746094 65.300781 29.40625 64.121094 29.40625 L 63.722656 29.40625 L 63.800781 29.085938 Z M 69.121094 29.085938 "/>
</svg>
