<?xml version="1.0" encoding="UTF-8"?>
<svg xmlns="http://www.w3.org/2000/svg" xmlns:xlink="http://www.w3.org/1999/xlink" width="129" height="39" viewBox="0 0 129 39" data-dpi="720">
<path fill-rule="nonzero" fill="rgb(0%, 0%, 0%)" fill-opacity="1" d="M 12.761719 6.558594 C 12.761719 5.621094 12.460938 5.140625 11.640625 5.140625 C 9.660156 5.140625 8.039062 9.140625 8.039062 11.058594 C 8.039062 12.039062 8.601562 12.378906 9.160156 12.378906 C 10.558594 12.378906 11.878906 10.5 12.441406 8.660156 C 12.660156 7.960938 12.761719 7.179688 12.761719 6.558594 Z M 16.039062 0 L 13.058594 11.960938 C 13.039062 12.019531 13.019531 12.140625 13.019531 12.199219 C 13.019531 12.320312 13.121094 12.378906 13.320312 12.378906 C 13.71875 12.378906 14.28125 11.679688 14.558594 11.261719 L 14.78125 11.5 C 14.179688 12.398438 13.121094 13.601562 12.179688 13.601562 C 11.539062 13.601562 11.378906 13.140625 11.378906 12.78125 C 11.378906 12.378906 11.421875 12.101562 11.578125 11.5 L 11.480469 11.5 C 10 13.359375 8.800781 13.601562 8.058594 13.601562 C 6.601562 13.601562 6.300781 12.121094 6.300781 11.058594 C 6.300781 9 8.359375 4.539062 11.441406 4.539062 C 12.578125 4.539062 13.039062 5.058594 13.058594 5.539062 L 13.101562 5.539062 L 14.160156 1.359375 C 14.179688 1.28125 14.199219 1.199219 14.199219 1.121094 C 14.199219 0.859375 14.058594 0.71875 13.539062 0.71875 C 13.359375 0.71875 13.140625 0.761719 13 0.78125 L 12.921875 0.480469 Z M 16.039062 0 "/>
<path fill="none" stroke-width="66" stroke-linecap="butt" stroke-linejoin="bevel" stroke="rgb(0%, 0%, 0%)" stroke-opacity="1" stroke-miterlimit="0" d="M 0 998.046897 L 1082.031274 998.046897 " transform="matrix(0.02, 0, 0, 0.02, 0, 0)"/>
<path fill-rule="nonzero" fill="rgb(0%, 0%, 0%)" fill-opacity="1" d="M 7.261719 32.160156 C 7.261719 31.21875 6.960938 30.738281 6.140625 30.738281 C 4.160156 30.738281 2.539062 34.738281 2.539062 36.660156 C 2.539062 37.640625 3.101562 37.980469 3.660156 37.980469 C 5.058594 37.980469 6.378906 36.101562 6.941406 34.261719 C 7.160156 33.558594 7.261719 32.78125 7.261719 32.160156 Z M 10.539062 25.601562 L 7.558594 37.558594 C 7.539062 37.621094 7.519531 37.738281 7.519531 37.800781 C 7.519531 37.921875 7.621094 37.980469 7.820312 37.980469 C 8.21875 37.980469 8.78125 37.28125 9.058594 36.859375 L 9.28125 37.101562 C 8.679688 38 7.621094 39.199219 6.679688 39.199219 C 6.039062 39.199219 5.878906 38.738281 5.878906 38.378906 C 5.878906 37.980469 5.921875 37.699219 6.078125 37.101562 L 5.980469 37.101562 C 4.5 38.960938 3.300781 39.199219 2.558594 39.199219 C 1.101562 39.199219 0.800781 37.71875 0.800781 36.660156 C 0.800781 34.601562 2.859375 30.140625 5.941406 30.140625 C 7.078125 30.140625 7.539062 30.660156 7.558594 31.140625 L 7.601562 31.140625 L 8.660156 26.960938 C 8.679688 26.878906 8.699219 26.800781 8.699219 26.71875 C 8.699219 26.460938 8.558594 26.320312 8.039062 26.320312 C 7.859375 26.320312 7.640625 26.359375 7.5 26.378906 L 7.421875 26.078125 Z M 10.539062 25.601562 "/>
<path fill-rule="nonzero" fill="rgb(0%, 0%, 0%)" fill-opacity="1" d="M 16.738281 33.199219 L 17.640625 31.820312 C 18.160156 31.019531 18.859375 30.140625 19.859375 30.140625 C 20.5 30.140625 20.839844 30.378906 20.839844 30.800781 C 20.839844 31.179688 20.578125 31.640625 20.058594 31.640625 C 19.621094 31.640625 19.519531 31.460938 19.179688 31.460938 C 18.578125 31.460938 18.359375 31.78125 18.078125 32.21875 L 16.980469 33.921875 C 17.578125 35.160156 18.039062 37.859375 18.941406 37.859375 C 19.261719 37.859375 19.738281 37.578125 20.160156 36.71875 L 20.441406 36.921875 C 20.199219 37.21875 19.300781 39.140625 18.140625 39.140625 C 17.320312 39.140625 16.941406 38.320312 16.679688 37.601562 L 15.878906 35.339844 L 14.621094 37.300781 C 13.980469 38.28125 13.398438 39.140625 12.28125 39.140625 C 11.558594 39.140625 11.238281 38.640625 11.238281 38.199219 C 11.238281 37.878906 11.5 37.460938 12 37.460938 C 12.519531 37.460938 12.441406 37.859375 12.941406 37.859375 C 13.179688 37.859375 13.699219 37.660156 14.339844 36.679688 L 15.640625 34.660156 L 14.980469 32.820312 C 14.640625 31.859375 14.121094 31.039062 13.019531 31.039062 C 12.761719 31.039062 12.460938 31.078125 12.261719 31.160156 L 12.199219 30.800781 L 14.839844 30.140625 C 15.71875 30.621094 16.101562 31.441406 16.339844 32.101562 Z M 16.738281 33.199219 "/>
<path fill-rule="nonzero" fill="rgb(0%, 0%, 0%)" fill-opacity="1" d="M 30.953125 28.140625 L 26.734375 28.140625 L 26.734375 11.78125 L 30.953125 11.78125 L 30.953125 12.28125 L 29.292969 12.28125 C 28.613281 12.28125 28.253906 12.519531 28.253906 13.238281 L 28.253906 26.558594 C 28.253906 27.359375 28.632812 27.640625 29.292969 27.640625 L 30.953125 27.640625 Z M 30.953125 28.140625 "/>
<path fill-rule="nonzero" fill="rgb(0%, 0%, 0%)" fill-opacity="1" d="M 37.734375 19.199219 L 38.632812 17.820312 C 39.152344 17.019531 39.851562 16.140625 40.851562 16.140625 C 41.492188 16.140625 41.832031 16.378906 41.832031 16.800781 C 41.832031 17.179688 41.574219 17.640625 41.054688 17.640625 C 40.613281 17.640625 40.511719 17.460938 40.171875 17.460938 C 39.574219 17.460938 39.351562 17.78125 39.074219 18.21875 L 37.972656 19.921875 C 38.574219 21.160156 39.035156 23.859375 39.933594 23.859375 C 40.253906 23.859375 40.734375 23.578125 41.152344 22.71875 L 41.433594 22.921875 C 41.191406 23.21875 40.292969 25.140625 39.132812 25.140625 C 38.3125 25.140625 37.933594 24.320312 37.671875 23.601562 L 36.875 21.339844 L 35.613281 23.300781 C 34.972656 24.28125 34.394531 25.140625 33.273438 25.140625 C 32.554688 25.140625 32.234375 24.640625 32.234375 24.199219 C 32.234375 23.878906 32.492188 23.460938 32.992188 23.460938 C 33.511719 23.460938 33.433594 23.859375 33.933594 23.859375 C 34.171875 23.859375 34.691406 23.660156 35.332031 22.679688 L 36.632812 20.660156 L 35.972656 18.820312 C 35.632812 17.859375 35.113281 17.039062 34.011719 17.039062 C 33.753906 17.039062 33.453125 17.078125 33.253906 17.160156 L 33.191406 16.800781 L 35.832031 16.140625 C 36.714844 16.621094 37.09375 17.441406 37.332031 18.101562 Z M 37.734375 19.199219 "/>
<path fill-rule="nonzero" fill="rgb(0%, 0%, 0%)" fill-opacity="1" d="M 49.636719 15.519531 L 49.5625 15.609375 C 49.144531 16.121094 48.421875 17.078125 47.644531 17.078125 C 47.164062 17.078125 47.027344 16.734375 47.027344 16.390625 C 47.027344 16.195312 47.089844 15.953125 47.132812 15.789062 L 47.988281 12.476562 C 48.019531 12.355469 48.09375 12.054688 48.09375 11.84375 C 48.09375 11.558594 48.003906 11.273438 47.734375 11.273438 C 47.164062 11.273438 46.21875 12.566406 45.753906 13.269531 C 45.214844 14.078125 44.824219 14.785156 44.734375 15.101562 L 44.238281 16.960938 L 43.082031 16.960938 L 44.507812 11.351562 C 44.507812 11.078125 44.464844 10.871094 44.058594 10.871094 C 43.910156 10.871094 43.742188 10.898438 43.636719 10.914062 L 43.609375 10.691406 L 45.992188 10.34375 L 45.226562 13.179688 L 45.273438 13.179688 C 45.347656 13.179688 46.082031 12.128906 46.113281 12.085938 C 46.714844 11.335938 47.613281 10.34375 48.511719 10.34375 C 49.171875 10.34375 49.351562 10.78125 49.351562 11.273438 C 49.351562 11.648438 49.261719 12.023438 49.1875 12.324219 L 48.304688 15.789062 C 48.289062 15.820312 48.289062 15.863281 48.289062 15.941406 C 48.304688 16.03125 48.347656 16.148438 48.511719 16.148438 C 48.875 16.148438 49.234375 15.609375 49.441406 15.355469 Z M 49.636719 15.519531 "/>
<path fill-rule="nonzero" fill="rgb(0%, 0%, 0%)" fill-opacity="1" d="M 55.808594 28.140625 L 51.589844 28.140625 L 51.589844 27.640625 L 53.347656 27.640625 C 54.046875 27.640625 54.289062 27.339844 54.289062 26.71875 L 54.289062 13.359375 C 54.289062 12.660156 54.027344 12.28125 53.269531 12.28125 L 51.589844 12.28125 L 51.589844 11.78125 L 55.808594 11.78125 Z M 55.808594 28.140625 "/>
<path fill-rule="nonzero" fill="rgb(0%, 0%, 0%)" fill-opacity="1" d="M 75.863281 22.558594 L 64.082031 22.558594 L 64.082031 21.238281 L 75.863281 21.238281 Z M 75.863281 18.558594 L 64.082031 18.558594 L 64.082031 17.238281 L 75.863281 17.238281 Z M 75.863281 18.558594 "/>
<path fill-rule="nonzero" fill="rgb(0%, 0%, 0%)" fill-opacity="1" d="M 91.71875 23.039062 L 91.621094 23.160156 C 91.058594 23.839844 90.097656 25.121094 89.058594 25.121094 C 88.417969 25.121094 88.238281 24.660156 88.238281 24.199219 C 88.238281 23.941406 88.320312 23.621094 88.378906 23.398438 L 89.519531 18.980469 C 89.558594 18.820312 89.660156 18.421875 89.660156 18.140625 C 89.660156 17.761719 89.539062 17.378906 89.179688 17.378906 C 88.417969 17.378906 87.160156 19.101562 86.539062 20.039062 C 85.820312 21.121094 85.300781 22.058594 85.179688 22.480469 L 84.519531 24.960938 L 82.980469 24.960938 L 84.878906 17.480469 C 84.878906 17.121094 84.820312 16.839844 84.28125 16.839844 C 84.078125 16.839844 83.859375 16.878906 83.71875 16.898438 L 83.679688 16.601562 L 86.859375 16.140625 L 85.839844 19.921875 L 85.898438 19.921875 C 86 19.921875 86.980469 18.519531 87.019531 18.460938 C 87.820312 17.460938 89.019531 16.140625 90.21875 16.140625 C 91.097656 16.140625 91.339844 16.71875 91.339844 17.378906 C 91.339844 17.878906 91.21875 18.378906 91.121094 18.78125 L 89.9375 23.398438 C 89.917969 23.441406 89.917969 23.5 89.917969 23.601562 C 89.9375 23.71875 90 23.878906 90.21875 23.878906 C 90.699219 23.878906 91.179688 23.160156 91.460938 22.820312 Z M 91.71875 23.039062 "/>
<path fill-rule="nonzero" fill="rgb(0%, 0%, 0%)" fill-opacity="1" d="M 98.417969 19.199219 L 99.320312 17.820312 C 99.839844 17.019531 100.539062 16.140625 101.539062 16.140625 C 102.179688 16.140625 102.519531 16.378906 102.519531 16.800781 C 102.519531 17.179688 102.257812 17.640625 101.738281 17.640625 C 101.300781 17.640625 101.199219 17.460938 100.859375 17.460938 C 100.257812 17.460938 100.039062 17.78125 99.757812 18.21875 L 98.660156 19.921875 C 99.257812 21.160156 99.71875 23.859375 100.621094 23.859375 C 100.9375 23.859375 101.417969 23.578125 101.839844 22.71875 L 102.121094 22.921875 C 101.878906 23.21875 100.980469 25.140625 99.820312 25.140625 C 99 25.140625 98.621094 24.320312 98.359375 23.601562 L 97.558594 21.339844 L 96.300781 23.300781 C 95.660156 24.28125 95.078125 25.140625 93.960938 25.140625 C 93.238281 25.140625 92.917969 24.640625 92.917969 24.199219 C 92.917969 23.878906 93.179688 23.460938 93.679688 23.460938 C 94.199219 23.460938 94.121094 23.859375 94.621094 23.859375 C 94.859375 23.859375 95.378906 23.660156 96.019531 22.679688 L 97.320312 20.660156 L 96.660156 18.820312 C 96.320312 17.859375 95.800781 17.039062 94.699219 17.039062 C 94.4375 17.039062 94.140625 17.078125 93.9375 17.160156 L 93.878906 16.800781 L 96.519531 16.140625 C 97.398438 16.621094 97.78125 17.441406 98.019531 18.101562 Z M 98.417969 19.199219 "/>
<path fill-rule="nonzero" fill="rgb(0%, 0%, 0%)" fill-opacity="1" d="M 110.324219 15.519531 L 110.25 15.609375 C 109.828125 16.121094 109.109375 17.078125 108.328125 17.078125 C 107.847656 17.078125 107.714844 16.734375 107.714844 16.390625 C 107.714844 16.195312 107.773438 15.953125 107.820312 15.789062 L 108.675781 12.476562 C 108.703125 12.355469 108.78125 12.054688 108.78125 11.84375 C 108.78125 11.558594 108.6875 11.273438 108.417969 11.273438 C 107.847656 11.273438 106.90625 12.566406 106.4375 13.269531 C 105.898438 14.078125 105.507812 14.785156 105.417969 15.101562 L 104.925781 16.960938 L 103.769531 16.960938 L 105.195312 11.351562 C 105.195312 11.078125 105.148438 10.871094 104.746094 10.871094 C 104.59375 10.871094 104.429688 10.898438 104.324219 10.914062 L 104.292969 10.691406 L 106.679688 10.34375 L 105.914062 13.179688 L 105.960938 13.179688 C 106.035156 13.179688 106.769531 12.128906 106.800781 12.085938 C 107.398438 11.335938 108.300781 10.34375 109.199219 10.34375 C 109.859375 10.34375 110.039062 10.78125 110.039062 11.273438 C 110.039062 11.648438 109.949219 12.023438 109.875 12.324219 L 108.988281 15.789062 C 108.972656 15.820312 108.972656 15.863281 108.972656 15.941406 C 108.988281 16.03125 109.035156 16.148438 109.199219 16.148438 C 109.558594 16.148438 109.917969 15.609375 110.128906 15.355469 Z M 110.324219 15.519531 "/>
<path fill-rule="nonzero" fill="rgb(0%, 0%, 0%)" fill-opacity="1" d="M 120.089844 13.660156 L 111.734375 13.660156 L 111.734375 12.671875 L 120.089844 12.671875 Z M 120.089844 13.660156 "/>
<path fill-rule="nonzero" fill="rgb(0%, 0%, 0%)" fill-opacity="1" d="M 126.960938 16.960938 L 122.820312 16.960938 L 122.820312 16.734375 C 123.929688 16.675781 124.246094 16.359375 124.246094 15.535156 L 124.246094 8.800781 C 124.246094 8.289062 124.109375 8.066406 123.792969 8.066406 C 123.644531 8.066406 123.390625 8.140625 123.121094 8.246094 L 122.714844 8.394531 L 122.714844 8.183594 L 125.398438 6.820312 L 125.535156 6.863281 L 125.535156 15.820312 C 125.535156 16.464844 125.835938 16.734375 126.960938 16.734375 Z M 126.960938 16.960938 "/>
</svg>
