<?xml version="1.0" encoding="UTF-8"?>
<svg xmlns="http://www.w3.org/2000/svg" xmlns:xlink="http://www.w3.org/1999/xlink" width="70" height="18" viewBox="0 0 70 18" data-dpi="720">
<path fill-rule="nonzero" fill="rgb(0%, 0%, 0%)" fill-opacity="1" d="M 14.679688 5.078125 L 13.839844 8.238281 L 13.519531 8.238281 C 13.539062 7.980469 13.558594 7.761719 13.558594 7.539062 C 13.5 6.058594 12.398438 5.800781 11.378906 5.800781 L 8.179688 5.800781 L 6.980469 10.761719 L 8.578125 10.761719 C 9.78125 10.761719 10.660156 10.5 11.101562 8.859375 L 11.421875 8.859375 L 10.261719 13.699219 L 9.921875 13.699219 C 9.941406 13.441406 10.039062 12.839844 10.039062 12.5 C 10.039062 11.558594 9.21875 11.480469 8.601562 11.480469 L 6.800781 11.480469 L 5.480469 16.640625 C 5.460938 16.71875 5.441406 16.78125 5.441406 16.839844 C 5.441406 17.160156 5.761719 17.378906 6.699219 17.378906 L 8.039062 17.378906 C 11.199219 17.378906 12.320312 16.441406 13.179688 14.179688 L 13.5 14.179688 L 12.179688 18.140625 L 0.761719 18.140625 L 0.839844 17.820312 L 1.21875 17.820312 C 2.679688 17.820312 3.140625 17.261719 3.300781 16.578125 L 5.699219 6.820312 C 5.78125 6.460938 5.800781 6.238281 5.800781 6.101562 C 5.800781 5.621094 5.480469 5.398438 4.300781 5.398438 L 3.921875 5.398438 L 4 5.078125 Z M 14.679688 5.078125 "/>
<path fill-rule="nonzero" fill="rgb(0%, 0%, 0%)" fill-opacity="1" d="M 32.574219 15.738281 L 20.796875 15.738281 L 20.796875 14.421875 L 32.574219 14.421875 Z M 32.574219 11.738281 L 20.796875 11.738281 L 20.796875 10.421875 L 32.574219 10.421875 Z M 32.574219 11.738281 "/>
<path fill-rule="nonzero" fill="rgb(0%, 0%, 0%)" fill-opacity="1" d="M 52.429688 16 L 52.691406 16.21875 C 52.050781 17.300781 51.011719 18.300781 50.070312 18.300781 C 49.632812 18.300781 49.292969 18.101562 49.292969 17.320312 C 49.292969 17.179688 49.3125 16.980469 49.410156 16.578125 L 50.53125 12.160156 C 50.609375 11.878906 50.652344 11.699219 50.652344 11.359375 C 50.652344 10.960938 50.53125 10.601562 50.171875 10.601562 C 49.089844 10.601562 46.890625 14.21875 46.589844 15.441406 L 45.910156 18.140625 L 44.332031 18.140625 L 45.871094 12.160156 C 45.910156 11.980469 45.972656 11.660156 45.972656 11.359375 C 45.972656 10.960938 45.871094 10.601562 45.511719 10.601562 C 44.472656 10.601562 42.269531 14.21875 41.949219 15.441406 L 41.25 18.140625 L 39.691406 18.140625 L 41.589844 10.660156 C 41.589844 10.300781 41.472656 10.039062 40.929688 10.039062 C 40.769531 10.039062 40.550781 10.058594 40.390625 10.078125 L 40.351562 9.800781 L 43.492188 9.320312 L 42.609375 12.699219 L 42.730469 12.699219 C 44.609375 9.839844 45.8125 9.320312 46.570312 9.320312 C 47.3125 9.320312 47.671875 10.058594 47.671875 10.941406 C 47.671875 11.28125 47.609375 11.578125 47.492188 11.980469 L 47.292969 12.699219 L 47.390625 12.699219 C 47.972656 11.660156 49.011719 10.421875 49.992188 9.761719 C 50.429688 9.460938 50.8125 9.320312 51.210938 9.320312 C 51.929688 9.320312 52.292969 9.839844 52.292969 10.738281 C 52.292969 11.101562 52.269531 11.480469 52.152344 11.960938 L 50.929688 16.578125 C 50.910156 16.640625 50.890625 16.761719 50.890625 16.820312 C 50.890625 16.980469 51.011719 17.058594 51.191406 17.058594 C 51.53125 17.058594 52.050781 16.738281 52.429688 16 Z M 52.429688 16 "/>
<path fill-rule="nonzero" fill="rgb(0%, 0%, 0%)" fill-opacity="1" d="M 60.550781 15.921875 L 60.792969 16.179688 C 59.769531 17.378906 58.53125 18.359375 56.832031 18.359375 C 54.890625 18.359375 54.089844 16.800781 54.089844 15.261719 C 54.089844 12.460938 56.511719 9.320312 59.351562 9.320312 C 60.351562 9.320312 61.292969 9.859375 61.292969 10.839844 C 61.292969 11.601562 60.972656 12.238281 60.210938 12.238281 C 59.691406 12.238281 59.449219 11.820312 59.449219 11.480469 C 59.449219 11 60.03125 10.761719 60.03125 10.320312 C 60.03125 10.078125 59.832031 9.898438 59.351562 9.898438 C 56.972656 9.898438 55.832031 13.480469 55.832031 15.078125 C 55.832031 16.820312 56.8125 17.261719 57.710938 17.261719 C 58.929688 17.261719 59.851562 16.601562 60.550781 15.921875 Z M 60.550781 15.921875 "/>
<path fill-rule="nonzero" fill="rgb(0%, 0%, 0%)" fill-opacity="1" d="M 69.699219 8.085938 L 68.890625 10.140625 L 63.027344 10.140625 L 63.027344 9.960938 L 65.695312 7.125 C 67.105469 5.640625 67.644531 4.5 67.644531 3.226562 C 67.644531 1.859375 66.835938 1.109375 65.5625 1.109375 C 64.480469 1.109375 63.957031 1.589844 63.355469 3.058594 L 63.042969 2.984375 C 63.355469 1.230469 64.316406 0 66.160156 0 C 67.855469 0 68.9375 1.15625 68.9375 2.640625 C 68.9375 3.824219 68.351562 4.949219 67.015625 6.359375 L 64.542969 9 L 68.050781 9 C 68.679688 9 68.996094 8.835938 69.492188 7.996094 Z M 69.699219 8.085938 "/>
</svg>
