<?xml version="1.0" encoding="UTF-8"?>
<svg xmlns="http://www.w3.org/2000/svg" xmlns:xlink="http://www.w3.org/1999/xlink" width="304" height="46" viewBox="0 0 304 46" data-dpi="720">
<path fill-rule="nonzero" fill="rgb(0%, 0%, 0%)" fill-opacity="1" d="M 4.960938 17.980469 L 5.699219 17.980469 C 6.960938 17.980469 6.859375 16.441406 7.71875 15.160156 C 8.339844 14.21875 9.199219 13.359375 10.71875 13.359375 C 11.71875 13.359375 12.300781 13.839844 12.300781 14.539062 C 12.300781 15.101562 11.878906 15.339844 11.480469 15.339844 C 10.921875 15.339844 10.78125 15.121094 10.78125 14.839844 C 10.78125 14.558594 10.960938 14.261719 10.960938 14.101562 C 10.960938 14 10.898438 13.941406 10.660156 13.941406 C 9.660156 13.941406 8.878906 15.019531 8.460938 16.578125 L 8.078125 17.980469 L 9.679688 17.980469 L 9.441406 18.738281 L 7.921875 18.738281 L 6.339844 24.859375 C 6.199219 25.398438 6.039062 26.160156 5.738281 26.898438 C 5.078125 28.558594 4 30.460938 2.238281 30.460938 C 1.28125 30.460938 0.800781 29.980469 0.800781 29.378906 C 0.800781 28.898438 1.078125 28.398438 1.660156 28.398438 C 2.199219 28.398438 2.398438 28.761719 2.398438 29.058594 C 2.398438 29.441406 2.078125 29.460938 2.078125 29.699219 C 2.078125 29.820312 2.199219 29.878906 2.378906 29.878906 C 3.679688 29.878906 4.28125 26.71875 4.578125 25.578125 L 6.320312 18.738281 L 4.78125 18.738281 Z M 4.960938 17.980469 "/>
<path fill-rule="nonzero" fill="rgb(0%, 0%, 0%)" fill-opacity="1" d="M 14.308594 28.148438 L 13.621094 31.148438 C 13.828125 31.390625 14.128906 31.464844 14.308594 31.464844 C 15.824219 31.464844 16.949219 28.871094 16.949219 27.191406 C 16.949219 26.246094 16.53125 25.945312 16.183594 25.945312 C 15.390625 25.945312 14.609375 26.859375 14.308594 28.148438 Z M 14.894531 26.171875 L 15.105469 25.976562 C 15.691406 25.421875 16.273438 25.105469 16.800781 25.105469 C 17.714844 25.105469 18.210938 25.914062 18.210938 27.429688 C 18.210938 29.363281 16.558594 31.898438 14.398438 31.898438 C 14.039062 31.898438 13.769531 31.839844 13.484375 31.613281 L 13.125 33.113281 C 13.078125 33.308594 13.050781 33.476562 13.050781 33.640625 C 13.050781 33.96875 13.214844 34.285156 13.964844 34.285156 L 14.203125 34.285156 L 14.160156 34.464844 L 10.648438 34.464844 L 10.695312 34.285156 C 11.625 34.238281 11.730469 33.789062 11.910156 33.101562 L 13.664062 26.140625 C 13.664062 25.855469 13.648438 25.644531 13.199219 25.644531 C 13.078125 25.644531 12.898438 25.675781 12.78125 25.703125 L 12.75 25.464844 L 15.121094 25.105469 L 14.851562 26.140625 Z M 14.894531 26.171875 "/>
<path fill-rule="nonzero" fill="rgb(0%, 0%, 0%)" fill-opacity="1" d="M 20.296875 28.554688 L 20.429688 28.554688 C 21.988281 28.554688 23.398438 27.519531 23.398438 26.199219 C 23.398438 25.824219 23.113281 25.554688 22.738281 25.554688 C 21.628906 25.554688 20.730469 27.28125 20.296875 28.554688 Z M 23.878906 30.039062 L 24.089844 30.234375 C 23.039062 31.523438 22.019531 31.886719 21.089844 31.886719 C 19.621094 31.886719 19.035156 30.625 19.035156 29.546875 C 19.035156 29.199219 19.050781 28.988281 19.125 28.644531 C 19.5 26.980469 21.148438 25.105469 23.054688 25.105469 C 23.683594 25.105469 24.585938 25.316406 24.585938 26.246094 C 24.585938 28.148438 22.078125 28.886719 20.296875 28.976562 L 20.296875 29.394531 C 20.296875 30.355469 21.074219 31 21.988281 31 C 22.621094 31 23.339844 30.730469 23.878906 30.039062 Z M 23.878906 30.039062 "/>
<path fill-rule="nonzero" fill="rgb(0%, 0%, 0%)" fill-opacity="1" d="M 30.613281 26.605469 C 30.613281 25.988281 30.433594 25.539062 29.863281 25.539062 C 28.84375 25.539062 27.945312 26.84375 27.433594 28.105469 C 27.164062 28.78125 27.015625 29.441406 27.015625 29.964844 C 27.015625 30.761719 27.480469 30.953125 27.886719 30.953125 C 28.921875 30.953125 29.96875 29.53125 30.390625 28.105469 C 30.511719 27.714844 30.613281 27.113281 30.613281 26.605469 Z M 32.191406 25.300781 L 30.824219 30.476562 C 31.035156 33.835938 30.808594 30.503906 30.808594 30.640625 C 30.808594 30.804688 30.898438 30.894531 31.019531 30.894531 C 31.171875 30.894531 31.394531 30.863281 31.980469 30.085938 L 32.160156 30.265625 C 31.695312 30.96875 30.886719 31.871094 30.164062 31.871094 C 29.671875 31.871094 29.535156 31.523438 29.535156 31.046875 C 29.535156 30.851562 29.625 30.535156 29.699219 30.296875 L 29.640625 30.296875 C 28.558594 31.675781 27.628906 31.871094 27.046875 31.871094 C 26.101562 31.871094 25.710938 31.046875 25.710938 30.085938 C 25.710938 28.105469 27.691406 25.105469 29.851562 25.105469 C 30.496094 25.105469 30.808594 25.464844 30.839844 25.796875 L 30.855469 25.796875 L 30.988281 25.300781 Z M 32.191406 25.300781 "/>
<path fill-rule="nonzero" fill="rgb(0%, 0%, 0%)" fill-opacity="1" d="M 40.546875 25.300781 L 40.484375 25.480469 C 39.480469 25.585938 39.058594 25.855469 38.488281 26.351562 L 36.898438 27.730469 L 37.859375 30.011719 C 38.085938 30.535156 38.265625 30.894531 38.65625 30.894531 C 39.105469 30.894531 39.433594 30.25 39.765625 29.800781 L 39.988281 29.964844 C 39.808594 30.28125 39.105469 31.886719 38.085938 31.886719 C 37.394531 31.886719 37.078125 31.089844 36.914062 30.699219 L 35.96875 28.496094 L 35.128906 29.230469 L 34.453125 31.71875 L 33.316406 31.71875 L 35.535156 22.886719 C 35.566406 22.796875 35.578125 22.691406 35.578125 22.585938 C 35.578125 22.421875 35.429688 22.253906 35.101562 22.253906 C 34.964844 22.253906 34.816406 22.253906 34.695312 22.285156 L 34.648438 22.074219 L 37.019531 21.699219 L 35.324219 28.539062 L 37.828125 26.304688 C 37.996094 26.15625 38.144531 25.960938 38.144531 25.765625 C 38.144531 25.585938 37.90625 25.480469 37.753906 25.480469 L 37.574219 25.480469 L 37.636719 25.300781 Z M 40.546875 25.300781 "/>
<path fill-rule="nonzero" fill="rgb(0%, 0%, 0%)" fill-opacity="1" d="M 59.886719 24.320312 L 48.105469 24.320312 L 48.105469 23 L 59.886719 23 Z M 59.886719 20.320312 L 48.105469 20.320312 L 48.105469 19 L 59.886719 19 Z M 59.886719 20.320312 "/>
<path fill-rule="nonzero" fill="rgb(0%, 0%, 0%)" fill-opacity="1" d="M 71.359375 17.980469 L 72.101562 17.980469 C 73.359375 17.980469 73.261719 16.441406 74.121094 15.160156 C 74.742188 14.21875 75.601562 13.359375 77.121094 13.359375 C 78.121094 13.359375 78.699219 13.839844 78.699219 14.539062 C 78.699219 15.101562 78.28125 15.339844 77.882812 15.339844 C 77.320312 15.339844 77.179688 15.121094 77.179688 14.839844 C 77.179688 14.558594 77.359375 14.261719 77.359375 14.101562 C 77.359375 14 77.300781 13.941406 77.0625 13.941406 C 76.0625 13.941406 75.28125 15.019531 74.859375 16.578125 L 74.480469 17.980469 L 76.082031 17.980469 L 75.839844 18.738281 L 74.320312 18.738281 L 72.742188 24.859375 C 72.601562 25.398438 72.441406 26.160156 72.140625 26.898438 C 71.480469 28.558594 70.402344 30.460938 68.640625 30.460938 C 67.679688 30.460938 67.199219 29.980469 67.199219 29.378906 C 67.199219 28.898438 67.480469 28.398438 68.0625 28.398438 C 68.601562 28.398438 68.800781 28.761719 68.800781 29.058594 C 68.800781 29.441406 68.480469 29.460938 68.480469 29.699219 C 68.480469 29.820312 68.601562 29.878906 68.78125 29.878906 C 70.082031 29.878906 70.679688 26.71875 70.980469 25.578125 L 72.722656 18.738281 L 71.179688 18.738281 Z M 71.359375 17.980469 "/>
<path fill-rule="nonzero" fill="rgb(0%, 0%, 0%)" fill-opacity="1" d="M 85.40625 25.300781 L 85.347656 25.480469 C 84.339844 25.585938 83.921875 25.855469 83.351562 26.351562 L 81.761719 27.730469 L 82.722656 30.011719 C 82.945312 30.535156 83.125 30.894531 83.515625 30.894531 C 83.964844 30.894531 84.296875 30.25 84.625 29.800781 L 84.851562 29.964844 C 84.671875 30.28125 83.964844 31.886719 82.945312 31.886719 C 82.257812 31.886719 81.941406 31.089844 81.777344 30.699219 L 80.832031 28.496094 L 79.992188 29.230469 L 79.316406 31.71875 L 78.175781 31.71875 L 80.394531 22.886719 C 80.425781 22.796875 80.441406 22.691406 80.441406 22.585938 C 80.441406 22.421875 80.292969 22.253906 79.960938 22.253906 C 79.824219 22.253906 79.675781 22.253906 79.554688 22.285156 L 79.511719 22.074219 L 81.882812 21.699219 L 80.1875 28.539062 L 82.691406 26.304688 C 82.855469 26.15625 83.007812 25.960938 83.007812 25.765625 C 83.007812 25.585938 82.765625 25.480469 82.617188 25.480469 L 82.4375 25.480469 L 82.496094 25.300781 Z M 85.40625 25.300781 "/>
<path fill-rule="nonzero" fill="rgb(0%, 0%, 0%)" fill-opacity="1" d="M 103.617188 22.320312 L 98.394531 22.320312 L 98.394531 27.539062 L 97.074219 27.539062 L 97.074219 22.320312 L 91.855469 22.320312 L 91.855469 21 L 97.074219 21 L 97.074219 15.78125 L 98.394531 15.78125 L 98.394531 21 L 103.617188 21 Z M 103.617188 22.320312 "/>
<path fill-rule="nonzero" fill="rgb(0%, 0%, 0%)" fill-opacity="1" d="M 116.058594 7.980469 C 116.058594 7.101562 115.761719 5.980469 114.980469 5.980469 C 113.261719 5.980469 111.398438 9.179688 111.398438 10.960938 C 111.398438 12.058594 111.941406 13 112.800781 13 C 114.601562 13 116.058594 9.878906 116.058594 7.980469 Z M 118.058594 1.199219 C 118.058594 1.621094 117.761719 2.121094 117.140625 2.121094 C 115.800781 2.121094 116.878906 0.820312 115.058594 0.820312 C 114.300781 0.820312 113.261719 1.398438 113.261719 2.160156 C 113.261719 4.058594 117.738281 5.199219 117.738281 8.019531 C 117.738281 8.679688 117.640625 9.601562 117.378906 10.261719 C 116.679688 11.980469 115.058594 13.578125 112.761719 13.578125 C 110.820312 13.578125 109.839844 12.28125 109.839844 10.679688 C 109.839844 8.300781 111.820312 5.660156 114.621094 5.378906 C 113.699219 4.460938 112.539062 3.839844 112.539062 2.761719 C 112.539062 0.839844 114.558594 0 115.878906 0 C 116.878906 0 118.058594 0.320312 118.058594 1.199219 Z M 118.058594 1.199219 "/>
<path fill-rule="nonzero" fill="rgb(0%, 0%, 0%)" fill-opacity="1" d="M 123.261719 4.621094 L 124 4.621094 C 125.261719 4.621094 125.160156 3.078125 126.019531 1.800781 C 126.640625 0.859375 127.5 0 129.019531 0 C 130.019531 0 130.601562 0.480469 130.601562 1.179688 C 130.601562 1.738281 130.179688 1.980469 129.78125 1.980469 C 129.21875 1.980469 129.078125 1.761719 129.078125 1.480469 C 129.078125 1.199219 129.261719 0.898438 129.261719 0.738281 C 129.261719 0.640625 129.199219 0.578125 128.960938 0.578125 C 127.960938 0.578125 127.179688 1.660156 126.761719 3.21875 L 126.378906 4.621094 L 127.980469 4.621094 L 127.738281 5.378906 L 126.21875 5.378906 L 124.640625 11.5 C 124.5 12.039062 124.339844 12.800781 124.039062 13.539062 C 123.378906 15.199219 122.300781 17.101562 120.539062 17.101562 C 119.578125 17.101562 119.101562 16.621094 119.101562 16.019531 C 119.101562 15.539062 119.378906 15.039062 119.960938 15.039062 C 120.5 15.039062 120.699219 15.398438 120.699219 15.699219 C 120.699219 16.078125 120.378906 16.101562 120.378906 16.339844 C 120.378906 16.460938 120.5 16.519531 120.679688 16.519531 C 121.980469 16.519531 122.578125 13.359375 122.878906 12.21875 L 124.621094 5.378906 L 123.078125 5.378906 Z M 123.261719 4.621094 "/>
<path fill="none" stroke-width="66" stroke-linecap="butt" stroke-linejoin="bevel" stroke="rgb(0%, 0%, 0%)" stroke-opacity="1" stroke-miterlimit="0" d="M 5451.95268 1085.937599 L 6469.921301 1085.937599 " transform="matrix(0.02, 0, 0, 0.02, -0.00000491101, -0.00000472665)"/>
<path fill-rule="nonzero" fill="rgb(0%, 0%, 0%)" fill-opacity="1" d="M 123.699219 37.980469 L 122.621094 40.71875 L 114.800781 40.71875 L 114.800781 40.480469 L 118.359375 36.699219 C 120.238281 34.71875 120.960938 33.199219 120.960938 31.5 C 120.960938 29.679688 119.878906 28.679688 118.179688 28.679688 C 116.738281 28.679688 116.039062 29.320312 115.238281 31.28125 L 114.820312 31.179688 C 115.238281 28.839844 116.519531 27.199219 118.980469 27.199219 C 121.238281 27.199219 122.679688 28.738281 122.679688 30.71875 C 122.679688 32.300781 121.898438 33.800781 120.121094 35.679688 L 116.820312 39.199219 L 121.5 39.199219 C 122.339844 39.199219 122.761719 38.980469 123.421875 37.859375 Z M 123.699219 37.980469 "/>
<path fill-rule="nonzero" fill="rgb(0%, 0%, 0%)" fill-opacity="1" d="M 137.90625 21.660156 C 137.90625 22.300781 137.363281 22.859375 136.722656 22.859375 C 136.066406 22.859375 135.503906 22.261719 135.503906 21.660156 C 135.503906 21.058594 136.066406 20.460938 136.722656 20.460938 C 137.363281 20.460938 137.90625 21.019531 137.90625 21.660156 Z M 137.90625 21.660156 "/>
<path fill-rule="nonzero" fill="rgb(0%, 0%, 0%)" fill-opacity="1" d="M 185.21875 9.34375 L 185.476562 9.566406 C 184.839844 10.644531 183.796875 11.644531 182.859375 11.644531 C 182.417969 11.644531 182.078125 11.445312 182.078125 10.664062 C 182.078125 10.523438 182.097656 10.324219 182.199219 9.925781 L 183.316406 5.503906 C 183.398438 5.226562 183.4375 5.046875 183.4375 4.703125 C 183.4375 4.304688 183.316406 3.945312 182.957031 3.945312 C 181.878906 3.945312 179.679688 7.566406 179.378906 8.785156 L 178.699219 11.484375 L 177.117188 11.484375 L 178.660156 5.503906 C 178.699219 5.324219 178.757812 5.003906 178.757812 4.703125 C 178.757812 4.304688 178.660156 3.945312 178.296875 3.945312 C 177.257812 3.945312 175.058594 7.566406 174.738281 8.785156 L 174.039062 11.484375 L 172.476562 11.484375 L 174.378906 4.003906 C 174.378906 3.644531 174.257812 3.386719 173.71875 3.386719 C 173.558594 3.386719 173.339844 3.40625 173.179688 3.425781 L 173.136719 3.144531 L 176.277344 2.664062 L 175.398438 6.046875 L 175.519531 6.046875 C 177.398438 3.183594 178.597656 2.664062 179.359375 2.664062 C 180.097656 2.664062 180.457031 3.40625 180.457031 4.285156 C 180.457031 4.625 180.398438 4.925781 180.277344 5.324219 L 180.078125 6.046875 L 180.179688 6.046875 C 180.757812 5.003906 181.796875 3.765625 182.777344 3.105469 C 183.21875 2.804688 183.597656 2.664062 184 2.664062 C 184.71875 2.664062 185.078125 3.183594 185.078125 4.085938 C 185.078125 4.445312 185.058594 4.824219 184.9375 5.304688 L 183.71875 9.925781 C 183.699219 9.984375 183.679688 10.105469 183.679688 10.164062 C 183.679688 10.324219 183.796875 10.40625 183.976562 10.40625 C 184.316406 10.40625 184.839844 10.085938 185.21875 9.34375 Z M 185.21875 9.34375 "/>
<path fill-rule="nonzero" fill="rgb(0%, 0%, 0%)" fill-opacity="1" d="M 193.984375 10.066406 L 193.921875 10.246094 C 192.917969 10.351562 192.5 10.621094 191.929688 11.113281 L 190.339844 12.496094 L 191.296875 14.773438 C 191.523438 15.300781 191.703125 15.660156 192.09375 15.660156 C 192.542969 15.660156 192.875 15.015625 193.203125 14.566406 L 193.429688 14.730469 C 193.25 15.046875 192.542969 16.648438 191.523438 16.648438 C 190.832031 16.648438 190.519531 15.855469 190.351562 15.464844 L 189.410156 13.261719 L 188.566406 13.996094 L 187.894531 16.484375 L 186.753906 16.484375 L 188.972656 7.648438 C 189.003906 7.558594 189.019531 7.453125 189.019531 7.351562 C 189.019531 7.183594 188.867188 7.019531 188.539062 7.019531 C 188.402344 7.019531 188.253906 7.019531 188.132812 7.050781 L 188.089844 6.839844 L 190.457031 6.464844 L 188.761719 13.304688 L 191.269531 11.070312 C 191.433594 10.921875 191.582031 10.726562 191.582031 10.53125 C 191.582031 10.351562 191.34375 10.246094 191.191406 10.246094 L 191.011719 10.246094 L 191.074219 10.066406 Z M 193.984375 10.066406 "/>
<path fill-rule="nonzero" fill="rgb(0%, 0%, 0%)" fill-opacity="1" d="M 203.523438 13.183594 L 195.167969 13.183594 L 195.167969 12.195312 L 203.523438 12.195312 Z M 203.523438 13.183594 "/>
<path fill-rule="nonzero" fill="rgb(0%, 0%, 0%)" fill-opacity="1" d="M 210.394531 16.484375 L 206.253906 16.484375 L 206.253906 16.261719 C 207.363281 16.199219 207.679688 15.886719 207.679688 15.058594 L 207.679688 8.324219 C 207.679688 7.816406 207.542969 7.589844 207.226562 7.589844 C 207.078125 7.589844 206.824219 7.664062 206.554688 7.769531 L 206.148438 7.921875 L 206.148438 7.710938 L 208.832031 6.34375 L 208.96875 6.390625 L 208.96875 15.34375 C 208.96875 15.988281 209.269531 16.261719 210.394531 16.261719 Z M 210.394531 16.484375 "/>
<path fill-rule="nonzero" fill="rgb(0%, 0%, 0%)" fill-opacity="1" d="M 229.667969 7.085938 L 218.527344 7.085938 L 218.527344 5.765625 L 229.667969 5.765625 Z M 229.667969 7.085938 "/>
<path fill-rule="nonzero" fill="rgb(0%, 0%, 0%)" fill-opacity="1" d="M 248.730469 9.34375 L 248.992188 9.566406 C 248.351562 10.644531 247.3125 11.644531 246.371094 11.644531 C 245.933594 11.644531 245.59375 11.445312 245.59375 10.664062 C 245.59375 10.523438 245.613281 10.324219 245.710938 9.925781 L 246.832031 5.503906 C 246.914062 5.226562 246.953125 5.046875 246.953125 4.703125 C 246.953125 4.304688 246.832031 3.945312 246.472656 3.945312 C 245.390625 3.945312 243.191406 7.566406 242.890625 8.785156 L 242.210938 11.484375 L 240.632812 11.484375 L 242.171875 5.503906 C 242.210938 5.324219 242.273438 5.003906 242.273438 4.703125 C 242.273438 4.304688 242.171875 3.945312 241.8125 3.945312 C 240.773438 3.945312 238.570312 7.566406 238.253906 8.785156 L 237.550781 11.484375 L 235.992188 11.484375 L 237.890625 4.003906 C 237.890625 3.644531 237.773438 3.386719 237.230469 3.386719 C 237.070312 3.386719 236.851562 3.40625 236.691406 3.425781 L 236.652344 3.144531 L 239.792969 2.664062 L 238.914062 6.046875 L 239.03125 6.046875 C 240.914062 3.183594 242.113281 2.664062 242.871094 2.664062 C 243.613281 2.664062 243.972656 3.40625 243.972656 4.285156 C 243.972656 4.625 243.914062 4.925781 243.792969 5.324219 L 243.59375 6.046875 L 243.691406 6.046875 C 244.273438 5.003906 245.3125 3.765625 246.292969 3.105469 C 246.730469 2.804688 247.113281 2.664062 247.511719 2.664062 C 248.230469 2.664062 248.59375 3.183594 248.59375 4.085938 C 248.59375 4.445312 248.570312 4.824219 248.453125 5.304688 L 247.230469 9.925781 C 247.210938 9.984375 247.191406 10.105469 247.191406 10.164062 C 247.191406 10.324219 247.3125 10.40625 247.492188 10.40625 C 247.832031 10.40625 248.351562 10.085938 248.730469 9.34375 Z M 248.730469 9.34375 "/>
<path fill-rule="nonzero" fill="rgb(0%, 0%, 0%)" fill-opacity="1" d="M 257.496094 10.066406 L 257.4375 10.246094 C 256.433594 10.351562 256.011719 10.621094 255.441406 11.113281 L 253.851562 12.496094 L 254.8125 14.773438 C 255.039062 15.300781 255.21875 15.660156 255.605469 15.660156 C 256.058594 15.660156 256.386719 15.015625 256.71875 14.566406 L 256.941406 14.730469 C 256.761719 15.046875 256.058594 16.648438 255.039062 16.648438 C 254.347656 16.648438 254.03125 15.855469 253.867188 15.464844 L 252.921875 13.261719 L 252.082031 13.996094 L 251.40625 16.484375 L 250.265625 16.484375 L 252.488281 7.648438 C 252.515625 7.558594 252.53125 7.453125 252.53125 7.351562 C 252.53125 7.183594 252.382812 7.019531 252.050781 7.019531 C 251.917969 7.019531 251.765625 7.019531 251.648438 7.050781 L 251.601562 6.839844 L 253.972656 6.464844 L 252.277344 13.304688 L 254.78125 11.070312 C 254.945312 10.921875 255.097656 10.726562 255.097656 10.53125 C 255.097656 10.351562 254.855469 10.246094 254.707031 10.246094 L 254.527344 10.246094 L 254.585938 10.066406 Z M 257.496094 10.066406 "/>
<path fill-rule="nonzero" fill="rgb(0%, 0%, 0%)" fill-opacity="1" d="M 267.261719 13.183594 L 263.347656 13.183594 L 263.347656 17.101562 L 262.355469 17.101562 L 262.355469 13.183594 L 258.441406 13.183594 L 258.441406 12.195312 L 262.355469 12.195312 L 262.355469 8.28125 L 263.347656 8.28125 L 263.347656 12.195312 L 267.261719 12.195312 Z M 267.261719 13.183594 "/>
<path fill-rule="nonzero" fill="rgb(0%, 0%, 0%)" fill-opacity="1" d="M 273.90625 16.484375 L 269.765625 16.484375 L 269.765625 16.261719 C 270.878906 16.199219 271.191406 15.886719 271.191406 15.058594 L 271.191406 8.324219 C 271.191406 7.816406 271.058594 7.589844 270.742188 7.589844 C 270.59375 7.589844 270.335938 7.664062 270.066406 7.769531 L 269.664062 7.921875 L 269.664062 7.710938 L 272.347656 6.34375 L 272.480469 6.390625 L 272.480469 15.34375 C 272.480469 15.988281 272.78125 16.261719 273.90625 16.261719 Z M 273.90625 16.484375 "/>
<path fill="none" stroke-width="66" stroke-linecap="butt" stroke-linejoin="bevel" stroke="rgb(0%, 0%, 0%)" stroke-opacity="1" stroke-miterlimit="0" d="M 7200.390698 1085.937552 L 15209.372626 1085.937552 " transform="matrix(0.02, 0, 0, 0.02, -0.0000454446, -0.0000076744)"/>
<path fill-rule="nonzero" fill="rgb(0%, 0%, 0%)" fill-opacity="1" d="M 157.347656 38.578125 L 157.609375 38.800781 C 156.96875 39.878906 155.929688 40.878906 154.988281 40.878906 C 154.550781 40.878906 154.207031 40.679688 154.207031 39.898438 C 154.207031 39.761719 154.230469 39.558594 154.328125 39.160156 L 155.449219 34.738281 C 155.527344 34.460938 155.570312 34.28125 155.570312 33.941406 C 155.570312 33.539062 155.449219 33.179688 155.089844 33.179688 C 154.007812 33.179688 151.808594 36.800781 151.507812 38.019531 L 150.828125 40.71875 L 149.25 40.71875 L 150.789062 34.738281 C 150.828125 34.558594 150.890625 34.238281 150.890625 33.941406 C 150.890625 33.539062 150.789062 33.179688 150.429688 33.179688 C 149.390625 33.179688 147.1875 36.800781 146.867188 38.019531 L 146.167969 40.71875 L 144.609375 40.71875 L 146.507812 33.238281 C 146.507812 32.878906 146.390625 32.621094 145.847656 32.621094 C 145.6875 32.621094 145.46875 32.640625 145.308594 32.660156 L 145.269531 32.378906 L 148.410156 31.898438 L 147.527344 35.28125 L 147.648438 35.28125 C 149.527344 32.421875 150.730469 31.898438 151.488281 31.898438 C 152.230469 31.898438 152.589844 32.640625 152.589844 33.519531 C 152.589844 33.859375 152.527344 34.160156 152.410156 34.558594 L 152.207031 35.28125 L 152.308594 35.28125 C 152.890625 34.238281 153.929688 33 154.910156 32.339844 C 155.347656 32.039062 155.730469 31.898438 156.128906 31.898438 C 156.847656 31.898438 157.207031 32.421875 157.207031 33.320312 C 157.207031 33.679688 157.1875 34.058594 157.070312 34.539062 L 155.847656 39.160156 C 155.828125 39.21875 155.808594 39.339844 155.808594 39.398438 C 155.808594 39.558594 155.929688 39.640625 156.109375 39.640625 C 156.449219 39.640625 156.96875 39.320312 157.347656 38.578125 Z M 157.347656 38.578125 "/>
<path fill-rule="nonzero" fill="rgb(0%, 0%, 0%)" fill-opacity="1" d="M 166.113281 39.300781 L 166.054688 39.480469 C 165.050781 39.585938 164.628906 39.855469 164.058594 40.351562 L 162.46875 41.730469 L 163.429688 44.011719 C 163.652344 44.535156 163.832031 44.894531 164.222656 44.894531 C 164.675781 44.894531 165.003906 44.25 165.332031 43.800781 L 165.558594 43.964844 C 165.378906 44.28125 164.675781 45.886719 163.652344 45.886719 C 162.964844 45.886719 162.648438 45.089844 162.484375 44.699219 L 161.539062 42.496094 L 160.699219 43.230469 L 160.023438 45.71875 L 158.882812 45.71875 L 161.105469 36.886719 C 161.132812 36.796875 161.148438 36.691406 161.148438 36.585938 C 161.148438 36.421875 161 36.253906 160.667969 36.253906 C 160.535156 36.253906 160.382812 36.253906 160.265625 36.285156 L 160.21875 36.074219 L 162.589844 35.699219 L 160.894531 42.539062 L 163.398438 40.304688 C 163.5625 40.15625 163.714844 39.960938 163.714844 39.765625 C 163.714844 39.585938 163.472656 39.480469 163.324219 39.480469 L 163.144531 39.480469 L 163.203125 39.300781 Z M 166.113281 39.300781 "/>
<path fill-rule="nonzero" fill="rgb(0%, 0%, 0%)" fill-opacity="1" d="M 175.652344 42.421875 L 167.300781 42.421875 L 167.300781 41.429688 L 175.652344 41.429688 Z M 175.652344 42.421875 "/>
<path fill-rule="nonzero" fill="rgb(0%, 0%, 0%)" fill-opacity="1" d="M 182.523438 45.71875 L 178.382812 45.71875 L 178.382812 45.496094 C 179.492188 45.433594 179.808594 45.121094 179.808594 44.296875 L 179.808594 37.558594 C 179.808594 37.050781 179.675781 36.824219 179.359375 36.824219 C 179.207031 36.824219 178.953125 36.898438 178.683594 37.003906 L 178.277344 37.15625 L 178.277344 36.945312 L 180.964844 35.578125 L 181.097656 35.625 L 181.097656 44.578125 C 181.097656 45.226562 181.398438 45.496094 182.523438 45.496094 Z M 182.523438 45.71875 "/>
<path fill-rule="nonzero" fill="rgb(0%, 0%, 0%)" fill-opacity="1" d="M 201.796875 36.320312 L 190.660156 36.320312 L 190.660156 35 L 201.796875 35 Z M 201.796875 36.320312 "/>
<path fill-rule="nonzero" fill="rgb(0%, 0%, 0%)" fill-opacity="1" d="M 217.003906 37.980469 L 215.921875 40.71875 L 208.101562 40.71875 L 208.101562 40.480469 L 211.664062 36.699219 C 213.542969 34.71875 214.261719 33.199219 214.261719 31.5 C 214.261719 29.679688 213.183594 28.679688 211.484375 28.679688 C 210.042969 28.679688 209.34375 29.320312 208.542969 31.28125 L 208.121094 31.179688 C 208.542969 28.839844 209.824219 27.199219 212.28125 27.199219 C 214.542969 27.199219 215.984375 28.738281 215.984375 30.71875 C 215.984375 32.300781 215.203125 33.800781 213.421875 35.679688 L 210.121094 39.199219 L 214.804688 39.199219 C 215.644531 39.199219 216.0625 38.980469 216.722656 37.859375 Z M 217.003906 37.980469 "/>
<path fill-rule="nonzero" fill="rgb(0%, 0%, 0%)" fill-opacity="1" d="M 230.863281 38.578125 L 231.121094 38.800781 C 230.484375 39.878906 229.441406 40.878906 228.503906 40.878906 C 228.0625 40.878906 227.722656 40.679688 227.722656 39.898438 C 227.722656 39.761719 227.742188 39.558594 227.84375 39.160156 L 228.960938 34.738281 C 229.042969 34.460938 229.082031 34.28125 229.082031 33.941406 C 229.082031 33.539062 228.960938 33.179688 228.601562 33.179688 C 227.523438 33.179688 225.324219 36.800781 225.023438 38.019531 L 224.34375 40.71875 L 222.761719 40.71875 L 224.304688 34.738281 C 224.34375 34.558594 224.402344 34.238281 224.402344 33.941406 C 224.402344 33.539062 224.304688 33.179688 223.941406 33.179688 C 222.902344 33.179688 220.703125 36.800781 220.382812 38.019531 L 219.683594 40.71875 L 218.121094 40.71875 L 220.023438 33.238281 C 220.023438 32.878906 219.902344 32.621094 219.363281 32.621094 C 219.203125 32.621094 218.984375 32.640625 218.824219 32.660156 L 218.78125 32.378906 L 221.921875 31.898438 L 221.042969 35.28125 L 221.164062 35.28125 C 223.042969 32.421875 224.242188 31.898438 225.003906 31.898438 C 225.742188 31.898438 226.101562 32.640625 226.101562 33.519531 C 226.101562 33.859375 226.042969 34.160156 225.921875 34.558594 L 225.722656 35.28125 L 225.824219 35.28125 C 226.402344 34.238281 227.441406 33 228.421875 32.339844 C 228.863281 32.039062 229.242188 31.898438 229.644531 31.898438 C 230.363281 31.898438 230.722656 32.421875 230.722656 33.320312 C 230.722656 33.679688 230.703125 34.058594 230.582031 34.539062 L 229.363281 39.160156 C 229.34375 39.21875 229.324219 39.339844 229.324219 39.398438 C 229.324219 39.558594 229.441406 39.640625 229.621094 39.640625 C 229.960938 39.640625 230.484375 39.320312 230.863281 38.578125 Z M 230.863281 38.578125 "/>
<path fill-rule="nonzero" fill="rgb(0%, 0%, 0%)" fill-opacity="1" d="M 239.628906 39.300781 L 239.566406 39.480469 C 238.5625 39.585938 238.144531 39.855469 237.574219 40.351562 L 235.984375 41.730469 L 236.941406 44.011719 C 237.167969 44.535156 237.347656 44.894531 237.738281 44.894531 C 238.1875 44.894531 238.519531 44.25 238.847656 43.800781 L 239.074219 43.964844 C 238.894531 44.28125 238.1875 45.886719 237.167969 45.886719 C 236.476562 45.886719 236.164062 45.089844 235.996094 44.699219 L 235.054688 42.496094 L 234.210938 43.230469 L 233.539062 45.71875 L 232.398438 45.71875 L 234.617188 36.886719 C 234.648438 36.796875 234.664062 36.691406 234.664062 36.585938 C 234.664062 36.421875 234.511719 36.253906 234.183594 36.253906 C 234.046875 36.253906 233.898438 36.253906 233.777344 36.285156 L 233.734375 36.074219 L 236.101562 35.699219 L 234.40625 42.539062 L 236.914062 40.304688 C 237.078125 40.15625 237.226562 39.960938 237.226562 39.765625 C 237.226562 39.585938 236.988281 39.480469 236.835938 39.480469 L 236.65625 39.480469 L 236.71875 39.300781 Z M 239.628906 39.300781 "/>
<path fill-rule="nonzero" fill="rgb(0%, 0%, 0%)" fill-opacity="1" d="M 257.835938 36.320312 L 252.617188 36.320312 L 252.617188 41.539062 L 251.296875 41.539062 L 251.296875 36.320312 L 246.078125 36.320312 L 246.078125 35 L 251.296875 35 L 251.296875 29.78125 L 252.617188 29.78125 L 252.617188 35 L 257.835938 35 Z M 257.835938 36.320312 "/>
<path fill-rule="nonzero" fill="rgb(0%, 0%, 0%)" fill-opacity="1" d="M 276.601562 38.578125 L 276.863281 38.800781 C 276.222656 39.878906 275.183594 40.878906 274.242188 40.878906 C 273.800781 40.878906 273.460938 40.679688 273.460938 39.898438 C 273.460938 39.761719 273.480469 39.558594 273.582031 39.160156 L 274.703125 34.738281 C 274.78125 34.460938 274.820312 34.28125 274.820312 33.941406 C 274.820312 33.539062 274.703125 33.179688 274.339844 33.179688 C 273.261719 33.179688 271.0625 36.800781 270.761719 38.019531 L 270.082031 40.71875 L 268.5 40.71875 L 270.042969 34.738281 C 270.082031 34.558594 270.140625 34.238281 270.140625 33.941406 C 270.140625 33.539062 270.042969 33.179688 269.683594 33.179688 C 268.640625 33.179688 266.441406 36.800781 266.121094 38.019531 L 265.421875 40.71875 L 263.863281 40.71875 L 265.761719 33.238281 C 265.761719 32.878906 265.640625 32.621094 265.101562 32.621094 C 264.941406 32.621094 264.722656 32.640625 264.5625 32.660156 L 264.523438 32.378906 L 267.660156 31.898438 L 266.78125 35.28125 L 266.902344 35.28125 C 268.78125 32.421875 269.980469 31.898438 270.742188 31.898438 C 271.480469 31.898438 271.839844 32.640625 271.839844 33.519531 C 271.839844 33.859375 271.78125 34.160156 271.660156 34.558594 L 271.460938 35.28125 L 271.5625 35.28125 C 272.140625 34.238281 273.183594 33 274.160156 32.339844 C 274.601562 32.039062 274.980469 31.898438 275.382812 31.898438 C 276.101562 31.898438 276.460938 32.421875 276.460938 33.320312 C 276.460938 33.679688 276.441406 34.058594 276.320312 34.539062 L 275.101562 39.160156 C 275.082031 39.21875 275.0625 39.339844 275.0625 39.398438 C 275.0625 39.558594 275.183594 39.640625 275.363281 39.640625 C 275.703125 39.640625 276.222656 39.320312 276.601562 38.578125 Z M 276.601562 38.578125 "/>
<path fill-rule="nonzero" fill="rgb(0%, 0%, 0%)" fill-opacity="1" d="M 285.367188 39.300781 L 285.308594 39.480469 C 284.300781 39.585938 283.882812 39.855469 283.3125 40.351562 L 281.722656 41.730469 L 282.683594 44.011719 C 282.90625 44.535156 283.085938 44.894531 283.476562 44.894531 C 283.925781 44.894531 284.257812 44.25 284.585938 43.800781 L 284.8125 43.964844 C 284.632812 44.28125 283.925781 45.886719 282.90625 45.886719 C 282.214844 45.886719 281.902344 45.089844 281.738281 44.699219 L 280.792969 42.496094 L 279.953125 43.230469 L 279.277344 45.71875 L 278.136719 45.71875 L 280.355469 36.886719 C 280.386719 36.796875 280.402344 36.691406 280.402344 36.585938 C 280.402344 36.421875 280.25 36.253906 279.921875 36.253906 C 279.785156 36.253906 279.636719 36.253906 279.515625 36.285156 L 279.472656 36.074219 L 281.839844 35.699219 L 280.148438 42.539062 L 282.652344 40.304688 C 282.816406 40.15625 282.964844 39.960938 282.964844 39.765625 C 282.964844 39.585938 282.726562 39.480469 282.578125 39.480469 L 282.398438 39.480469 L 282.457031 39.300781 Z M 285.367188 39.300781 "/>
<path fill-rule="nonzero" fill="rgb(0%, 0%, 0%)" fill-opacity="1" d="M 295.132812 42.421875 L 291.214844 42.421875 L 291.214844 46.335938 L 290.226562 46.335938 L 290.226562 42.421875 L 286.3125 42.421875 L 286.3125 41.429688 L 290.226562 41.429688 L 290.226562 37.515625 L 291.214844 37.515625 L 291.214844 41.429688 L 295.132812 41.429688 Z M 295.132812 42.421875 "/>
<path fill-rule="nonzero" fill="rgb(0%, 0%, 0%)" fill-opacity="1" d="M 301.777344 45.71875 L 297.636719 45.71875 L 297.636719 45.496094 C 298.746094 45.433594 299.0625 45.121094 299.0625 44.296875 L 299.0625 37.558594 C 299.0625 37.050781 298.925781 36.824219 298.613281 36.824219 C 298.460938 36.824219 298.207031 36.898438 297.9375 37.003906 L 297.53125 37.15625 L 297.53125 36.945312 L 300.214844 35.578125 L 300.351562 35.625 L 300.351562 44.578125 C 300.351562 45.226562 300.652344 45.496094 301.777344 45.496094 Z M 301.777344 45.71875 "/>
</svg>
