<?xml version="1.0" encoding="UTF-8"?>
<svg xmlns="http://www.w3.org/2000/svg" xmlns:xlink="http://www.w3.org/1999/xlink" width="98" viewBox="0 0 98 50" data-dpi="720" height="50">
<g transform="translate(0, 0.2109375)"><path fill-rule="nonzero" fill="rgb(0%, 0%, 0%)" fill-opacity="1" d="M 4.800781 35.199219 L 6.78125 27.359375 C 4.179688 27.359375 2.480469 30.039062 2.480469 32.421875 C 2.480469 33.679688 3.398438 35.199219 4.800781 35.199219 Z M 8.359375 27.359375 L 6.421875 35.199219 C 8.839844 35.199219 10.699219 32.179688 10.699219 29.980469 C 10.699219 28.398438 10.058594 27.339844 8.359375 27.359375 Z M 9.601562 22.21875 L 8.5 26.78125 C 10.558594 26.78125 12.398438 27.539062 12.398438 29.878906 C 12.398438 31.441406 11.859375 32.820312 10.800781 33.960938 C 9.601562 35.261719 8.019531 35.800781 6.28125 35.800781 L 5.320312 39.238281 L 3.699219 39.238281 L 4.621094 35.800781 C 2.460938 35.800781 0.800781 34.679688 0.800781 32.378906 C 0.800781 30.859375 1.421875 29.539062 2.480469 28.460938 C 3.601562 27.320312 4.980469 26.78125 6.578125 26.78125 L 6.898438 26.78125 C 7.28125 25.261719 7.640625 23.738281 7.960938 22.21875 Z M 9.601562 22.21875 "/>
<path fill-rule="nonzero" fill="rgb(0%, 0%, 0%)" fill-opacity="1" d="M 31.195312 33.179688 L 19.414062 33.179688 L 19.414062 31.859375 L 31.195312 31.859375 Z M 31.195312 29.179688 L 19.414062 29.179688 L 19.414062 27.859375 L 31.195312 27.859375 Z M 31.195312 29.179688 "/>
<path fill-rule="nonzero" fill="rgb(0%, 0%, 0%)" fill-opacity="1" d="M 45.589844 21.859375 L 40.070312 21.859375 L 40.070312 21.558594 C 41.550781 21.480469 41.972656 21.058594 41.972656 19.960938 L 41.972656 10.980469 C 41.972656 10.300781 41.792969 10 41.371094 10 C 41.171875 10 40.832031 10.101562 40.472656 10.238281 L 39.929688 10.441406 L 39.929688 10.160156 L 43.511719 8.339844 L 43.691406 8.398438 L 43.691406 20.339844 C 43.691406 21.199219 44.089844 21.558594 45.589844 21.558594 Z M 45.589844 21.859375 "/>
<path fill-rule="nonzero" fill="rgb(0%, 0%, 0%)" fill-opacity="1" d="M 64.875 17.460938 L 59.65625 17.460938 L 59.65625 22.679688 L 58.335938 22.679688 L 58.335938 17.460938 L 53.117188 17.460938 L 53.117188 16.140625 L 58.335938 16.140625 L 58.335938 10.921875 L 59.65625 10.921875 L 59.65625 16.140625 L 64.875 16.140625 Z M 64.875 17.460938 "/>
<path fill-rule="nonzero" fill="rgb(0%, 0%, 0%)" fill-opacity="1" d="M 89.558594 1.320312 L 80 25.960938 L 79.359375 25.960938 L 75.320312 15.359375 C 74.980469 14.460938 74.578125 14.179688 74.078125 14.179688 C 73.738281 14.179688 73.21875 14.398438 72.78125 14.800781 L 72.539062 14.398438 L 75.660156 11.921875 L 76.039062 11.921875 L 80.121094 22.640625 L 80.199219 22.640625 L 88.480469 1.320312 Z M 89.558594 1.320312 "/>
<path fill="none" stroke-width="66" stroke-linecap="butt" stroke-linejoin="bevel" stroke="rgb(0%, 0%, 0%)" stroke-opacity="1" stroke-miterlimit="0" d="M 4442.968849 99.02344 L 4942.96886 99.02344 " transform="matrix(0.02, 0, 0, 0.02, 0, 0)"/>
<path fill-rule="nonzero" fill="rgb(0%, 0%, 0%)" fill-opacity="1" d="M 97.621094 8.238281 L 96.898438 9.941406 C 96.839844 10.078125 96.679688 10.199219 96.359375 10.199219 L 92.480469 10.199219 L 91.679688 11.898438 C 94.539062 12.441406 95.539062 12.878906 96.679688 14.460938 C 97.199219 15.179688 97.378906 15.941406 97.378906 17 C 97.378906 18.921875 96.78125 20.160156 95.421875 21.160156 C 94.480469 21.839844 93.378906 22.140625 92.019531 22.140625 C 90.519531 22.140625 89.480469 21.660156 89.480469 20.898438 C 89.480469 20.398438 89.820312 20.140625 90.378906 20.140625 C 90.839844 20.140625 91.21875 20.238281 91.859375 20.761719 C 92.421875 21.21875 92.878906 21.398438 93.28125 21.398438 C 94.679688 21.398438 95.980469 19.738281 95.980469 18.019531 C 95.980469 16.738281 95.539062 15.738281 94.640625 15.019531 C 93.699219 14.261719 92.300781 13.621094 90.378906 13.621094 C 90.199219 13.621094 90.140625 13.578125 90.140625 13.460938 C 90.140625 13.421875 90.160156 13.359375 90.160156 13.359375 L 92.339844 8.621094 L 96.480469 8.621094 C 96.941406 8.621094 97.121094 8.519531 97.441406 8.101562 Z M 97.621094 8.238281 "/>
<path fill="none" stroke-width="66" stroke-linecap="butt" stroke-linejoin="bevel" stroke="rgb(0%, 0%, 0%)" stroke-opacity="1" stroke-miterlimit="0" d="M 1885.546917 1528.906284 L 4942.96886 1528.906284 " transform="matrix(0.02, 0, 0, 0.02, 0, 0)"/>
<path fill-rule="nonzero" fill="rgb(0%, 0%, 0%)" fill-opacity="1" d="M 72.765625 46.839844 L 71.6875 49.578125 L 63.867188 49.578125 L 63.867188 49.339844 L 67.425781 45.558594 C 69.304688 43.578125 70.027344 42.058594 70.027344 40.359375 C 70.027344 38.539062 68.945312 37.539062 67.246094 37.539062 C 65.804688 37.539062 65.105469 38.179688 64.304688 40.140625 L 63.886719 40.039062 C 64.304688 37.699219 65.585938 36.058594 68.046875 36.058594 C 70.304688 36.058594 71.746094 37.601562 71.746094 39.578125 C 71.746094 41.160156 70.964844 42.660156 69.1875 44.539062 L 65.886719 48.058594 L 70.566406 48.058594 C 71.40625 48.058594 71.824219 47.839844 72.484375 46.71875 Z M 72.765625 46.839844 "/>
</g></svg>