<?xml version="1.0" encoding="UTF-8"?>
<svg xmlns="http://www.w3.org/2000/svg" xmlns:xlink="http://www.w3.org/1999/xlink" width="208" viewBox="0 0 208 68" data-dpi="720" height="68">
<g transform="translate(0, 0.30859375)"><path fill-rule="nonzero" fill="rgb(0%, 0%, 0%)" fill-opacity="1" d="M 18.460938 23.078125 L 18.378906 23.398438 L 18.019531 23.398438 C 16.5 23.398438 16.078125 23.960938 15.898438 24.660156 L 13.441406 34.578125 C 13.398438 34.761719 13.359375 34.941406 13.359375 35.140625 C 13.359375 35.558594 13.738281 35.820312 14.921875 35.820312 L 15.300781 35.820312 L 15.21875 36.140625 L 8.640625 36.140625 L 8.71875 35.820312 L 9.078125 35.820312 C 10.519531 35.820312 11 35.320312 11.179688 34.578125 L 12.398438 29.738281 L 6.800781 29.738281 L 5.578125 34.578125 C 5.539062 34.699219 5.5 34.898438 5.5 35.058594 C 5.5 35.539062 5.859375 35.820312 7.039062 35.820312 L 7.441406 35.820312 L 7.359375 36.140625 L 0.761719 36.140625 L 0.839844 35.820312 L 1.199219 35.820312 C 2.699219 35.820312 3.160156 35.261719 3.320312 34.578125 L 5.78125 24.660156 C 5.820312 24.539062 5.859375 24.320312 5.859375 24.179688 C 5.859375 23.761719 5.539062 23.398438 4.300781 23.398438 L 3.898438 23.398438 L 3.980469 23.078125 L 10.578125 23.078125 L 10.5 23.398438 L 10.140625 23.398438 C 8.558594 23.398438 8.199219 23.960938 8.039062 24.660156 L 7 29 L 12.558594 29 L 13.621094 24.660156 C 13.660156 24.460938 13.699219 24.320312 13.699219 24.179688 C 13.699219 23.699219 13.320312 23.398438 12.179688 23.398438 L 11.78125 23.398438 L 11.859375 23.078125 Z M 18.460938 23.078125 "/>
<path fill-rule="nonzero" fill="rgb(0%, 0%, 0%)" fill-opacity="1" d="M 23.539062 39.359375 L 23.300781 39.679688 C 20.140625 37.878906 18.421875 34.5 18.421875 31.101562 C 18.421875 27.398438 20.160156 24.519531 23.359375 22.621094 L 23.539062 22.941406 C 20.761719 25.320312 20.140625 27.179688 20.140625 31.039062 C 20.140625 34.761719 20.738281 37.019531 23.539062 39.359375 Z M 23.539062 39.359375 "/>
<path fill-rule="nonzero" fill="rgb(0%, 0%, 0%)" fill-opacity="1" d="M 31.921875 27.320312 L 31.441406 30.238281 L 31.140625 30.238281 C 31.140625 28.960938 30.421875 27.839844 29.300781 27.839844 C 28.800781 27.839844 28.28125 28.179688 28.28125 29 C 28.28125 30.101562 30.960938 31.941406 30.960938 33.839844 C 30.960938 35.078125 30 36.339844 28.261719 36.339844 C 27.578125 36.339844 26.300781 35.941406 26.058594 35.941406 C 25.878906 35.941406 25.699219 36.019531 25.460938 36.359375 L 25.121094 36.359375 L 25.621094 33.238281 L 25.941406 33.238281 C 25.941406 34.5 26.761719 35.839844 28.019531 35.839844 C 29.199219 35.839844 29.480469 34.839844 29.480469 34.058594 C 29.480469 32.421875 26.878906 31.421875 26.878906 29.460938 C 26.878906 27.878906 28.058594 27.320312 29.160156 27.320312 C 30.019531 27.320312 30.421875 27.71875 31 27.71875 C 31.21875 27.71875 31.441406 27.519531 31.601562 27.320312 Z M 31.921875 27.320312 "/>
<path fill-rule="nonzero" fill="rgb(0%, 0%, 0%)" fill-opacity="1" d="M 33.5 22.941406 L 33.738281 22.621094 C 36.800781 24.460938 38.621094 27.800781 38.621094 31.199219 C 38.621094 34.898438 36.859375 37.738281 33.679688 39.679688 L 33.5 39.359375 C 36.339844 37.019531 36.898438 35.140625 36.898438 31.261719 C 36.898438 27.519531 36.398438 25.21875 33.5 22.941406 Z M 33.5 22.941406 "/>
<path fill-rule="nonzero" fill="rgb(0%, 0%, 0%)" fill-opacity="1" d="M 57.875 33.738281 L 46.09375 33.738281 L 46.09375 32.421875 L 57.875 32.421875 Z M 57.875 29.738281 L 46.09375 29.738281 L 46.09375 28.421875 L 57.875 28.421875 Z M 57.875 29.738281 "/>
<path fill-rule="nonzero" fill="rgb(0%, 0%, 0%)" fill-opacity="1" d="M 75.382812 8.699219 L 75.308594 8.789062 C 74.886719 9.300781 74.167969 10.261719 73.386719 10.261719 C 72.910156 10.261719 72.773438 9.914062 72.773438 9.570312 C 72.773438 9.375 72.832031 9.136719 72.878906 8.96875 L 73.734375 5.65625 C 73.761719 5.535156 73.839844 5.234375 73.839844 5.023438 C 73.839844 4.738281 73.75 4.453125 73.480469 4.453125 C 72.910156 4.453125 71.964844 5.746094 71.5 6.449219 C 70.957031 7.261719 70.570312 7.964844 70.480469 8.28125 L 69.984375 10.140625 L 68.828125 10.140625 L 70.253906 4.53125 C 70.253906 4.261719 70.207031 4.050781 69.804688 4.050781 C 69.652344 4.050781 69.488281 4.078125 69.382812 4.09375 L 69.355469 3.871094 L 71.738281 3.523438 L 70.972656 6.359375 L 71.019531 6.359375 C 71.09375 6.359375 71.828125 5.308594 71.859375 5.265625 C 72.457031 4.515625 73.359375 3.523438 74.257812 3.523438 C 74.917969 3.523438 75.097656 3.960938 75.097656 4.453125 C 75.097656 4.828125 75.007812 5.203125 74.933594 5.503906 L 74.046875 8.96875 C 74.035156 9 74.035156 9.046875 74.035156 9.121094 C 74.046875 9.210938 74.09375 9.328125 74.257812 9.328125 C 74.617188 9.328125 74.980469 8.789062 75.1875 8.535156 Z M 75.382812 8.699219 "/>
<path fill-rule="nonzero" fill="rgb(0%, 0%, 0%)" fill-opacity="1" d="M 80.136719 0 L 76.71875 10.351562 L 75.699219 10.351562 L 79.132812 0 Z M 80.136719 0 "/>
<path fill-rule="nonzero" fill="rgb(0%, 0%, 0%)" fill-opacity="1" d="M 87.113281 8.085938 L 86.304688 10.140625 L 80.4375 10.140625 L 80.4375 9.960938 L 83.109375 7.125 C 84.519531 5.640625 85.058594 4.5 85.058594 3.226562 C 85.058594 1.859375 84.25 1.109375 82.972656 1.109375 C 81.894531 1.109375 81.367188 1.589844 80.769531 3.058594 L 80.453125 2.984375 C 80.769531 1.230469 81.730469 0 83.574219 0 C 85.269531 0 86.347656 1.15625 86.347656 2.640625 C 86.347656 3.824219 85.761719 4.949219 84.429688 6.359375 L 81.953125 9 L 85.464844 9 C 86.09375 9 86.410156 8.835938 86.902344 7.996094 Z M 87.113281 8.085938 "/>
<path fill-rule="nonzero" fill="rgb(0%, 0%, 0%)" fill-opacity="1" d="M 90.492188 45.160156 L 80.191406 45.160156 L 80.191406 44.398438 L 81.070312 44.398438 C 83.03125 44.398438 83.550781 42.78125 83.550781 40.621094 L 83.550781 17.921875 L 72.351562 17.921875 L 72.351562 40.621094 C 72.351562 43.21875 72.992188 44.398438 74.832031 44.398438 L 75.691406 44.398438 L 75.691406 45.160156 L 65.390625 45.160156 L 65.390625 44.398438 L 65.929688 44.398438 C 67.8125 44.398438 68.691406 43.359375 68.691406 41.320312 L 68.691406 20.398438 C 68.691406 17.621094 67.609375 16.898438 65.871094 16.898438 L 65.390625 16.898438 L 65.390625 16.140625 L 90.492188 16.140625 L 90.492188 16.898438 C 87.992188 16.898438 87.210938 17.898438 87.210938 20.28125 L 87.210938 40.800781 C 87.210938 43.199219 88.132812 44.398438 89.992188 44.398438 L 90.492188 44.398438 Z M 90.492188 45.160156 "/>
<path fill-rule="nonzero" fill="rgb(0%, 0%, 0%)" fill-opacity="1" d="M 70.125 52.664062 L 68.746094 58.125 C 68.730469 58.214844 68.730469 58.273438 68.730469 58.335938 C 68.730469 58.441406 68.820312 58.484375 68.925781 58.484375 C 69.257812 58.484375 69.347656 58.304688 69.886719 57.71875 L 70.082031 57.871094 C 69.554688 58.546875 68.804688 59.445312 68.070312 59.445312 C 67.652344 59.445312 67.472656 59.160156 67.472656 58.753906 C 67.472656 58.574219 67.472656 58.289062 68.65625 53.683594 C 68.671875 53.65625 68.6875 53.550781 68.6875 53.503906 C 68.6875 53.25 68.566406 53.175781 68.222656 53.175781 C 68.085938 53.175781 67.90625 53.203125 67.800781 53.234375 L 67.757812 52.996094 Z M 70.574219 50.789062 C 70.574219 51.179688 70.246094 51.480469 69.855469 51.480469 C 69.421875 51.480469 69.136719 51.179688 69.136719 50.789062 C 69.136719 50.414062 69.421875 50.039062 69.855469 50.039062 C 70.246094 50.039062 70.574219 50.414062 70.574219 50.789062 Z M 70.574219 50.789062 "/>
<path fill-rule="nonzero" fill="rgb(0%, 0%, 0%)" fill-opacity="1" d="M 80.941406 57.480469 L 72.105469 57.480469 L 72.105469 56.488281 L 80.941406 56.488281 Z M 80.941406 54.480469 L 72.105469 54.480469 L 72.105469 53.488281 L 80.941406 53.488281 Z M 80.941406 54.480469 "/>
<path fill-rule="nonzero" fill="rgb(0%, 0%, 0%)" fill-opacity="1" d="M 87.570312 59.28125 L 83.429688 59.28125 L 83.429688 59.054688 C 84.542969 58.996094 84.855469 58.679688 84.855469 57.855469 L 84.855469 51.121094 C 84.855469 50.609375 84.722656 50.386719 84.40625 50.386719 C 84.257812 50.386719 84 50.460938 83.730469 50.566406 L 83.324219 50.714844 L 83.324219 50.503906 L 86.011719 49.140625 L 86.144531 49.183594 L 86.144531 58.140625 C 86.144531 58.785156 86.445312 59.054688 87.570312 59.054688 Z M 87.570312 59.28125 "/>
<path fill-rule="nonzero" fill="rgb(0%, 0%, 0%)" fill-opacity="1" d="M 154.304688 24.539062 L 148.785156 24.539062 L 148.785156 24.238281 C 150.265625 24.160156 150.683594 23.738281 150.683594 22.640625 L 150.683594 13.660156 C 150.683594 12.980469 150.503906 12.679688 150.085938 12.679688 C 149.886719 12.679688 149.546875 12.78125 149.183594 12.921875 L 148.644531 13.121094 L 148.644531 12.839844 L 152.226562 11.019531 L 152.40625 11.078125 L 152.40625 23.019531 C 152.40625 23.878906 152.804688 24.238281 154.304688 24.238281 Z M 154.304688 24.539062 "/>
<path fill="none" stroke-width="66" stroke-linecap="butt" stroke-linejoin="bevel" stroke="rgb(0%, 0%, 0%)" stroke-opacity="1" stroke-miterlimit="0" d="M 4741.210857 1557.031317 L 10401.366222 1557.031317 " transform="matrix(0.02, 0, 0, 0.02, -0.0000132318, -0.00000620663)"/>
<path fill-rule="nonzero" fill="rgb(0%, 0%, 0%)" fill-opacity="1" d="M 102.625 45.078125 L 102.144531 48 L 101.84375 48 C 101.84375 46.71875 101.125 45.601562 100.003906 45.601562 C 99.503906 45.601562 98.984375 45.941406 98.984375 46.761719 C 98.984375 47.859375 101.664062 49.699219 101.664062 51.601562 C 101.664062 52.839844 100.703125 54.101562 98.964844 54.101562 C 98.285156 54.101562 97.003906 53.699219 96.765625 53.699219 C 96.585938 53.699219 96.40625 53.78125 96.164062 54.121094 L 95.824219 54.121094 L 96.324219 51 L 96.644531 51 C 96.644531 52.261719 97.464844 53.601562 98.722656 53.601562 C 99.90625 53.601562 100.183594 52.601562 100.183594 51.820312 C 100.183594 50.179688 97.585938 49.179688 97.585938 47.21875 C 97.585938 45.640625 98.765625 45.078125 99.863281 45.078125 C 100.722656 45.078125 101.125 45.480469 101.703125 45.480469 C 101.925781 45.480469 102.144531 45.28125 102.304688 45.078125 Z M 102.625 45.078125 "/>
<path fill-rule="nonzero" fill="rgb(0%, 0%, 0%)" fill-opacity="1" d="M 110.734375 46.34375 L 109.925781 48.398438 L 104.058594 48.398438 L 104.058594 48.21875 L 106.730469 45.386719 C 108.140625 43.898438 108.679688 42.761719 108.679688 41.484375 C 108.679688 40.121094 107.871094 39.371094 106.59375 39.371094 C 105.515625 39.371094 104.988281 39.851562 104.390625 41.320312 L 104.074219 41.246094 C 104.390625 39.488281 105.347656 38.261719 107.195312 38.261719 C 108.890625 38.261719 109.96875 39.414062 109.96875 40.898438 C 109.96875 42.085938 109.382812 43.210938 108.050781 44.621094 L 105.574219 47.261719 L 109.085938 47.261719 C 109.714844 47.261719 110.03125 47.09375 110.523438 46.253906 Z M 110.734375 46.34375 "/>
<path fill-rule="nonzero" fill="rgb(0%, 0%, 0%)" fill-opacity="1" d="M 129.109375 49.5 L 123.890625 49.5 L 123.890625 54.71875 L 122.570312 54.71875 L 122.570312 49.5 L 117.347656 49.5 L 117.347656 48.179688 L 122.570312 48.179688 L 122.570312 42.960938 L 123.890625 42.960938 L 123.890625 48.179688 L 129.109375 48.179688 Z M 129.109375 49.5 "/>
<path fill-rule="nonzero" fill="rgb(0%, 0%, 0%)" fill-opacity="1" d="M 141.507812 36.628906 L 141.597656 36.386719 C 143.324219 36.386719 144.449219 37.03125 144.449219 38.800781 C 144.449219 41.351562 142.332031 43.167969 140.773438 43.167969 C 139.886719 43.167969 139.273438 42.597656 139.214844 41.832031 C 138.597656 42.582031 137.894531 43.167969 136.902344 43.167969 C 135.375 43.167969 134.832031 41.785156 134.832031 40.753906 C 134.832031 38.320312 136.648438 36.386719 139.304688 36.386719 L 139.542969 36.386719 L 139.589844 36.628906 C 137.726562 36.628906 136.0625 38.800781 136.0625 41.320312 C 136.0625 42.011719 136.410156 42.71875 137.082031 42.71875 C 137.953125 42.71875 138.792969 41.832031 138.988281 41.140625 C 138.957031 40.917969 138.941406 40.585938 138.941406 40.378906 C 138.941406 39.28125 139.316406 37.585938 140.398438 37.585938 C 140.683594 37.585938 140.894531 37.917969 140.894531 38.292969 C 140.894531 39.253906 140.261719 40.4375 139.722656 41.21875 C 139.722656 41.96875 139.976562 42.71875 140.773438 42.71875 C 142.09375 42.71875 143.25 39.910156 143.25 38.621094 C 143.25 37.183594 142.664062 36.761719 141.507812 36.628906 Z M 141.507812 36.628906 "/>
<path fill-rule="nonzero" fill="rgb(0%, 0%, 0%)" fill-opacity="1" d="M 149.308594 42.851562 C 149.308594 40.355469 148.78125 38.953125 147.722656 38.953125 C 146.726562 38.953125 146.1875 40.367188 146.1875 42.804688 C 146.1875 45.238281 146.714844 46.609375 147.75 46.609375 C 148.769531 46.609375 149.308594 45.226562 149.308594 42.851562 Z M 150.460938 42.792969 C 150.460938 44.855469 149.703125 46.921875 147.75 46.921875 C 145.695312 46.921875 145.035156 44.6875 145.035156 42.71875 C 145.035156 40.597656 145.863281 38.640625 147.796875 38.640625 C 149.367188 38.640625 150.460938 40.332031 150.460938 42.792969 Z M 150.460938 42.792969 "/>
<path fill="none" stroke-width="66" stroke-linecap="butt" stroke-linejoin="bevel" stroke="rgb(0%, 0%, 0%)" stroke-opacity="1" stroke-miterlimit="0" d="M 6726.757384 2444.921792 L 7568.163438 2444.921792 " transform="matrix(0.02, 0, 0, 0.02, -0.0000226301, -0.00000967373)"/>
<path fill-rule="nonzero" fill="rgb(0%, 0%, 0%)" fill-opacity="1" d="M 144.097656 56.496094 C 144.097656 54.515625 143.121094 54.050781 142.148438 54.050781 C 138.816406 54.050781 137.46875 58.789062 137.46875 60.859375 C 137.46875 62.316406 138.230469 63.09375 139.433594 63.09375 C 142.6875 63.09375 144.097656 58.851562 144.097656 56.496094 Z M 136.164062 65.226562 L 138.621094 63.621094 C 136.914062 63.363281 135.667969 62.148438 135.667969 60.171875 C 135.667969 57.109375 138.488281 53.496094 142.296875 53.496094 C 144.488281 53.496094 145.882812 54.875 145.882812 57.199219 C 145.882812 60.261719 143.0625 63.648438 139.386719 63.648438 L 138.425781 64.296875 L 138.488281 64.371094 C 138.726562 64.324219 138.9375 64.308594 139.132812 64.308594 C 140.105469 64.308594 141.503906 64.820312 142.808594 64.820312 C 143.390625 64.820312 144.097656 64.625 144.847656 63.828125 L 145.042969 63.996094 C 144.15625 65.089844 143.105469 65.78125 141.335938 65.78125 C 140.542969 65.78125 139.761719 65.660156 139.207031 65.539062 C 138.457031 65.375 137.648438 65.136719 137.199219 65.136719 C 137.078125 65.136719 136.730469 65.210938 136.328125 65.40625 Z M 136.164062 65.226562 "/>
<path fill-rule="nonzero" fill="rgb(0%, 0%, 0%)" fill-opacity="1" d="M 149.355469 61.957031 L 148.253906 66.324219 C 148.242188 66.398438 148.242188 66.445312 148.242188 66.492188 C 148.242188 66.578125 148.3125 66.613281 148.394531 66.613281 C 148.660156 66.613281 148.730469 66.46875 149.164062 66.003906 L 149.320312 66.121094 C 148.898438 66.660156 148.300781 67.382812 147.710938 67.382812 C 147.375 67.382812 147.230469 67.152344 147.230469 66.828125 C 147.230469 66.6875 147.230469 66.457031 148.179688 62.773438 C 148.191406 62.75 148.203125 62.664062 148.203125 62.628906 C 148.203125 62.425781 148.109375 62.367188 147.832031 62.367188 C 147.722656 62.367188 147.582031 62.390625 147.496094 62.414062 L 147.460938 62.222656 Z M 149.714844 60.457031 C 149.714844 60.769531 149.453125 61.011719 149.140625 61.011719 C 148.792969 61.011719 148.5625 60.769531 148.5625 60.457031 C 148.5625 60.15625 148.792969 59.859375 149.140625 59.859375 C 149.453125 59.859375 149.714844 60.15625 149.714844 60.457031 Z M 149.714844 60.457031 "/>
<path fill-rule="nonzero" fill="rgb(0%, 0%, 0%)" fill-opacity="1" d="M 162.496094 45.078125 L 162.015625 48 L 161.714844 48 C 161.714844 46.71875 160.996094 45.601562 159.875 45.601562 C 159.375 45.601562 158.855469 45.941406 158.855469 46.761719 C 158.855469 47.859375 161.535156 49.699219 161.535156 51.601562 C 161.535156 52.839844 160.578125 54.101562 158.835938 54.101562 C 158.15625 54.101562 156.875 53.699219 156.636719 53.699219 C 156.457031 53.699219 156.277344 53.78125 156.035156 54.121094 L 155.695312 54.121094 L 156.195312 51 L 156.515625 51 C 156.515625 52.261719 157.335938 53.601562 158.597656 53.601562 C 159.777344 53.601562 160.058594 52.601562 160.058594 51.820312 C 160.058594 50.179688 157.457031 49.179688 157.457031 47.21875 C 157.457031 45.640625 158.636719 45.078125 159.738281 45.078125 C 160.597656 45.078125 160.996094 45.480469 161.578125 45.480469 C 161.796875 45.480469 162.015625 45.28125 162.175781 45.078125 Z M 162.496094 45.078125 "/>
<path fill-rule="nonzero" fill="rgb(0%, 0%, 0%)" fill-opacity="1" d="M 180.660156 49.5 L 175.441406 49.5 L 175.441406 54.71875 L 174.121094 54.71875 L 174.121094 49.5 L 168.902344 49.5 L 168.902344 48.179688 L 174.121094 48.179688 L 174.121094 42.960938 L 175.441406 42.960938 L 175.441406 48.179688 L 180.660156 48.179688 Z M 180.660156 49.5 "/>
<path fill-rule="nonzero" fill="rgb(0%, 0%, 0%)" fill-opacity="1" d="M 195.386719 45.398438 L 195.503906 45.078125 C 197.804688 45.078125 199.304688 45.941406 199.304688 48.300781 C 199.304688 51.699219 196.484375 54.121094 194.40625 54.121094 C 193.226562 54.121094 192.40625 53.359375 192.324219 52.339844 C 191.503906 53.339844 190.566406 54.121094 189.246094 54.121094 C 187.207031 54.121094 186.484375 52.28125 186.484375 50.898438 C 186.484375 47.660156 188.90625 45.078125 192.445312 45.078125 L 192.765625 45.078125 L 192.824219 45.398438 C 190.34375 45.398438 188.125 48.300781 188.125 51.660156 C 188.125 52.578125 188.585938 53.519531 189.484375 53.519531 C 190.644531 53.519531 191.765625 52.339844 192.027344 51.421875 C 191.984375 51.121094 191.964844 50.679688 191.964844 50.398438 C 191.964844 48.941406 192.464844 46.679688 193.90625 46.679688 C 194.285156 46.679688 194.566406 47.121094 194.566406 47.621094 C 194.566406 48.898438 193.726562 50.480469 193.003906 51.519531 C 193.003906 52.519531 193.34375 53.519531 194.40625 53.519531 C 196.164062 53.519531 197.707031 49.78125 197.707031 48.058594 C 197.707031 46.140625 196.925781 45.578125 195.386719 45.398438 Z M 195.386719 45.398438 "/>
<path fill-rule="nonzero" fill="rgb(0%, 0%, 0%)" fill-opacity="1" d="M 206.816406 43.84375 L 206.003906 45.898438 L 200.140625 45.898438 L 200.140625 45.71875 L 202.8125 42.886719 C 204.21875 41.398438 204.761719 40.261719 204.761719 38.984375 C 204.761719 37.621094 203.949219 36.871094 202.675781 36.871094 C 201.59375 36.871094 201.070312 37.351562 200.46875 38.820312 L 200.15625 38.746094 C 200.46875 36.988281 201.429688 35.761719 203.277344 35.761719 C 204.96875 35.761719 206.050781 36.914062 206.050781 38.398438 C 206.050781 39.585938 205.464844 40.710938 204.128906 42.121094 L 201.65625 44.761719 L 205.164062 44.761719 C 205.796875 44.761719 206.109375 44.59375 206.605469 43.753906 Z M 206.816406 43.84375 "/>
<path fill-rule="nonzero" fill="rgb(0%, 0%, 0%)" fill-opacity="1" d="M 205.40625 56.445312 C 205.40625 53.324219 204.746094 51.570312 203.425781 51.570312 C 202.179688 51.570312 201.503906 53.339844 201.503906 56.386719 C 201.503906 59.429688 202.164062 61.140625 203.457031 61.140625 C 204.730469 61.140625 205.40625 59.414062 205.40625 56.445312 Z M 206.84375 56.371094 C 206.84375 58.949219 205.902344 61.53125 203.457031 61.53125 C 200.890625 61.53125 200.066406 58.738281 200.066406 56.28125 C 200.066406 53.625 201.101562 51.179688 203.515625 51.179688 C 205.480469 51.179688 206.84375 53.296875 206.84375 56.371094 Z M 206.84375 56.371094 "/>
</g></svg>