<?xml version="1.0" encoding="UTF-8"?>
<svg xmlns="http://www.w3.org/2000/svg" xmlns:xlink="http://www.w3.org/1999/xlink" width="155" height="54" viewBox="0 0 155 54" data-dpi="720">
<path fill-rule="nonzero" fill="rgb(0%, 0%, 0%)" fill-opacity="1" d="M 5.601562 48.089844 L 13.878906 14.488281 C 14.839844 10.589844 16.398438 7.890625 19.238281 7.890625 C 20.28125 7.890625 20.699219 8.390625 20.699219 8.988281 C 20.699219 9.828125 20.058594 10.488281 19.28125 10.488281 C 18.898438 10.488281 18.519531 10.328125 18.519531 9.890625 C 18.519531 9.351562 18.941406 9.148438 18.980469 8.871094 C 18.980469 8.730469 18.859375 8.648438 18.679688 8.648438 C 17.378906 8.648438 16.800781 10.46875 16.160156 13.070312 L 7.78125 47.148438 C 6.878906 50.769531 5.339844 53.269531 2.558594 53.269531 C 1.539062 53.269531 1.121094 52.769531 1.121094 52.191406 C 1.121094 51.328125 1.738281 50.671875 2.519531 50.671875 C 2.898438 50.671875 3.28125 50.828125 3.28125 51.269531 C 3.28125 51.75 2.859375 52.03125 2.820312 52.269531 C 2.820312 52.429688 2.941406 52.511719 3.121094 52.511719 C 4.421875 52.511719 4.941406 50.75 5.601562 48.089844 Z M 5.601562 48.089844 "/>
<path fill-rule="nonzero" fill="rgb(0%, 0%, 0%)" fill-opacity="1" d="M 29.195312 12.675781 L 29.195312 12.628906 C 28.113281 10.84375 27.171875 9.824219 26.148438 9.824219 C 25.308594 9.824219 24.648438 10.648438 24.648438 11.609375 C 24.648438 12.886719 25.414062 14.128906 26.734375 14.128906 C 28.070312 14.128906 28.789062 13.214844 29.195312 12.675781 Z M 30.183594 11.714844 L 30.183594 11.761719 C 31.265625 13.546875 32.089844 14.503906 33.109375 14.503906 C 33.949219 14.503906 34.609375 13.679688 34.609375 12.71875 C 34.609375 11.355469 33.84375 10.199219 32.523438 10.199219 C 31.191406 10.199219 30.621094 11.085938 30.183594 11.714844 Z M 35.511719 12.058594 C 35.511719 13.515625 34.429688 15.390625 32.539062 15.390625 C 31.308594 15.390625 30.453125 14.59375 29.523438 13.214844 C 28.851562 14.578125 27.828125 15.390625 26.390625 15.390625 C 25.101562 15.390625 23.75 14.460938 23.75 12.390625 C 23.75 9.628906 25.746094 8.941406 26.613281 8.941406 C 27.710938 8.941406 28.460938 9.226562 29.886719 11.144531 C 30.574219 9.898438 31.265625 8.941406 32.78125 8.941406 C 34.128906 8.941406 35.511719 10.050781 35.511719 12.058594 Z M 35.511719 12.058594 "/>
<path fill-rule="nonzero" fill="rgb(0%, 0%, 0%)" fill-opacity="1" d="M 17.398438 49.394531 C 17.398438 46.273438 16.738281 44.519531 15.421875 44.519531 C 14.175781 44.519531 13.5 46.289062 13.5 49.335938 C 13.5 52.378906 14.160156 54.089844 15.449219 54.089844 C 16.726562 54.089844 17.398438 52.363281 17.398438 49.394531 Z M 18.839844 49.320312 C 18.839844 51.898438 17.894531 54.480469 15.449219 54.480469 C 12.886719 54.480469 12.058594 51.691406 12.058594 49.230469 C 12.058594 46.574219 13.09375 44.128906 15.511719 44.128906 C 17.476562 44.128906 18.839844 46.246094 18.839844 49.320312 Z M 18.839844 49.320312 "/>
<path fill-rule="nonzero" fill="rgb(0%, 0%, 0%)" fill-opacity="1" d="M 43.222656 31.359375 L 43.402344 31.359375 C 45.484375 31.359375 47.363281 29.980469 47.363281 28.21875 C 47.363281 27.71875 46.984375 27.359375 46.484375 27.359375 C 45.003906 27.359375 43.804688 29.660156 43.222656 31.359375 Z M 48.003906 33.339844 L 48.285156 33.601562 C 46.882812 35.320312 45.523438 35.800781 44.285156 35.800781 C 42.324219 35.800781 41.542969 34.121094 41.542969 32.679688 C 41.542969 32.21875 41.5625 31.941406 41.664062 31.480469 C 42.164062 29.261719 44.363281 26.761719 46.902344 26.761719 C 47.742188 26.761719 48.941406 27.039062 48.941406 28.28125 C 48.941406 30.820312 45.601562 31.800781 43.222656 31.921875 L 43.222656 32.480469 C 43.222656 33.761719 44.261719 34.621094 45.484375 34.621094 C 46.324219 34.621094 47.285156 34.261719 48.003906 33.339844 Z M 48.003906 33.339844 "/>
<path fill-rule="nonzero" fill="rgb(0%, 0%, 0%)" fill-opacity="1" d="M 58.957031 24.28125 L 50.601562 24.28125 L 50.601562 23.289062 L 58.957031 23.289062 Z M 58.957031 24.28125 "/>
<path fill-rule="nonzero" fill="rgb(0%, 0%, 0%)" fill-opacity="1" d="M 64.492188 23.261719 L 65.167969 22.226562 C 65.558594 21.625 66.082031 20.964844 66.832031 20.964844 C 67.3125 20.964844 67.566406 21.144531 67.566406 21.460938 C 67.566406 21.746094 67.375 22.089844 66.984375 22.089844 C 66.652344 22.089844 66.578125 21.953125 66.324219 21.953125 C 65.875 21.953125 65.707031 22.195312 65.5 22.523438 L 64.671875 23.800781 C 65.125 24.730469 65.46875 26.753906 66.144531 26.753906 C 66.382812 26.753906 66.742188 26.546875 67.058594 25.898438 L 67.269531 26.050781 C 67.089844 26.273438 66.414062 27.714844 65.542969 27.714844 C 64.929688 27.714844 64.644531 27.101562 64.449219 26.558594 L 63.847656 24.863281 L 62.902344 26.335938 C 62.421875 27.070312 61.988281 27.714844 61.148438 27.714844 C 60.609375 27.714844 60.367188 27.339844 60.367188 27.011719 C 60.367188 26.769531 60.5625 26.453125 60.9375 26.453125 C 61.328125 26.453125 61.269531 26.753906 61.644531 26.753906 C 61.824219 26.753906 62.214844 26.605469 62.691406 25.871094 L 63.667969 24.355469 L 63.171875 22.976562 C 62.917969 22.253906 62.527344 21.640625 61.703125 21.640625 C 61.507812 21.640625 61.285156 21.671875 61.132812 21.730469 L 61.089844 21.460938 L 63.066406 20.964844 C 63.726562 21.324219 64.011719 21.941406 64.191406 22.433594 Z M 64.492188 23.261719 "/>
<path fill-rule="nonzero" fill="rgb(0%, 0%, 0%)" fill-opacity="1" d="M 73.855469 19.9375 L 73.207031 21.578125 L 68.515625 21.578125 L 68.515625 21.4375 L 70.652344 19.167969 C 71.78125 17.980469 72.210938 17.066406 72.210938 16.046875 C 72.210938 14.957031 71.5625 14.355469 70.542969 14.355469 C 69.679688 14.355469 69.261719 14.738281 68.78125 15.914062 L 68.527344 15.855469 C 68.78125 14.453125 69.546875 13.46875 71.023438 13.46875 C 72.378906 13.46875 73.246094 14.390625 73.246094 15.578125 C 73.246094 16.527344 72.777344 17.429688 71.707031 18.554688 L 69.726562 20.667969 L 72.535156 20.667969 C 73.039062 20.667969 73.292969 20.535156 73.6875 19.863281 Z M 73.855469 19.9375 "/>
<path fill-rule="nonzero" fill="rgb(0%, 0%, 0%)" fill-opacity="1" d="M 86.195312 28.78125 C 86.195312 27.839844 85.898438 27.359375 85.078125 27.359375 C 83.097656 27.359375 81.476562 31.359375 81.476562 33.28125 C 81.476562 34.261719 82.035156 34.601562 82.597656 34.601562 C 83.996094 34.601562 85.316406 32.71875 85.875 30.878906 C 86.097656 30.179688 86.195312 29.398438 86.195312 28.78125 Z M 89.476562 22.21875 L 86.496094 34.179688 C 86.476562 34.238281 86.457031 34.359375 86.457031 34.421875 C 86.457031 34.539062 86.558594 34.601562 86.757812 34.601562 C 87.15625 34.601562 87.714844 33.898438 87.996094 33.480469 L 88.214844 33.71875 C 87.617188 34.621094 86.558594 35.820312 85.617188 35.820312 C 84.976562 35.820312 84.816406 35.359375 84.816406 35 C 84.816406 34.601562 84.855469 34.320312 85.015625 33.71875 L 84.917969 33.71875 C 83.4375 35.578125 82.238281 35.820312 81.496094 35.820312 C 80.035156 35.820312 79.738281 34.339844 79.738281 33.28125 C 79.738281 31.21875 81.796875 26.761719 84.875 26.761719 C 86.015625 26.761719 86.476562 27.28125 86.496094 27.761719 L 86.535156 27.761719 L 87.597656 23.578125 C 87.617188 23.5 87.636719 23.421875 87.636719 23.339844 C 87.636719 23.078125 87.496094 22.941406 86.976562 22.941406 C 86.796875 22.941406 86.578125 22.980469 86.4375 23 L 86.355469 22.699219 Z M 89.476562 22.21875 "/>
<path fill-rule="nonzero" fill="rgb(0%, 0%, 0%)" fill-opacity="1" d="M 95.675781 29.820312 L 96.578125 28.441406 C 97.097656 27.640625 97.796875 26.761719 98.796875 26.761719 C 99.4375 26.761719 99.777344 27 99.777344 27.421875 C 99.777344 27.800781 99.515625 28.261719 98.996094 28.261719 C 98.558594 28.261719 98.457031 28.078125 98.117188 28.078125 C 97.515625 28.078125 97.296875 28.398438 97.015625 28.839844 L 95.917969 30.539062 C 96.515625 31.78125 96.976562 34.480469 97.875 34.480469 C 98.195312 34.480469 98.675781 34.199219 99.097656 33.339844 L 99.375 33.539062 C 99.136719 33.839844 98.238281 35.761719 97.078125 35.761719 C 96.257812 35.761719 95.875 34.941406 95.617188 34.21875 L 94.816406 31.960938 L 93.558594 33.921875 C 92.917969 34.898438 92.335938 35.761719 91.214844 35.761719 C 90.496094 35.761719 90.175781 35.261719 90.175781 34.820312 C 90.175781 34.5 90.4375 34.078125 90.9375 34.078125 C 91.457031 34.078125 91.375 34.480469 91.875 34.480469 C 92.117188 34.480469 92.636719 34.28125 93.277344 33.300781 L 94.578125 31.28125 L 93.917969 29.441406 C 93.578125 28.480469 93.058594 27.660156 91.957031 27.660156 C 91.695312 27.660156 91.398438 27.699219 91.195312 27.78125 L 91.136719 27.421875 L 93.777344 26.761719 C 94.65625 27.238281 95.035156 28.058594 95.277344 28.71875 Z M 95.675781 29.820312 "/>
<path fill-rule="nonzero" fill="rgb(0%, 0%, 0%)" fill-opacity="1" d="M 118.871094 33.179688 L 107.09375 33.179688 L 107.09375 31.859375 L 118.871094 31.859375 Z M 118.871094 29.179688 L 107.09375 29.179688 L 107.09375 27.859375 L 118.871094 27.859375 Z M 118.871094 29.179688 "/>
<path fill-rule="nonzero" fill="rgb(0%, 0%, 0%)" fill-opacity="1" d="M 144.648438 1.320312 L 135.085938 25.960938 L 134.449219 25.960938 L 130.40625 15.359375 C 130.066406 14.460938 129.667969 14.179688 129.167969 14.179688 C 128.828125 14.179688 128.308594 14.398438 127.867188 14.800781 L 127.628906 14.398438 L 130.746094 11.921875 L 131.128906 11.921875 L 135.207031 22.640625 L 135.289062 22.640625 L 143.566406 1.320312 Z M 144.648438 1.320312 "/>
<path fill="none" stroke-width="66" stroke-linecap="butt" stroke-linejoin="bevel" stroke="rgb(0%, 0%, 0%)" stroke-opacity="1" stroke-miterlimit="0" d="M 7197.460395 99.023629 L 7755.468144 99.023629 " transform="matrix(0.02, 0, 0, 0.02, -0.0000053739, -0.00000406293)"/>
<path fill-rule="nonzero" fill="rgb(0%, 0%, 0%)" fill-opacity="1" d="M 155.308594 10.710938 L 154.847656 12.171875 L 152.609375 12.171875 C 152.328125 13.03125 151.269531 15.589844 151.269531 16.929688 C 151.269531 17.390625 151.585938 17.890625 152.027344 17.890625 C 152.449219 17.890625 153.007812 17.648438 153.488281 16.570312 L 153.808594 16.570312 C 153.386719 18.011719 152.328125 19.410156 150.929688 19.410156 C 150.128906 19.410156 149.789062 18.691406 149.789062 17.910156 C 149.789062 17.449219 149.847656 17.050781 149.96875 16.671875 C 150.429688 15.25 151.027344 13.851562 151.527344 12.171875 L 149.648438 12.171875 C 148.726562 14.609375 148.109375 18.050781 146.429688 19.308594 C 146.207031 19.488281 145.90625 19.53125 145.667969 19.53125 C 145.148438 19.53125 144.648438 19.128906 144.648438 18.648438 C 144.648438 18.351562 144.746094 17.828125 145.269531 17.691406 C 146.128906 17.449219 146.488281 16.871094 146.746094 16.289062 L 148.527344 12.171875 C 147.367188 12.171875 146.628906 12.171875 145.746094 13.230469 L 145.429688 13.230469 C 146.308594 11.628906 147.585938 10.710938 149.667969 10.710938 Z M 155.308594 10.710938 "/>
<path fill="none" stroke-width="66" stroke-linecap="butt" stroke-linejoin="bevel" stroke="rgb(0%, 0%, 0%)" stroke-opacity="1" stroke-miterlimit="0" d="M 6269.335499 1528.906281 L 7755.468144 1528.906281 " transform="matrix(0.02, 0, 0, 0.02, -0.0000053739, -0.00000406293)"/>
<path fill-rule="nonzero" fill="rgb(0%, 0%, 0%)" fill-opacity="1" d="M 144.726562 46.839844 L 143.648438 49.578125 L 135.828125 49.578125 L 135.828125 49.339844 L 139.386719 45.558594 C 141.269531 43.578125 141.988281 42.058594 141.988281 40.359375 C 141.988281 38.539062 140.90625 37.539062 139.207031 37.539062 C 137.769531 37.539062 137.066406 38.179688 136.269531 40.140625 L 135.847656 40.039062 C 136.269531 37.699219 137.546875 36.058594 140.007812 36.058594 C 142.269531 36.058594 143.707031 37.601562 143.707031 39.578125 C 143.707031 41.160156 142.929688 42.660156 141.148438 44.539062 L 137.847656 48.058594 L 142.527344 48.058594 C 143.367188 48.058594 143.789062 47.839844 144.449219 46.71875 Z M 144.726562 46.839844 "/>
</svg>
