<?xml version="1.0" encoding="UTF-8"?>
<svg xmlns="http://www.w3.org/2000/svg" xmlns:xlink="http://www.w3.org/1999/xlink" width="132" height="39" viewBox="0 0 132 39" data-dpi="720">
<path fill-rule="nonzero" fill="rgb(0%, 0%, 0%)" fill-opacity="1" d="M 5.140625 25.261719 L 0.421875 25.261719 L 0.421875 24.960938 C 1.679688 24.859375 1.960938 24.519531 1.960938 23.421875 L 1.960938 14.039062 C 1.960938 13.078125 1.761719 12.761719 1.121094 12.761719 C 0.960938 12.761719 0.699219 12.761719 0.378906 12.800781 L 0.378906 12.480469 C 1.761719 12.140625 2.5 11.941406 3.539062 11.601562 L 3.640625 11.679688 L 3.640625 23.519531 C 3.640625 24.621094 3.859375 24.878906 5.140625 24.960938 Z M 5.140625 25.261719 "/>
<path fill-rule="nonzero" fill="rgb(0%, 0%, 0%)" fill-opacity="1" d="M 10.621094 25.261719 L 5.878906 25.261719 L 5.878906 24.960938 C 7.261719 24.878906 7.460938 24.699219 7.460938 23.179688 L 7.460938 18.640625 C 7.460938 17.699219 7.300781 17.378906 6.800781 17.378906 C 6.621094 17.378906 6.320312 17.378906 5.960938 17.480469 L 5.960938 17.160156 L 9.058594 16.058594 L 9.140625 16.140625 L 9.140625 23.160156 C 9.140625 24.640625 9.300781 24.859375 10.621094 24.960938 Z M 9.160156 12.621094 C 9.160156 13.199219 8.71875 13.640625 8.121094 13.640625 C 7.558594 13.640625 7.121094 13.199219 7.121094 12.621094 C 7.121094 12.058594 7.578125 11.601562 8.140625 11.601562 C 8.71875 11.601562 9.160156 12.058594 9.160156 12.621094 Z M 9.160156 12.621094 "/>
<path fill-rule="nonzero" fill="rgb(0%, 0%, 0%)" fill-opacity="1" d="M 26.621094 25.261719 L 22.261719 25.261719 L 22.261719 24.960938 C 23.378906 24.839844 23.558594 24.621094 23.558594 23.460938 L 23.558594 19.339844 C 23.558594 17.761719 23.160156 17.101562 22.019531 17.101562 C 21.078125 17.101562 20.480469 17.460938 19.878906 18.320312 L 19.878906 23.359375 C 19.878906 24.660156 20.179688 24.941406 21.320312 24.960938 L 21.320312 25.261719 L 16.839844 25.261719 L 16.839844 24.960938 C 17.980469 24.878906 18.199219 24.761719 18.199219 23.539062 L 18.199219 19.320312 C 18.199219 17.941406 17.761719 17.101562 16.898438 17.101562 C 16.160156 17.101562 15.179688 17.480469 14.78125 17.960938 C 14.640625 18.121094 14.519531 18.261719 14.519531 18.300781 L 14.519531 23.859375 C 14.519531 24.71875 14.820312 24.921875 15.878906 24.960938 L 15.878906 25.261719 L 11.441406 25.261719 L 11.441406 24.960938 C 12.558594 24.941406 12.839844 24.660156 12.839844 23.5 L 12.839844 18.539062 C 12.839844 17.558594 12.660156 17.21875 12.140625 17.21875 C 11.921875 17.21875 11.761719 17.238281 11.5 17.300781 L 11.5 16.960938 C 12.601562 16.660156 13.261719 16.441406 14.28125 16.058594 L 14.441406 16.121094 L 14.441406 17.601562 L 14.480469 17.601562 C 15.800781 16.238281 16.640625 16.058594 17.539062 16.058594 C 18.621094 16.058594 19.300781 16.601562 19.660156 17.738281 C 20.738281 16.578125 21.761719 16.058594 22.921875 16.058594 C 24.539062 16.058594 25.238281 17.300781 25.238281 19.660156 L 25.238281 23.71875 C 25.238281 24.621094 25.5 24.878906 26.101562 24.921875 L 26.621094 24.960938 Z M 26.621094 25.261719 "/>
<path fill-rule="nonzero" fill="rgb(0%, 0%, 0%)" fill-opacity="1" d="M 31.253906 25.941406 L 31.929688 24.90625 C 32.320312 24.304688 32.84375 23.644531 33.59375 23.644531 C 34.074219 23.644531 34.328125 23.824219 34.328125 24.140625 C 34.328125 24.425781 34.136719 24.769531 33.746094 24.769531 C 33.414062 24.769531 33.339844 24.636719 33.085938 24.636719 C 32.636719 24.636719 32.46875 24.875 32.261719 25.203125 L 31.433594 26.480469 C 31.886719 27.410156 32.230469 29.433594 32.90625 29.433594 C 33.144531 29.433594 33.503906 29.226562 33.820312 28.578125 L 34.03125 28.730469 C 33.851562 28.953125 33.175781 30.394531 32.304688 30.394531 C 31.691406 30.394531 31.40625 29.78125 31.210938 29.238281 L 30.609375 27.546875 L 29.664062 29.015625 C 29.183594 29.75 28.75 30.394531 27.910156 30.394531 C 27.371094 30.394531 27.128906 30.019531 27.128906 29.691406 C 27.128906 29.449219 27.324219 29.136719 27.699219 29.136719 C 28.089844 29.136719 28.03125 29.433594 28.40625 29.433594 C 28.585938 29.433594 28.976562 29.285156 29.453125 28.550781 L 30.429688 27.035156 L 29.933594 25.65625 C 29.679688 24.933594 29.289062 24.320312 28.464844 24.320312 C 28.269531 24.320312 28.046875 24.351562 27.894531 24.410156 L 27.851562 24.140625 L 29.828125 23.644531 C 30.488281 24.003906 30.773438 24.621094 30.953125 25.113281 Z M 31.253906 25.941406 "/>
<path fill-rule="nonzero" fill="rgb(0%, 0%, 0%)" fill-opacity="1" d="M 47.769531 26.390625 L 47.769531 26.539062 C 46.328125 27.15625 45.191406 28.265625 44.199219 29.40625 L 43.898438 29.121094 C 44.246094 28.625 44.679688 28.144531 45.128906 27.679688 C 45.265625 27.546875 45.339844 27.378906 45.339844 27.261719 C 45.339844 27.109375 45.21875 26.960938 44.949219 26.960938 L 35.980469 26.960938 L 35.980469 25.96875 L 44.964844 25.96875 C 45.113281 25.96875 45.355469 25.789062 45.355469 25.640625 C 45.355469 25.503906 45.296875 25.414062 45.144531 25.265625 C 44.710938 24.84375 44.246094 24.320312 43.914062 23.824219 L 44.214844 23.539062 C 45.191406 24.664062 46.328125 25.789062 47.769531 26.390625 Z M 47.769531 26.390625 "/>
<path fill-rule="nonzero" fill="rgb(0%, 0%, 0%)" fill-opacity="1" d="M 54.519531 25.386719 C 54.519531 22.265625 53.859375 20.511719 52.539062 20.511719 C 51.296875 20.511719 50.621094 22.28125 50.621094 25.324219 C 50.621094 28.371094 51.28125 30.078125 52.570312 30.078125 C 53.84375 30.078125 54.519531 28.355469 54.519531 25.386719 Z M 55.960938 25.308594 C 55.960938 27.890625 55.015625 30.46875 52.570312 30.46875 C 50.003906 30.46875 49.179688 27.679688 49.179688 25.21875 C 49.179688 22.566406 50.214844 20.121094 52.628906 20.121094 C 54.59375 20.121094 55.960938 22.234375 55.960938 25.308594 Z M 55.960938 25.308594 "/>
<path fill-rule="nonzero" fill="rgb(0%, 0%, 0%)" fill-opacity="1" d="M 63.59375 7.640625 L 65.671875 8.898438 C 66.953125 9.679688 67.433594 10.21875 67.433594 11.359375 C 67.433594 12.699219 66.152344 13.859375 64.632812 13.859375 C 64.214844 13.859375 63.632812 13.839844 63.171875 13.679688 C 62.691406 13.519531 62.472656 13.5 62.253906 13.5 C 62.011719 13.5 61.894531 13.539062 61.773438 13.738281 L 61.511719 13.738281 L 61.511719 10.601562 L 61.832031 10.601562 C 62.253906 12.539062 62.992188 13.421875 64.375 13.421875 C 65.394531 13.421875 66.035156 12.761719 66.035156 11.941406 C 66.035156 11.320312 65.632812 10.800781 64.972656 10.441406 L 63.894531 9.839844 C 62.234375 8.921875 61.492188 7.960938 61.492188 6.941406 C 61.492188 5.359375 62.613281 4.480469 64.253906 4.480469 C 64.734375 4.480469 65.171875 4.5 65.59375 4.699219 C 65.8125 4.800781 66.011719 4.859375 66.152344 4.859375 C 66.234375 4.859375 66.3125 4.839844 66.472656 4.660156 L 66.691406 4.660156 L 66.792969 7.378906 L 66.492188 7.378906 C 66.035156 5.578125 65.433594 4.921875 64.234375 4.921875 C 63.375 4.921875 62.734375 5.339844 62.734375 6.28125 C 62.734375 6.71875 63.035156 7.300781 63.59375 7.640625 Z M 63.59375 7.640625 "/>
<path fill-rule="nonzero" fill="rgb(0%, 0%, 0%)" fill-opacity="1" d="M 73.3125 13.660156 L 68.574219 13.660156 L 68.574219 13.359375 C 69.953125 13.28125 70.152344 13.101562 70.152344 11.578125 L 70.152344 7.039062 C 70.152344 6.101562 69.992188 5.78125 69.492188 5.78125 C 69.3125 5.78125 69.011719 5.78125 68.652344 5.878906 L 68.652344 5.558594 L 71.753906 4.460938 L 71.832031 4.539062 L 71.832031 11.558594 C 71.832031 13.039062 71.992188 13.261719 73.3125 13.359375 Z M 71.851562 1.019531 C 71.851562 1.601562 71.414062 2.039062 70.8125 2.039062 C 70.253906 2.039062 69.8125 1.601562 69.8125 1.019531 C 69.8125 0.460938 70.273438 0 70.832031 0 C 71.414062 0 71.851562 0.460938 71.851562 1.019531 Z M 71.851562 1.019531 "/>
<path fill-rule="nonzero" fill="rgb(0%, 0%, 0%)" fill-opacity="1" d="M 83.511719 13.660156 L 79.351562 13.660156 L 79.375 13.359375 C 80.375 13.28125 80.613281 12.878906 80.613281 11.558594 L 80.613281 7.578125 C 80.613281 6.160156 80.132812 5.558594 79.152344 5.558594 C 78.492188 5.558594 78.011719 5.800781 77.09375 6.699219 L 77.09375 12.21875 C 77.09375 13 77.375 13.28125 78.394531 13.359375 L 78.394531 13.660156 L 74.171875 13.660156 L 74.171875 13.359375 C 75.191406 13.28125 75.414062 12.960938 75.414062 11.78125 L 75.414062 6.921875 C 75.414062 5.941406 75.273438 5.621094 74.714844 5.621094 C 74.492188 5.621094 74.273438 5.640625 74.132812 5.699219 L 74.132812 5.359375 C 75.234375 5.039062 75.894531 4.820312 76.875 4.460938 L 77.035156 4.519531 L 77.035156 6.078125 L 77.054688 6.078125 C 78.09375 4.898438 79.011719 4.460938 79.933594 4.460938 C 81.453125 4.460938 82.292969 5.558594 82.292969 7.539062 L 82.292969 11.960938 C 82.292969 13.039062 82.535156 13.261719 83.511719 13.359375 Z M 83.511719 13.660156 "/>
<path fill-rule="nonzero" fill="rgb(0%, 0%, 0%)" fill-opacity="1" d="M 93.246094 7.898438 L 94.148438 6.519531 C 94.667969 5.71875 95.367188 4.839844 96.367188 4.839844 C 97.007812 4.839844 97.347656 5.078125 97.347656 5.5 C 97.347656 5.878906 97.085938 6.339844 96.566406 6.339844 C 96.125 6.339844 96.027344 6.160156 95.6875 6.160156 C 95.085938 6.160156 94.867188 6.480469 94.585938 6.921875 L 93.488281 8.621094 C 94.085938 9.859375 94.546875 12.558594 95.445312 12.558594 C 95.765625 12.558594 96.246094 12.28125 96.667969 11.421875 L 96.945312 11.621094 C 96.707031 11.921875 95.808594 13.839844 94.648438 13.839844 C 93.828125 13.839844 93.445312 13.019531 93.1875 12.300781 L 92.386719 10.039062 L 91.125 12 C 90.488281 12.980469 89.90625 13.839844 88.785156 13.839844 C 88.066406 13.839844 87.746094 13.339844 87.746094 12.898438 C 87.746094 12.578125 88.007812 12.160156 88.507812 12.160156 C 89.027344 12.160156 88.945312 12.558594 89.445312 12.558594 C 89.6875 12.558594 90.207031 12.359375 90.847656 11.378906 L 92.148438 9.359375 L 91.488281 7.519531 C 91.148438 6.558594 90.625 5.738281 89.527344 5.738281 C 89.265625 5.738281 88.964844 5.78125 88.765625 5.859375 L 88.707031 5.5 L 91.347656 4.839844 C 92.226562 5.320312 92.605469 6.140625 92.847656 6.800781 Z M 93.246094 7.898438 "/>
<path fill="none" stroke-width="66" stroke-linecap="butt" stroke-linejoin="bevel" stroke="rgb(0%, 0%, 0%)" stroke-opacity="1" stroke-miterlimit="0" d="M 3023.632774 1013.086005 L 4907.42171 1013.086005 " transform="matrix(0.02, 0, 0, 0.02, -0.00000329107, -0.00000270545)"/>
<path fill-rule="nonzero" fill="rgb(0%, 0%, 0%)" fill-opacity="1" d="M 79.910156 33.5 L 80.808594 32.121094 C 81.328125 31.320312 82.03125 30.441406 83.03125 30.441406 C 83.671875 30.441406 84.011719 30.679688 84.011719 31.101562 C 84.011719 31.480469 83.75 31.941406 83.230469 31.941406 C 82.789062 31.941406 82.691406 31.761719 82.351562 31.761719 C 81.75 31.761719 81.53125 32.078125 81.25 32.519531 L 80.148438 34.21875 C 80.75 35.460938 81.210938 38.160156 82.109375 38.160156 C 82.429688 38.160156 82.910156 37.878906 83.328125 37.019531 L 83.609375 37.21875 C 83.371094 37.519531 82.46875 39.441406 81.308594 39.441406 C 80.488281 39.441406 80.109375 38.621094 79.851562 37.898438 L 79.050781 35.640625 L 77.789062 37.601562 C 77.148438 38.578125 76.570312 39.441406 75.449219 39.441406 C 74.730469 39.441406 74.410156 38.941406 74.410156 38.5 C 74.410156 38.179688 74.671875 37.761719 75.171875 37.761719 C 75.691406 37.761719 75.609375 38.160156 76.109375 38.160156 C 76.351562 38.160156 76.871094 37.960938 77.511719 36.980469 L 78.808594 34.960938 L 78.148438 33.121094 C 77.808594 32.160156 77.289062 31.339844 76.191406 31.339844 C 75.929688 31.339844 75.628906 31.378906 75.429688 31.460938 L 75.371094 31.101562 L 78.011719 30.441406 C 78.890625 30.921875 79.269531 31.738281 79.511719 32.398438 Z M 79.910156 33.5 "/>
<path fill-rule="nonzero" fill="rgb(0%, 0%, 0%)" fill-opacity="1" d="M 116.441406 22.859375 L 104.664062 22.859375 L 104.664062 21.539062 L 116.441406 21.539062 Z M 116.441406 18.859375 L 104.664062 18.859375 L 104.664062 17.539062 L 116.441406 17.539062 Z M 116.441406 18.859375 "/>
<path fill-rule="nonzero" fill="rgb(0%, 0%, 0%)" fill-opacity="1" d="M 130.835938 25.261719 L 125.316406 25.261719 L 125.316406 24.960938 C 126.796875 24.878906 127.21875 24.460938 127.21875 23.359375 L 127.21875 14.378906 C 127.21875 13.699219 127.039062 13.398438 126.617188 13.398438 C 126.417969 13.398438 126.078125 13.5 125.71875 13.640625 L 125.179688 13.839844 L 125.179688 13.558594 L 128.757812 11.738281 L 128.9375 11.800781 L 128.9375 23.738281 C 128.9375 24.601562 129.335938 24.960938 130.835938 24.960938 Z M 130.835938 25.261719 "/>
</svg>
