<?xml version="1.0" encoding="UTF-8"?>
<svg xmlns="http://www.w3.org/2000/svg" xmlns:xlink="http://www.w3.org/1999/xlink" width="70" height="49" viewBox="0 0 70 49" data-dpi="720">
<path fill-rule="nonzero" fill="rgb(0%, 0%, 0%)" fill-opacity="1" d="M 13.339844 48.238281 L 13.339844 49.199219 C 7.660156 43.859375 3.640625 35.421875 3.640625 24.601562 C 3.640625 13.839844 7.660156 4.558594 13.339844 0 L 13.339844 0.878906 C 9.78125 4.558594 5.839844 12.480469 5.839844 24.601562 C 5.839844 36.859375 9.78125 43.839844 13.339844 48.238281 Z M 13.339844 48.238281 "/>
<path fill-rule="nonzero" fill="rgb(0%, 0%, 0%)" fill-opacity="1" d="M 22.878906 19.960938 L 17.359375 19.960938 L 17.359375 19.660156 C 18.839844 19.578125 19.261719 19.160156 19.261719 18.058594 L 19.261719 9.078125 C 19.261719 8.398438 19.078125 8.101562 18.660156 8.101562 C 18.460938 8.101562 18.121094 8.199219 17.761719 8.339844 L 17.21875 8.539062 L 17.21875 8.261719 L 20.800781 6.441406 L 20.980469 6.5 L 20.980469 18.441406 C 20.980469 19.300781 21.378906 19.660156 22.878906 19.660156 Z M 22.878906 19.960938 "/>
<path fill-rule="nonzero" fill="rgb(0%, 0%, 0%)" fill-opacity="1" d="M 54.480469 17.21875 L 53.398438 19.960938 L 45.578125 19.960938 L 45.578125 19.71875 L 49.140625 15.941406 C 51.019531 13.960938 51.738281 12.441406 51.738281 10.738281 C 51.738281 8.921875 50.660156 7.921875 48.960938 7.921875 C 47.519531 7.921875 46.820312 8.558594 46.019531 10.519531 L 45.601562 10.421875 C 46.019531 8.078125 47.300781 6.441406 49.761719 6.441406 C 52.019531 6.441406 53.460938 7.980469 53.460938 9.960938 C 53.460938 11.539062 52.679688 13.039062 50.898438 14.921875 L 47.601562 18.441406 L 52.28125 18.441406 C 53.121094 18.441406 53.539062 18.21875 54.199219 17.101562 Z M 54.480469 17.21875 "/>
<path fill-rule="nonzero" fill="rgb(0%, 0%, 0%)" fill-opacity="1" d="M 16.21875 32.28125 L 15.898438 32.199219 C 16.480469 30.300781 17.738281 28.960938 19.820312 28.960938 C 21.679688 28.960938 22.941406 30.058594 22.941406 31.699219 C 22.941406 32.660156 22.421875 33.660156 21.078125 34.460938 C 21.960938 34.839844 22.320312 35.078125 22.738281 35.519531 C 23.300781 36.140625 23.621094 37.058594 23.621094 38.101562 C 23.621094 39.160156 23.28125 40.140625 22.699219 40.898438 C 21.738281 42.179688 19.839844 42.761719 18.058594 42.761719 C 16.601562 42.761719 15.820312 42.339844 15.820312 41.621094 C 15.820312 41.199219 16.179688 40.898438 16.640625 40.898438 C 16.980469 40.898438 17.300781 41.019531 17.859375 41.421875 C 18.601562 41.941406 19.019531 42.039062 19.578125 42.039062 C 21.058594 42.039062 22.179688 40.679688 22.179688 38.980469 C 22.179688 37.460938 21.480469 36.480469 20.101562 36.078125 C 19.660156 35.941406 19.199219 35.878906 18.058594 35.878906 L 18.058594 35.601562 C 18.820312 35.339844 19.339844 35.121094 19.738281 34.878906 C 20.71875 34.320312 21.359375 33.421875 21.359375 32.199219 C 21.359375 30.839844 20.519531 30.160156 19.199219 30.160156 C 17.960938 30.160156 17.039062 30.800781 16.21875 32.28125 Z M 16.21875 32.28125 "/>
<path fill-rule="nonzero" fill="rgb(0%, 0%, 0%)" fill-opacity="1" d="M 50.839844 37.859375 L 50.839844 31 L 46.039062 37.859375 Z M 54.460938 39.140625 L 52.398438 39.140625 L 52.398438 42.480469 L 50.839844 42.480469 L 50.839844 39.140625 L 45.238281 39.140625 L 45.238281 37.859375 L 51.519531 28.960938 L 52.398438 28.960938 L 52.398438 37.859375 L 54.460938 37.859375 Z M 54.460938 39.140625 "/>
<path fill-rule="nonzero" fill="rgb(0%, 0%, 0%)" fill-opacity="1" d="M 56.660156 0.960938 L 56.660156 0 C 62.339844 5.339844 66.359375 13.699219 66.359375 24.601562 C 66.359375 35.28125 62.339844 44.640625 56.660156 49.199219 L 56.660156 48.320312 C 60.21875 44.640625 64.160156 36.71875 64.160156 24.601562 C 64.160156 12.320312 60.21875 5.300781 56.660156 0.960938 Z M 56.660156 0.960938 "/>
</svg>
