<?xml version="1.0" encoding="UTF-8"?>
<svg xmlns="http://www.w3.org/2000/svg" xmlns:xlink="http://www.w3.org/1999/xlink" width="101" height="18" viewBox="0 0 101 18" data-dpi="720">
<path fill-rule="nonzero" fill="rgb(0%, 0%, 0%)" fill-opacity="1" d="M 7.339844 11.320312 C 7.339844 10.5 7.101562 9.898438 6.339844 9.898438 C 4.980469 9.898438 3.78125 11.640625 3.101562 13.320312 C 2.738281 14.21875 2.539062 15.101562 2.539062 15.800781 C 2.539062 16.859375 3.160156 17.121094 3.699219 17.121094 C 5.078125 17.121094 6.480469 15.21875 7.039062 13.320312 C 7.199219 12.800781 7.339844 12 7.339844 11.320312 Z M 9.441406 9.578125 L 7.621094 16.480469 C 7.898438 20.960938 7.601562 16.519531 7.601562 16.699219 C 7.601562 16.921875 7.71875 17.039062 7.878906 17.039062 C 8.078125 17.039062 8.378906 17 9.160156 15.960938 L 9.398438 16.199219 C 8.78125 17.140625 7.699219 18.339844 6.738281 18.339844 C 6.078125 18.339844 5.898438 17.878906 5.898438 17.238281 C 5.898438 16.980469 6.019531 16.558594 6.121094 16.238281 L 6.039062 16.238281 C 4.601562 18.078125 3.359375 18.339844 2.578125 18.339844 C 1.320312 18.339844 0.800781 17.238281 0.800781 15.960938 C 0.800781 13.320312 3.441406 9.320312 6.320312 9.320312 C 7.179688 9.320312 7.601562 9.800781 7.640625 10.238281 L 7.660156 10.238281 L 7.839844 9.578125 Z M 9.441406 9.578125 "/>
<path fill-rule="nonzero" fill="rgb(0%, 0%, 0%)" fill-opacity="1" d="M 17.148438 8.085938 L 16.339844 10.140625 L 10.476562 10.140625 L 10.476562 9.960938 L 13.144531 7.125 C 14.554688 5.640625 15.09375 4.5 15.09375 3.226562 C 15.09375 1.859375 14.285156 1.109375 13.011719 1.109375 C 11.929688 1.109375 11.40625 1.589844 10.804688 3.058594 L 10.488281 2.984375 C 10.804688 1.230469 11.765625 0 13.609375 0 C 15.304688 0 16.386719 1.15625 16.386719 2.640625 C 16.386719 3.824219 15.800781 4.949219 14.464844 6.359375 L 11.988281 9 L 15.5 9 C 16.128906 9 16.445312 8.835938 16.941406 7.996094 Z M 17.148438 8.085938 "/>
<path fill-rule="nonzero" fill="rgb(0%, 0%, 0%)" fill-opacity="1" d="M 35.523438 13.738281 L 30.304688 13.738281 L 30.304688 18.960938 L 28.984375 18.960938 L 28.984375 13.738281 L 23.765625 13.738281 L 23.765625 12.421875 L 28.984375 12.421875 L 28.984375 7.199219 L 30.304688 7.199219 L 30.304688 12.421875 L 35.523438 12.421875 Z M 35.523438 13.738281 "/>
<path fill-rule="nonzero" fill="rgb(0%, 0%, 0%)" fill-opacity="1" d="M 44.527344 13.101562 L 43.429688 17.398438 C 43.429688 17.539062 44.070312 17.78125 44.527344 17.78125 C 46.96875 17.78125 48.289062 14.300781 48.289062 12.261719 C 48.289062 10.859375 47.527344 10.421875 46.867188 10.421875 C 45.429688 10.421875 44.75 12.199219 44.527344 13.101562 Z M 45.230469 10.5 L 45.308594 10.578125 C 45.96875 9.941406 46.75 9.320312 47.730469 9.320312 C 49.128906 9.320312 49.949219 10.699219 49.949219 12.339844 C 49.949219 14.761719 47.769531 18.359375 44.628906 18.359375 C 43.570312 18.359375 42.75 18 41.847656 17.398438 L 44.730469 6.140625 C 44.75 6.058594 44.769531 5.980469 44.769531 5.921875 C 44.75 5.660156 44.449219 5.5 44.1875 5.5 C 43.988281 5.5 43.75 5.519531 43.589844 5.578125 L 43.527344 5.261719 L 46.6875 4.78125 Z M 45.230469 10.5 "/>
<path fill-rule="nonzero" fill="rgb(0%, 0%, 0%)" fill-opacity="1" d="M 57.457031 8.085938 L 56.648438 10.140625 L 50.785156 10.140625 L 50.785156 9.960938 L 53.453125 7.125 C 54.863281 5.640625 55.402344 4.5 55.402344 3.226562 C 55.402344 1.859375 54.59375 1.109375 53.320312 1.109375 C 52.238281 1.109375 51.714844 1.589844 51.113281 3.058594 L 50.800781 2.984375 C 51.113281 1.230469 52.074219 0 53.917969 0 C 55.613281 0 56.695312 1.15625 56.695312 2.640625 C 56.695312 3.824219 56.109375 4.949219 54.773438 6.359375 L 52.300781 9 L 55.808594 9 C 56.4375 9 56.753906 8.835938 57.25 7.996094 Z M 57.457031 8.085938 "/>
<path fill-rule="nonzero" fill="rgb(0%, 0%, 0%)" fill-opacity="1" d="M 76.964844 15.738281 L 65.183594 15.738281 L 65.183594 14.421875 L 76.964844 14.421875 Z M 76.964844 11.738281 L 65.183594 11.738281 L 65.183594 10.421875 L 76.964844 10.421875 Z M 76.964844 11.738281 "/>
<path fill-rule="nonzero" fill="rgb(0%, 0%, 0%)" fill-opacity="1" d="M 90.738281 15.921875 L 90.980469 16.179688 C 89.960938 17.378906 88.71875 18.359375 87.019531 18.359375 C 85.078125 18.359375 84.28125 16.800781 84.28125 15.261719 C 84.28125 12.460938 86.699219 9.320312 89.539062 9.320312 C 90.539062 9.320312 91.480469 9.859375 91.480469 10.839844 C 91.480469 11.601562 91.160156 12.238281 90.398438 12.238281 C 89.878906 12.238281 89.640625 11.820312 89.640625 11.480469 C 89.640625 11 90.21875 10.761719 90.21875 10.320312 C 90.21875 10.078125 90.019531 9.898438 89.539062 9.898438 C 87.160156 9.898438 86.019531 13.480469 86.019531 15.078125 C 86.019531 16.820312 87 17.261719 87.898438 17.261719 C 89.121094 17.261719 90.039062 16.601562 90.738281 15.921875 Z M 90.738281 15.921875 "/>
<path fill-rule="nonzero" fill="rgb(0%, 0%, 0%)" fill-opacity="1" d="M 99.890625 8.085938 L 99.078125 10.140625 L 93.214844 10.140625 L 93.214844 9.960938 L 95.886719 7.125 C 97.296875 5.640625 97.835938 4.5 97.835938 3.226562 C 97.835938 1.859375 97.023438 1.109375 95.75 1.109375 C 94.671875 1.109375 94.144531 1.589844 93.546875 3.058594 L 93.230469 2.984375 C 93.546875 1.230469 94.503906 0 96.351562 0 C 98.046875 0 99.125 1.15625 99.125 2.640625 C 99.125 3.824219 98.539062 4.949219 97.203125 6.359375 L 94.730469 9 L 98.238281 9 C 98.871094 9 99.183594 8.835938 99.679688 7.996094 Z M 99.890625 8.085938 "/>
</svg>
