<?xml version="1.0" encoding="UTF-8"?>
<svg xmlns="http://www.w3.org/2000/svg" xmlns:xlink="http://www.w3.org/1999/xlink" width="168" height="49" viewBox="0 0 168 49" data-dpi="720">
<path fill-rule="nonzero" fill="rgb(0%, 0%, 0%)" fill-opacity="1" d="M 6.101562 29.820312 L 7 28.441406 C 7.519531 27.640625 8.21875 26.761719 9.21875 26.761719 C 9.859375 26.761719 10.199219 27 10.199219 27.421875 C 10.199219 27.800781 9.941406 28.261719 9.421875 28.261719 C 8.980469 28.261719 8.878906 28.078125 8.539062 28.078125 C 7.941406 28.078125 7.71875 28.398438 7.441406 28.839844 L 6.339844 30.539062 C 6.941406 31.78125 7.398438 34.480469 8.300781 34.480469 C 8.621094 34.480469 9.101562 34.199219 9.519531 33.339844 L 9.800781 33.539062 C 9.558594 33.839844 8.660156 35.761719 7.5 35.761719 C 6.679688 35.761719 6.300781 34.941406 6.039062 34.21875 L 5.238281 31.960938 L 3.980469 33.921875 C 3.339844 34.898438 2.761719 35.761719 1.640625 35.761719 C 0.921875 35.761719 0.601562 35.261719 0.601562 34.820312 C 0.601562 34.5 0.859375 34.078125 1.359375 34.078125 C 1.878906 34.078125 1.800781 34.480469 2.300781 34.480469 C 2.539062 34.480469 3.058594 34.28125 3.699219 33.300781 L 5 31.28125 L 4.339844 29.441406 C 4 28.480469 3.480469 27.660156 2.378906 27.660156 C 2.121094 27.660156 1.820312 27.699219 1.621094 27.78125 L 1.558594 27.421875 L 4.199219 26.761719 C 5.078125 27.238281 5.460938 28.058594 5.699219 28.71875 Z M 6.101562 29.820312 "/>
<path fill-rule="nonzero" fill="rgb(0%, 0%, 0%)" fill-opacity="1" d="M 29.296875 33.179688 L 17.515625 33.179688 L 17.515625 31.859375 L 29.296875 31.859375 Z M 29.296875 29.179688 L 17.515625 29.179688 L 17.515625 27.859375 L 29.296875 27.859375 Z M 29.296875 29.179688 "/>
<path fill-rule="nonzero" fill="rgb(0%, 0%, 0%)" fill-opacity="1" d="M 48.230469 18.429688 L 37.089844 18.429688 L 37.089844 17.109375 L 48.230469 17.109375 Z M 48.230469 18.429688 "/>
<path fill-rule="nonzero" fill="rgb(0%, 0%, 0%)" fill-opacity="1" d="M 53.089844 17.789062 L 51.992188 22.089844 C 51.992188 22.230469 52.632812 22.46875 53.089844 22.46875 C 55.53125 22.46875 56.851562 18.988281 56.851562 16.949219 C 56.851562 15.550781 56.089844 15.109375 55.429688 15.109375 C 53.992188 15.109375 53.3125 16.890625 53.089844 17.789062 Z M 53.792969 15.191406 L 53.871094 15.269531 C 54.53125 14.628906 55.3125 14.011719 56.292969 14.011719 C 57.691406 14.011719 58.511719 15.390625 58.511719 17.03125 C 58.511719 19.449219 56.332031 23.050781 53.191406 23.050781 C 52.132812 23.050781 51.3125 22.691406 50.410156 22.089844 L 53.292969 10.828125 C 53.3125 10.75 53.332031 10.671875 53.332031 10.609375 C 53.3125 10.351562 53.011719 10.191406 52.75 10.191406 C 52.550781 10.191406 52.3125 10.210938 52.152344 10.269531 L 52.089844 9.949219 L 55.25 9.46875 Z M 53.792969 15.191406 "/>
<path fill-rule="nonzero" fill="rgb(0%, 0%, 0%)" fill-opacity="1" d="M 76.09375 24.570312 L 64.316406 24.570312 L 64.316406 23.25 L 76.09375 23.25 Z M 76.09375 17.988281 L 70.855469 17.988281 L 70.855469 22.171875 L 69.535156 22.171875 L 69.535156 17.988281 L 64.316406 17.988281 L 64.316406 16.671875 L 69.535156 16.671875 L 69.535156 12.789062 L 70.855469 12.789062 L 70.855469 16.671875 L 76.09375 16.671875 Z M 76.09375 17.988281 "/>
<path fill-rule="nonzero" fill="rgb(0%, 0%, 0%)" fill-opacity="1" d="M 100.761719 1.320312 L 91.199219 25.960938 L 90.558594 25.960938 L 86.519531 15.359375 C 86.179688 14.460938 85.78125 14.179688 85.28125 14.179688 C 84.941406 14.179688 84.421875 14.398438 83.980469 14.800781 L 83.738281 14.398438 L 86.859375 11.921875 L 87.238281 11.921875 L 91.320312 22.640625 L 91.398438 22.640625 L 99.679688 1.320312 Z M 100.761719 1.320312 "/>
<path fill="none" stroke-width="66" stroke-linecap="butt" stroke-linejoin="bevel" stroke="rgb(0%, 0%, 0%)" stroke-opacity="1" stroke-miterlimit="0" d="M 5002.929799 99.02344 L 8435.351751 99.02344 " transform="matrix(0.02, 0, 0, 0.02, 0, 0)"/>
<path fill-rule="nonzero" fill="rgb(0%, 0%, 0%)" fill-opacity="1" d="M 103.640625 17.789062 L 102.539062 22.089844 C 102.539062 22.230469 103.179688 22.46875 103.640625 22.46875 C 106.078125 22.46875 107.398438 18.988281 107.398438 16.949219 C 107.398438 15.550781 106.640625 15.109375 105.980469 15.109375 C 104.539062 15.109375 103.859375 16.890625 103.640625 17.789062 Z M 104.339844 15.191406 L 104.421875 15.269531 C 105.078125 14.628906 105.859375 14.011719 106.839844 14.011719 C 108.238281 14.011719 109.058594 15.390625 109.058594 17.03125 C 109.058594 19.449219 106.878906 23.050781 103.738281 23.050781 C 102.679688 23.050781 101.859375 22.691406 100.960938 22.089844 L 103.839844 10.828125 C 103.859375 10.75 103.878906 10.671875 103.878906 10.609375 C 103.859375 10.351562 103.558594 10.191406 103.300781 10.191406 C 103.101562 10.191406 102.859375 10.210938 102.699219 10.269531 L 102.640625 9.949219 L 105.800781 9.46875 Z M 104.339844 15.191406 "/>
<path fill-rule="nonzero" fill="rgb(0%, 0%, 0%)" fill-opacity="1" d="M 116.570312 15.273438 L 115.761719 17.328125 L 109.894531 17.328125 L 109.894531 17.148438 L 112.566406 14.316406 C 113.976562 12.828125 114.515625 11.691406 114.515625 10.414062 C 114.515625 9.050781 113.703125 8.300781 112.429688 8.300781 C 111.351562 8.300781 110.824219 8.78125 110.226562 10.25 L 109.910156 10.175781 C 110.226562 8.421875 111.183594 7.191406 113.03125 7.191406 C 114.726562 7.191406 115.804688 8.34375 115.804688 9.828125 C 115.804688 11.015625 115.21875 12.140625 113.886719 13.550781 L 111.410156 16.191406 L 114.921875 16.191406 C 115.550781 16.191406 115.863281 16.023438 116.359375 15.183594 Z M 116.570312 15.273438 "/>
<path fill-rule="nonzero" fill="rgb(0%, 0%, 0%)" fill-opacity="1" d="M 134.644531 18.429688 L 123.503906 18.429688 L 123.503906 17.109375 L 134.644531 17.109375 Z M 134.644531 18.429688 "/>
<path fill-rule="nonzero" fill="rgb(0%, 0%, 0%)" fill-opacity="1" d="M 146.207031 18.210938 L 146.207031 11.351562 L 141.410156 18.210938 Z M 149.828125 19.488281 L 147.769531 19.488281 L 147.769531 22.828125 L 146.207031 22.828125 L 146.207031 19.488281 L 140.609375 19.488281 L 140.609375 18.210938 L 146.890625 9.308594 L 147.769531 9.308594 L 147.769531 18.210938 L 149.828125 18.210938 Z M 149.828125 19.488281 "/>
<path fill-rule="nonzero" fill="rgb(0%, 0%, 0%)" fill-opacity="1" d="M 157.707031 16.011719 C 157.707031 15.191406 157.46875 14.589844 156.707031 14.589844 C 155.347656 14.589844 154.148438 16.328125 153.46875 18.011719 C 153.109375 18.910156 152.910156 19.789062 152.910156 20.488281 C 152.910156 21.550781 153.527344 21.808594 154.070312 21.808594 C 155.449219 21.808594 156.847656 19.910156 157.410156 18.011719 C 157.570312 17.488281 157.707031 16.691406 157.707031 16.011719 Z M 159.808594 14.269531 L 157.988281 21.171875 C 158.269531 25.648438 157.96875 21.210938 157.96875 21.390625 C 157.96875 21.609375 158.089844 21.730469 158.25 21.730469 C 158.449219 21.730469 158.75 21.691406 159.527344 20.648438 L 159.769531 20.890625 C 159.148438 21.828125 158.070312 23.03125 157.109375 23.03125 C 156.449219 23.03125 156.269531 22.570312 156.269531 21.929688 C 156.269531 21.671875 156.390625 21.25 156.488281 20.929688 L 156.410156 20.929688 C 154.96875 22.769531 153.730469 23.03125 152.949219 23.03125 C 151.6875 23.03125 151.167969 21.929688 151.167969 20.648438 C 151.167969 18.011719 153.808594 14.011719 156.6875 14.011719 C 157.550781 14.011719 157.96875 14.488281 158.007812 14.929688 L 158.027344 14.929688 L 158.207031 14.269531 Z M 159.808594 14.269531 "/>
<path fill-rule="nonzero" fill="rgb(0%, 0%, 0%)" fill-opacity="1" d="M 167.667969 20.609375 L 167.910156 20.871094 C 166.890625 22.070312 165.648438 23.050781 163.949219 23.050781 C 162.007812 23.050781 161.207031 21.488281 161.207031 19.949219 C 161.207031 17.148438 163.628906 14.011719 166.46875 14.011719 C 167.46875 14.011719 168.410156 14.550781 168.410156 15.53125 C 168.410156 16.289062 168.089844 16.929688 167.328125 16.929688 C 166.808594 16.929688 166.570312 16.511719 166.570312 16.171875 C 166.570312 15.691406 167.148438 15.449219 167.148438 15.011719 C 167.148438 14.769531 166.949219 14.589844 166.46875 14.589844 C 164.089844 14.589844 162.949219 18.171875 162.949219 19.769531 C 162.949219 21.511719 163.929688 21.949219 164.828125 21.949219 C 166.050781 21.949219 166.96875 21.289062 167.667969 20.609375 Z M 167.667969 20.609375 "/>
<path fill="none" stroke-width="66" stroke-linecap="butt" stroke-linejoin="bevel" stroke="rgb(0%, 0%, 0%)" stroke-opacity="1" stroke-miterlimit="0" d="M 1790.62515 1528.906264 L 8435.351663 1528.906264 " transform="matrix(0.02, 0, 0, 0.02, -0.00000326216, -0.000000516474)"/>
<path fill-rule="nonzero" fill="rgb(0%, 0%, 0%)" fill-opacity="1" d="M 101.71875 46.839844 L 100.640625 49.578125 L 92.820312 49.578125 L 92.820312 49.339844 L 96.378906 45.558594 C 98.261719 43.578125 98.980469 42.058594 98.980469 40.359375 C 98.980469 38.539062 97.898438 37.539062 96.199219 37.539062 C 94.761719 37.539062 94.058594 38.179688 93.261719 40.140625 L 92.839844 40.039062 C 93.261719 37.699219 94.539062 36.058594 97 36.058594 C 99.261719 36.058594 100.699219 37.601562 100.699219 39.578125 C 100.699219 41.160156 99.921875 42.660156 98.140625 44.539062 L 94.839844 48.058594 L 99.519531 48.058594 C 100.359375 48.058594 100.78125 47.839844 101.441406 46.71875 Z M 101.71875 46.839844 "/>
<path fill-rule="nonzero" fill="rgb(0%, 0%, 0%)" fill-opacity="1" d="M 109.578125 42.761719 C 109.578125 41.941406 109.339844 41.339844 108.578125 41.339844 C 107.21875 41.339844 106.019531 43.078125 105.339844 44.761719 C 104.980469 45.660156 104.78125 46.539062 104.78125 47.238281 C 104.78125 48.300781 105.398438 48.558594 105.941406 48.558594 C 107.320312 48.558594 108.71875 46.660156 109.28125 44.761719 C 109.441406 44.238281 109.578125 43.441406 109.578125 42.761719 Z M 111.679688 41.019531 L 109.859375 47.921875 C 110.140625 52.398438 109.839844 47.960938 109.839844 48.140625 C 109.839844 48.359375 109.960938 48.480469 110.121094 48.480469 C 110.320312 48.480469 110.621094 48.441406 111.398438 47.398438 L 111.640625 47.640625 C 111.019531 48.578125 109.941406 49.78125 108.980469 49.78125 C 108.320312 49.78125 108.140625 49.320312 108.140625 48.679688 C 108.140625 48.421875 108.261719 48 108.359375 47.679688 L 108.28125 47.679688 C 106.839844 49.519531 105.601562 49.78125 104.820312 49.78125 C 103.558594 49.78125 103.039062 48.679688 103.039062 47.398438 C 103.039062 44.761719 105.679688 40.761719 108.558594 40.761719 C 109.421875 40.761719 109.839844 41.238281 109.878906 41.679688 L 109.898438 41.679688 L 110.078125 41.019531 Z M 111.679688 41.019531 "/>
</svg>
