<?xml version="1.0" encoding="UTF-8"?>
<svg xmlns="http://www.w3.org/2000/svg" xmlns:xlink="http://www.w3.org/1999/xlink" width="92" viewBox="0 0 92 47" data-dpi="720" height="47">
<g transform="translate(0, 0.140625)"><path fill-rule="nonzero" fill="rgb(100%, 100%, 100%)" fill-opacity="1" d="M 12.46875 3.734375 L 12.46875 3.691406 C 11.390625 1.90625 10.445312 0.886719 9.425781 0.886719 C 8.585938 0.886719 7.925781 1.710938 7.925781 2.671875 C 7.925781 3.945312 8.691406 5.191406 10.011719 5.191406 C 11.34375 5.191406 12.066406 4.273438 12.46875 3.734375 Z M 13.460938 2.773438 L 13.460938 2.820312 C 14.539062 4.605469 15.363281 5.566406 16.386719 5.566406 C 17.226562 5.566406 17.886719 4.738281 17.886719 3.78125 C 17.886719 2.414062 17.121094 1.261719 15.800781 1.261719 C 14.464844 1.261719 13.894531 2.144531 13.460938 2.773438 Z M 18.785156 3.121094 C 18.785156 4.574219 17.703125 6.449219 15.816406 6.449219 C 14.585938 6.449219 13.730469 5.65625 12.800781 4.273438 C 12.125 5.640625 11.105469 6.449219 9.664062 6.449219 C 8.375 6.449219 7.023438 5.519531 7.023438 3.449219 C 7.023438 0.691406 9.019531 0 9.890625 0 C 10.984375 0 11.734375 0.285156 13.160156 2.203125 C 13.851562 0.960938 14.539062 0 16.054688 0 C 17.40625 0 18.785156 1.109375 18.785156 3.121094 Z M 18.785156 3.121094 "/>
<path fill-rule="nonzero" fill="rgb(100%, 100%, 100%)" fill-opacity="1" d="M 24.039062 33.128906 L 22.558594 41.449219 L 1.800781 41.449219 L 12.941406 26.75 L 2.519531 12.449219 L 22.039062 12.449219 L 22.039062 19.46875 L 21.320312 19.46875 C 21.320312 19.089844 21.179688 18.570312 21.101562 18.171875 C 20.539062 15.550781 19.199219 14.511719 17.859375 14.351562 C 17.300781 14.269531 16.441406 14.25 15.738281 14.25 L 8.199219 14.25 L 16.421875 25.53125 L 7.019531 37.789062 L 18.378906 37.789062 C 21.160156 37.789062 22.539062 36.410156 23.261719 33.128906 Z M 24.039062 33.128906 "/>
<path fill-rule="nonzero" fill="rgb(100%, 100%, 100%)" fill-opacity="1" d="M 7.308594 54.128906 L 7.234375 54.21875 C 6.816406 54.730469 6.09375 55.691406 5.316406 55.691406 C 4.835938 55.691406 4.699219 55.34375 4.699219 55 C 4.699219 54.804688 4.761719 54.566406 4.804688 54.398438 L 5.660156 51.085938 C 5.691406 50.964844 5.765625 50.664062 5.765625 50.453125 C 5.765625 50.171875 5.675781 49.886719 5.40625 49.886719 C 4.835938 49.886719 3.890625 51.175781 3.425781 51.878906 C 2.886719 52.691406 2.496094 53.394531 2.40625 53.710938 L 1.910156 55.570312 L 0.753906 55.570312 L 2.179688 49.960938 C 2.179688 49.691406 2.136719 49.480469 1.730469 49.480469 C 1.578125 49.480469 1.414062 49.511719 1.308594 49.523438 L 1.28125 49.300781 L 3.664062 48.953125 L 2.898438 51.789062 L 2.945312 51.789062 C 3.019531 51.789062 3.753906 50.738281 3.785156 50.695312 C 4.386719 49.945312 5.285156 48.953125 6.183594 48.953125 C 6.84375 48.953125 7.023438 49.390625 7.023438 49.886719 C 7.023438 50.261719 6.933594 50.636719 6.859375 50.933594 L 5.976562 54.398438 C 5.960938 54.429688 5.960938 54.476562 5.960938 54.550781 C 5.976562 54.640625 6.019531 54.761719 6.183594 54.761719 C 6.546875 54.761719 6.90625 54.21875 7.113281 53.964844 Z M 7.308594 54.128906 "/>
<path fill-rule="nonzero" fill="rgb(100%, 100%, 100%)" fill-opacity="1" d="M 17.316406 53.769531 L 8.480469 53.769531 L 8.480469 52.78125 L 17.316406 52.78125 Z M 17.316406 50.769531 L 8.480469 50.769531 L 8.480469 49.78125 L 17.316406 49.78125 Z M 17.316406 50.769531 "/>
<path fill-rule="nonzero" fill="rgb(100%, 100%, 100%)" fill-opacity="1" d="M 23.945312 55.570312 L 19.804688 55.570312 L 19.804688 55.34375 C 20.914062 55.285156 21.230469 54.96875 21.230469 54.144531 L 21.230469 47.410156 C 21.230469 46.898438 21.09375 46.675781 20.78125 46.675781 C 20.628906 46.675781 20.375 46.75 20.105469 46.855469 L 19.699219 47.003906 L 19.699219 46.796875 L 22.386719 45.429688 L 22.519531 45.476562 L 22.519531 54.429688 C 22.519531 55.074219 22.820312 55.34375 23.945312 55.34375 Z M 23.945312 55.570312 "/>
<path fill-rule="nonzero" fill="rgb(100%, 100%, 100%)" fill-opacity="1" d="M 41.183594 20.839844 L 35.664062 20.839844 L 35.664062 20.539062 C 37.144531 20.460938 37.5625 20.039062 37.5625 18.941406 L 37.5625 9.960938 C 37.5625 9.28125 37.382812 8.980469 36.964844 8.980469 C 36.761719 8.980469 36.421875 9.078125 36.0625 9.21875 L 35.523438 9.421875 L 35.523438 9.140625 L 39.101562 7.320312 L 39.285156 7.378906 L 39.285156 19.320312 C 39.285156 20.179688 39.683594 20.539062 41.183594 20.539062 Z M 41.183594 20.839844 "/>
<path fill="none" stroke-width="66" stroke-linecap="butt" stroke-linejoin="bevel" stroke="rgb(100%, 100%, 100%)" stroke-opacity="1" stroke-miterlimit="0" d="M 1458.593657 1372.070438 L 2371.679506 1372.070438 " transform="matrix(0.02, 0, 0, 0.02, -0.00000095591, -0.00000516057)"/>
<path fill-rule="nonzero" fill="rgb(100%, 100%, 100%)" fill-opacity="1" d="M 38.511719 45.78125 L 38.414062 45.898438 C 37.851562 46.578125 36.894531 47.859375 35.851562 47.859375 C 35.214844 47.859375 35.035156 47.398438 35.035156 46.941406 C 35.035156 46.679688 35.113281 46.359375 35.171875 46.140625 L 36.3125 41.71875 C 36.351562 41.558594 36.453125 41.160156 36.453125 40.878906 C 36.453125 40.5 36.332031 40.121094 35.972656 40.121094 C 35.214844 40.121094 33.953125 41.839844 33.332031 42.78125 C 32.613281 43.859375 32.09375 44.800781 31.972656 45.21875 L 31.3125 47.699219 L 29.773438 47.699219 L 31.671875 40.21875 C 31.671875 39.859375 31.613281 39.578125 31.074219 39.578125 C 30.875 39.578125 30.652344 39.621094 30.511719 39.640625 L 30.472656 39.339844 L 33.652344 38.878906 L 32.632812 42.660156 L 32.691406 42.660156 C 32.792969 42.660156 33.773438 41.261719 33.8125 41.199219 C 34.613281 40.199219 35.8125 38.878906 37.011719 38.878906 C 37.894531 38.878906 38.132812 39.460938 38.132812 40.121094 C 38.132812 40.621094 38.011719 41.121094 37.914062 41.519531 L 36.734375 46.140625 C 36.714844 46.179688 36.714844 46.238281 36.714844 46.339844 C 36.734375 46.460938 36.792969 46.621094 37.011719 46.621094 C 37.492188 46.621094 37.972656 45.898438 38.253906 45.558594 Z M 38.511719 45.78125 "/>
<path fill-rule="nonzero" fill="rgb(100%, 100%, 100%)" fill-opacity="1" d="M 46.222656 40.144531 L 45.414062 42.199219 L 39.546875 42.199219 L 39.546875 42.019531 L 42.21875 39.183594 C 43.628906 37.699219 44.167969 36.558594 44.167969 35.285156 C 44.167969 33.921875 43.359375 33.171875 42.082031 33.171875 C 41.003906 33.171875 40.476562 33.648438 39.878906 35.121094 L 39.5625 35.046875 C 39.878906 33.289062 40.839844 32.058594 42.683594 32.058594 C 44.378906 32.058594 45.457031 33.214844 45.457031 34.699219 C 45.457031 35.886719 44.875 37.011719 43.539062 38.421875 L 41.0625 41.058594 L 44.574219 41.058594 C 45.203125 41.058594 45.519531 40.894531 46.011719 40.054688 Z M 46.222656 40.144531 "/>
<path fill-rule="nonzero" fill="rgb(100%, 100%, 100%)" fill-opacity="1" d="M 65.730469 30.039062 L 53.949219 30.039062 L 53.949219 28.71875 L 65.730469 28.71875 Z M 65.730469 26.039062 L 53.949219 26.039062 L 53.949219 24.71875 L 65.730469 24.71875 Z M 65.730469 26.039062 "/>
<path fill-rule="nonzero" fill="rgb(100%, 100%, 100%)" fill-opacity="1" d="M 83.605469 12.28125 L 83.144531 13.738281 L 80.90625 13.738281 C 80.625 14.601562 79.5625 17.160156 79.5625 18.5 C 79.5625 18.960938 79.882812 19.460938 80.324219 19.460938 C 80.746094 19.460938 81.304688 19.21875 81.785156 18.140625 L 82.105469 18.140625 C 81.683594 19.578125 80.625 20.980469 79.222656 20.980469 C 78.425781 20.980469 78.085938 20.261719 78.085938 19.480469 C 78.085938 19.019531 78.144531 18.621094 78.265625 18.238281 C 78.722656 16.820312 79.324219 15.421875 79.824219 13.738281 L 77.945312 13.738281 C 77.023438 16.179688 76.40625 19.621094 74.722656 20.878906 C 74.503906 21.058594 74.203125 21.101562 73.964844 21.101562 C 73.445312 21.101562 72.945312 20.699219 72.945312 20.21875 C 72.945312 19.921875 73.042969 19.398438 73.5625 19.261719 C 74.425781 19.019531 74.785156 18.441406 75.042969 17.859375 L 76.824219 13.738281 C 75.664062 13.738281 74.925781 13.738281 74.042969 14.800781 L 73.722656 14.800781 C 74.605469 13.199219 75.882812 12.28125 77.964844 12.28125 Z M 83.605469 12.28125 "/>
<path fill-rule="nonzero" fill="rgb(100%, 100%, 100%)" fill-opacity="1" d="M 91.515625 10.785156 L 90.703125 12.839844 L 84.839844 12.839844 L 84.839844 12.660156 L 87.507812 9.824219 C 88.917969 8.339844 89.460938 7.199219 89.460938 5.925781 C 89.460938 4.558594 88.648438 3.808594 87.375 3.808594 C 86.292969 3.808594 85.769531 4.289062 85.167969 5.761719 L 84.855469 5.683594 C 85.167969 3.929688 86.128906 2.699219 87.972656 2.699219 C 89.667969 2.699219 90.75 3.855469 90.75 5.339844 C 90.75 6.523438 90.164062 7.648438 88.828125 9.058594 L 86.355469 11.699219 L 89.863281 11.699219 C 90.496094 11.699219 90.808594 11.535156 91.304688 10.695312 Z M 91.515625 10.785156 "/>
<path fill="none" stroke-width="66" stroke-linecap="butt" stroke-linejoin="bevel" stroke="rgb(100%, 100%, 100%)" stroke-opacity="1" stroke-miterlimit="0" d="M 3612.304354 1372.070438 L 4636.132319 1372.070438 " transform="matrix(0.02, 0, 0, 0.02, -0.00000463703, -0.00000680089)"/>
<path fill-rule="nonzero" fill="rgb(100%, 100%, 100%)" fill-opacity="1" d="M 85.042969 42.679688 C 85.042969 40.121094 84.203125 38.800781 82.34375 38.800781 C 81.203125 38.800781 80.023438 39.28125 80.023438 41.121094 C 80.023438 44.160156 80.984375 46.160156 82.863281 46.160156 C 84.304688 46.160156 85.042969 44.71875 85.042969 42.679688 Z M 86.40625 32.761719 L 86.445312 33.078125 C 83.304688 33.601562 81.0625 35.761719 80.523438 38.78125 C 81.503906 38.019531 82.183594 37.878906 83.0625 37.878906 C 85.40625 37.878906 86.84375 39.480469 86.84375 42.058594 C 86.84375 43.339844 86.484375 44.460938 85.824219 45.261719 C 85.085938 46.179688 83.964844 46.71875 82.644531 46.71875 C 81.0625 46.71875 79.804688 45.980469 79.105469 44.699219 C 78.542969 43.679688 78.164062 42.261719 78.164062 40.859375 C 78.164062 38.699219 78.925781 36.800781 80.34375 35.339844 C 82.0625 33.539062 83.644531 33.058594 86.40625 32.761719 Z M 86.40625 32.761719 "/>
</g></svg>