<?xml version="1.0" encoding="UTF-8"?>
<svg xmlns="http://www.w3.org/2000/svg" xmlns:xlink="http://www.w3.org/1999/xlink" width="61" viewBox="0 0 61 21" data-dpi="96" height="21">
<g transform="translate(0, 0.44335938)"><path fill-rule="nonzero" fill="rgb(0%, 0%, 0%)" fill-opacity="1" d="M 10.273438 13.769531 L 9.636719 17.359375 L 0.695312 17.359375 L 5.398438 11.238281 L 0.996094 5.09375 L 9.960938 5.09375 L 9.960938 8.105469 L 9.601562 8.105469 C 9.347656 6.488281 8.890625 5.886719 7.296875 5.886719 L 3.457031 5.886719 L 6.9375 10.578125 L 2.902344 15.789062 L 7.871094 15.789062 C 9.214844 15.789062 9.648438 14.972656 9.910156 13.769531 Z M 10.273438 13.769531 "/>
<path fill-rule="nonzero" fill="rgb(0%, 0%, 0%)" fill-opacity="1" d="M 14.863281 7.796875 L 14.863281 7.769531 C 14.21875 6.699219 13.648438 6.089844 13.039062 6.089844 C 12.535156 6.089844 12.136719 6.582031 12.136719 7.160156 C 12.136719 7.925781 12.597656 8.671875 13.390625 8.671875 C 14.191406 8.671875 14.621094 8.121094 14.863281 7.796875 Z M 15.460938 7.222656 L 15.460938 7.25 C 16.105469 8.320312 16.601562 8.894531 17.214844 8.894531 C 17.71875 8.894531 18.113281 8.402344 18.113281 7.824219 C 18.113281 7.007812 17.65625 6.3125 16.863281 6.3125 C 16.0625 6.3125 15.71875 6.84375 15.460938 7.222656 Z M 18.652344 7.429688 C 18.652344 8.300781 18.007812 9.425781 16.871094 9.425781 C 16.132812 9.425781 15.621094 8.949219 15.0625 8.121094 C 14.65625 8.941406 14.046875 9.425781 13.183594 9.425781 C 12.40625 9.425781 11.597656 8.871094 11.597656 7.628906 C 11.597656 5.972656 12.796875 5.558594 13.316406 5.558594 C 13.972656 5.558594 14.425781 5.726562 15.277344 6.878906 C 15.691406 6.132812 16.105469 5.558594 17.015625 5.558594 C 17.824219 5.558594 18.652344 6.222656 18.652344 7.429688 Z M 18.652344 7.429688 "/>
<path fill-rule="nonzero" fill="rgb(0%, 0%, 0%)" fill-opacity="1" d="M 15.171875 17.816406 L 15.125 17.871094 C 14.875 18.175781 14.441406 18.75 13.972656 18.75 C 13.6875 18.75 13.605469 18.542969 13.605469 18.335938 C 13.605469 18.21875 13.640625 18.078125 13.667969 17.976562 L 14.179688 15.988281 C 14.199219 15.917969 14.242188 15.734375 14.242188 15.609375 C 14.242188 15.4375 14.191406 15.269531 14.027344 15.269531 C 13.6875 15.269531 13.117188 16.042969 12.839844 16.464844 C 12.515625 16.953125 12.28125 17.375 12.226562 17.5625 L 11.929688 18.679688 L 11.238281 18.679688 L 12.09375 15.3125 C 12.09375 15.152344 12.066406 15.023438 11.824219 15.023438 C 11.734375 15.023438 11.632812 15.042969 11.570312 15.050781 L 11.554688 14.917969 L 12.984375 14.710938 L 12.523438 16.410156 L 12.550781 16.410156 C 12.597656 16.410156 13.039062 15.78125 13.054688 15.753906 C 13.414062 15.304688 13.957031 14.710938 14.496094 14.710938 C 14.890625 14.710938 15 14.972656 15 15.269531 C 15 15.492188 14.945312 15.71875 14.902344 15.898438 L 14.371094 17.976562 C 14.359375 17.996094 14.359375 18.023438 14.359375 18.066406 C 14.371094 18.121094 14.398438 18.191406 14.496094 18.191406 C 14.710938 18.191406 14.929688 17.871094 15.054688 17.714844 Z M 15.171875 17.816406 "/>
<path fill-rule="nonzero" fill="rgb(0%, 0%, 0%)" fill-opacity="1" d="M 21.175781 17.597656 L 15.871094 17.597656 L 15.871094 17.003906 L 21.175781 17.003906 Z M 21.175781 15.800781 L 15.871094 15.800781 L 15.871094 15.207031 L 21.175781 15.207031 Z M 21.175781 15.800781 "/>
<path fill-rule="nonzero" fill="rgb(0%, 0%, 0%)" fill-opacity="1" d="M 25.152344 18.679688 L 22.667969 18.679688 L 22.667969 18.542969 C 23.335938 18.507812 23.523438 18.320312 23.523438 17.824219 L 23.523438 13.78125 C 23.523438 13.476562 23.441406 13.34375 23.253906 13.34375 C 23.164062 13.34375 23.011719 13.386719 22.847656 13.449219 L 22.605469 13.539062 L 22.605469 13.414062 L 24.214844 12.59375 L 24.296875 12.621094 L 24.296875 17.996094 C 24.296875 18.382812 24.476562 18.542969 25.152344 18.542969 Z M 25.152344 18.679688 "/>
<path fill-rule="nonzero" fill="rgb(0%, 0%, 0%)" fill-opacity="1" d="M 34.113281 8.46875 L 31.632812 8.46875 L 31.632812 8.332031 C 32.296875 8.296875 32.484375 8.105469 32.484375 7.613281 L 32.484375 3.570312 C 32.484375 3.265625 32.40625 3.128906 32.214844 3.128906 C 32.125 3.128906 31.972656 3.175781 31.8125 3.238281 L 31.566406 3.328125 L 31.566406 3.203125 L 33.179688 2.382812 L 33.261719 2.410156 L 33.261719 7.78125 C 33.261719 8.171875 33.441406 8.332031 34.113281 8.332031 Z M 34.113281 8.46875 "/>
<path fill="none" stroke-width="66" stroke-linecap="butt" stroke-linejoin="bevel" stroke="rgb(0%, 0%, 0%)" stroke-opacity="1" stroke-miterlimit="0" d="M 2383.137867 935.546911 L 3086.588277 935.546911 " transform="matrix(0.012, 0, 0, 0.012, -0.00000266886, -0.00000220335)"/>
<path fill-rule="nonzero" fill="rgb(0%, 0%, 0%)" fill-opacity="1" d="M 32.800781 19.125 L 32.757812 19.175781 C 32.503906 19.484375 32.070312 20.058594 31.605469 20.058594 C 31.316406 20.058594 31.234375 19.851562 31.234375 19.644531 C 31.234375 19.527344 31.269531 19.382812 31.296875 19.285156 L 31.8125 17.296875 C 31.828125 17.222656 31.875 17.042969 31.875 16.917969 C 31.875 16.746094 31.820312 16.578125 31.65625 16.578125 C 31.316406 16.578125 30.75 17.351562 30.46875 17.773438 C 30.144531 18.257812 29.910156 18.683594 29.859375 18.871094 L 29.5625 19.988281 L 28.867188 19.988281 L 29.722656 16.621094 C 29.722656 16.460938 29.695312 16.332031 29.453125 16.332031 C 29.363281 16.332031 29.265625 16.351562 29.199219 16.359375 L 29.183594 16.226562 L 30.613281 16.019531 L 30.15625 17.71875 L 30.183594 17.71875 C 30.226562 17.71875 30.667969 17.089844 30.6875 17.0625 C 31.046875 16.613281 31.585938 16.019531 32.125 16.019531 C 32.523438 16.019531 32.628906 16.277344 32.628906 16.578125 C 32.628906 16.800781 32.574219 17.027344 32.53125 17.207031 L 32 19.285156 C 31.992188 19.304688 31.992188 19.332031 31.992188 19.375 C 32 19.429688 32.027344 19.5 32.125 19.5 C 32.34375 19.5 32.558594 19.175781 32.683594 19.023438 Z M 32.800781 19.125 "/>
<path fill-rule="nonzero" fill="rgb(0%, 0%, 0%)" fill-opacity="1" d="M 36.484375 16.527344 L 36.09375 17.511719 L 33.28125 17.511719 L 33.28125 17.425781 L 34.5625 16.066406 C 35.238281 15.351562 35.496094 14.804688 35.496094 14.191406 C 35.496094 13.539062 35.109375 13.179688 34.496094 13.179688 C 33.976562 13.179688 33.726562 13.40625 33.4375 14.113281 L 33.285156 14.078125 C 33.4375 13.234375 33.898438 12.644531 34.785156 12.644531 C 35.597656 12.644531 36.117188 13.199219 36.117188 13.914062 C 36.117188 14.480469 35.835938 15.019531 35.195312 15.699219 L 34.007812 16.964844 L 35.691406 16.964844 C 35.996094 16.964844 36.144531 16.886719 36.382812 16.484375 Z M 36.484375 16.527344 "/>
<path fill-rule="nonzero" fill="rgb(0%, 0%, 0%)" fill-opacity="1" d="M 48.015625 12.789062 L 40.949219 12.789062 L 40.949219 11.996094 L 48.015625 11.996094 Z M 48.015625 10.386719 L 40.949219 10.386719 L 40.949219 9.59375 L 48.015625 9.59375 Z M 48.015625 10.386719 "/>
<path fill-rule="nonzero" fill="rgb(0%, 0%, 0%)" fill-opacity="1" d="M 57.039062 4.613281 L 56.832031 5.273438 L 55.824219 5.273438 C 55.699219 5.660156 55.21875 6.8125 55.21875 7.414062 C 55.21875 7.621094 55.363281 7.847656 55.5625 7.847656 C 55.75 7.847656 56.003906 7.738281 56.21875 7.253906 L 56.363281 7.253906 C 56.175781 7.898438 55.699219 8.53125 55.066406 8.53125 C 54.707031 8.53125 54.554688 8.207031 54.554688 7.855469 C 54.554688 7.648438 54.582031 7.46875 54.636719 7.296875 C 54.84375 6.65625 55.113281 6.027344 55.335938 5.273438 L 54.492188 5.273438 C 54.078125 6.371094 53.796875 7.917969 53.042969 8.484375 C 52.945312 8.566406 52.808594 8.585938 52.699219 8.585938 C 52.464844 8.585938 52.242188 8.402344 52.242188 8.1875 C 52.242188 8.054688 52.285156 7.820312 52.519531 7.757812 C 52.90625 7.648438 53.070312 7.386719 53.1875 7.125 L 53.988281 5.273438 C 53.464844 5.273438 53.132812 5.273438 52.738281 5.75 L 52.59375 5.75 C 52.988281 5.027344 53.566406 4.613281 54.5 4.613281 Z M 57.039062 4.613281 "/>
<path fill-rule="nonzero" fill="rgb(0%, 0%, 0%)" fill-opacity="1" d="M 60.8125 3.878906 L 60.421875 4.867188 L 57.609375 4.867188 L 57.609375 4.78125 L 58.890625 3.421875 C 59.566406 2.707031 59.824219 2.160156 59.824219 1.546875 C 59.824219 0.894531 59.4375 0.53125 58.824219 0.53125 C 58.304688 0.53125 58.054688 0.761719 57.765625 1.46875 L 57.613281 1.433594 C 57.765625 0.589844 58.226562 0 59.113281 0 C 59.925781 0 60.445312 0.554688 60.445312 1.265625 C 60.445312 1.835938 60.164062 2.375 59.523438 3.054688 L 58.335938 4.320312 L 60.019531 4.320312 C 60.320312 4.320312 60.472656 4.242188 60.710938 3.835938 Z M 60.8125 3.878906 "/>
<path fill="none" stroke-width="66" stroke-linecap="butt" stroke-linejoin="bevel" stroke="rgb(0%, 0%, 0%)" stroke-opacity="1" stroke-miterlimit="0" d="M 4327.147902 935.546926 L 5113.93156 935.546926 " transform="matrix(0.012, 0, 0, 0.012, -0.00000650666, -0.00000340706)"/>
<path fill-rule="nonzero" fill="rgb(0%, 0%, 0%)" fill-opacity="1" d="M 57.800781 18.296875 C 57.800781 17.144531 57.421875 16.550781 56.585938 16.550781 C 56.070312 16.550781 55.539062 16.765625 55.539062 17.59375 C 55.539062 18.960938 55.972656 19.859375 56.816406 19.859375 C 57.464844 19.859375 57.800781 19.214844 57.800781 18.296875 Z M 58.410156 13.832031 L 58.429688 13.976562 C 57.015625 14.210938 56.007812 15.179688 55.765625 16.539062 C 56.207031 16.199219 56.511719 16.136719 56.90625 16.136719 C 57.960938 16.136719 58.609375 16.855469 58.609375 18.015625 C 58.609375 18.59375 58.445312 19.097656 58.148438 19.457031 C 57.816406 19.871094 57.3125 20.113281 56.71875 20.113281 C 56.007812 20.113281 55.441406 19.78125 55.125 19.203125 C 54.875 18.746094 54.703125 18.105469 54.703125 17.476562 C 54.703125 16.503906 55.046875 15.648438 55.683594 14.992188 C 56.457031 14.183594 57.167969 13.964844 58.410156 13.832031 Z M 58.410156 13.832031 "/>
</g></svg>