<?xml version="1.0" encoding="UTF-8"?>
<svg xmlns="http://www.w3.org/2000/svg" xmlns:xlink="http://www.w3.org/1999/xlink" width="185" viewBox="0 0 185 94" data-dpi="1440" height="94">
<g transform="translate(0, 0.27929688)"><path fill-rule="nonzero" fill="rgb(0%, 0%, 0%)" fill-opacity="1" d="M 24.941406 7.46875 L 24.941406 7.378906 C 22.78125 3.808594 20.890625 1.769531 18.851562 1.769531 C 17.171875 1.769531 15.851562 3.421875 15.851562 5.339844 C 15.851562 7.890625 17.378906 10.378906 20.019531 10.378906 C 22.691406 10.378906 24.128906 8.550781 24.941406 7.46875 Z M 26.921875 5.550781 L 26.921875 5.640625 C 29.078125 9.210938 30.730469 11.128906 32.769531 11.128906 C 34.449219 11.128906 35.769531 9.480469 35.769531 7.558594 C 35.769531 4.828125 34.238281 2.519531 31.601562 2.519531 C 28.929688 2.519531 27.789062 4.289062 26.921875 5.550781 Z M 37.570312 6.238281 C 37.570312 9.148438 35.410156 12.898438 31.628906 12.898438 C 29.171875 12.898438 27.460938 11.308594 25.601562 8.550781 C 24.25 11.28125 22.210938 12.898438 19.328125 12.898438 C 16.75 12.898438 14.050781 11.039062 14.050781 6.898438 C 14.050781 1.378906 18.039062 0 19.78125 0 C 21.96875 0 23.46875 0.570312 26.320312 4.410156 C 27.699219 1.921875 29.078125 0 32.109375 0 C 34.808594 0 37.570312 2.21875 37.570312 6.238281 Z M 37.570312 6.238281 "/>
<path fill-rule="nonzero" fill="rgb(0%, 0%, 0%)" fill-opacity="1" d="M 48.078125 66.261719 L 45.121094 82.898438 L 3.601562 82.898438 L 25.878906 53.5 L 5.039062 24.898438 L 44.078125 24.898438 L 44.078125 38.941406 L 42.640625 38.941406 C 42.640625 38.179688 42.359375 37.140625 42.199219 36.339844 C 41.078125 31.101562 38.398438 29.019531 35.71875 28.699219 C 34.601562 28.539062 32.878906 28.5 31.480469 28.5 L 16.398438 28.5 L 32.839844 51.058594 L 14.039062 75.578125 L 36.761719 75.578125 C 42.320312 75.578125 45.078125 72.820312 46.519531 66.261719 Z M 48.078125 66.261719 "/>
<path fill-rule="nonzero" fill="rgb(0%, 0%, 0%)" fill-opacity="1" d="M 14.621094 108.261719 L 14.46875 108.441406 C 13.628906 109.460938 12.191406 111.378906 10.628906 111.378906 C 9.671875 111.378906 9.398438 110.691406 9.398438 110 C 9.398438 109.609375 9.519531 109.128906 9.609375 108.800781 L 11.320312 102.171875 C 11.378906 101.929688 11.53125 101.328125 11.53125 100.910156 C 11.53125 100.339844 11.351562 99.769531 10.808594 99.769531 C 9.671875 99.769531 7.78125 102.351562 6.851562 103.761719 C 5.769531 105.378906 4.988281 106.789062 4.808594 107.421875 L 3.820312 111.140625 L 1.511719 111.140625 L 4.359375 99.921875 C 4.359375 99.378906 4.269531 98.960938 3.460938 98.960938 C 3.160156 98.960938 2.828125 99.019531 2.621094 99.050781 L 2.558594 98.601562 L 7.328125 97.910156 L 5.800781 103.578125 L 5.890625 103.578125 C 6.039062 103.578125 7.511719 101.480469 7.570312 101.390625 C 8.769531 99.890625 10.570312 97.910156 12.371094 97.910156 C 13.691406 97.910156 14.050781 98.78125 14.050781 99.769531 C 14.050781 100.519531 13.871094 101.269531 13.71875 101.871094 L 11.949219 108.800781 C 11.921875 108.859375 11.921875 108.949219 11.921875 109.101562 C 11.949219 109.28125 12.039062 109.519531 12.371094 109.519531 C 13.089844 109.519531 13.808594 108.441406 14.230469 107.929688 Z M 14.621094 108.261719 "/>
<path fill-rule="nonzero" fill="rgb(0%, 0%, 0%)" fill-opacity="1" d="M 34.628906 107.539062 L 16.960938 107.539062 L 16.960938 105.558594 L 34.628906 105.558594 Z M 34.628906 101.539062 L 16.960938 101.539062 L 16.960938 99.558594 L 34.628906 99.558594 Z M 34.628906 101.539062 "/>
<path fill-rule="nonzero" fill="rgb(0%, 0%, 0%)" fill-opacity="1" d="M 47.890625 111.140625 L 39.609375 111.140625 L 39.609375 110.691406 C 41.828125 110.570312 42.460938 109.941406 42.460938 108.289062 L 42.460938 94.820312 C 42.460938 93.800781 42.191406 93.351562 41.558594 93.351562 C 41.261719 93.351562 40.75 93.5 40.210938 93.710938 L 39.398438 94.011719 L 39.398438 93.589844 L 44.769531 90.859375 L 45.039062 90.949219 L 45.039062 108.859375 C 45.039062 110.148438 45.640625 110.691406 47.890625 110.691406 Z M 47.890625 111.140625 "/>
<path fill-rule="nonzero" fill="rgb(0%, 0%, 0%)" fill-opacity="1" d="M 82.367188 41.679688 L 71.328125 41.679688 L 71.328125 41.078125 C 74.285156 40.921875 75.125 40.078125 75.125 37.878906 L 75.125 19.921875 C 75.125 18.558594 74.765625 17.960938 73.925781 17.960938 C 73.527344 17.960938 72.847656 18.160156 72.125 18.441406 L 71.046875 18.839844 L 71.046875 18.28125 L 78.207031 14.640625 L 78.566406 14.761719 L 78.566406 38.640625 C 78.566406 40.359375 79.367188 41.078125 82.367188 41.078125 Z M 82.367188 41.679688 "/>
<path fill="none" stroke-width="66" stroke-linecap="butt" stroke-linejoin="bevel" stroke="rgb(0%, 0%, 0%)" stroke-opacity="1" stroke-miterlimit="0" d="M 1458.691313 1371.972781 L 2371.679506 1371.972781 " transform="matrix(0.04, 0, 0, 0.04, -0.00000191182, -0.0000103211)"/>
<path fill-rule="nonzero" fill="rgb(0%, 0%, 0%)" fill-opacity="1" d="M 77.027344 91.558594 L 76.828125 91.800781 C 75.707031 93.160156 73.785156 95.71875 71.707031 95.71875 C 70.425781 95.71875 70.066406 94.800781 70.066406 93.878906 C 70.066406 93.359375 70.226562 92.71875 70.347656 92.28125 L 72.625 83.441406 C 72.707031 83.121094 72.90625 82.320312 72.90625 81.761719 C 72.90625 81 72.667969 80.238281 71.945312 80.238281 C 70.425781 80.238281 67.90625 83.679688 66.667969 85.558594 C 65.226562 87.71875 64.1875 89.601562 63.945312 90.441406 L 62.625 95.398438 L 59.546875 95.398438 L 63.347656 80.441406 C 63.347656 79.71875 63.226562 79.160156 62.148438 79.160156 C 61.746094 79.160156 61.308594 79.238281 61.027344 79.28125 L 60.945312 78.679688 L 67.308594 77.761719 L 65.265625 85.320312 L 65.386719 85.320312 C 65.585938 85.320312 67.546875 82.519531 67.625 82.398438 C 69.226562 80.398438 71.625 77.761719 74.027344 77.761719 C 75.785156 77.761719 76.265625 78.921875 76.265625 80.238281 C 76.265625 81.238281 76.027344 82.238281 75.828125 83.039062 L 73.464844 92.28125 C 73.425781 92.359375 73.425781 92.480469 73.425781 92.679688 C 73.464844 92.921875 73.585938 93.238281 74.027344 93.238281 C 74.988281 93.238281 75.945312 91.800781 76.507812 91.121094 Z M 77.027344 91.558594 "/>
<path fill-rule="nonzero" fill="rgb(0%, 0%, 0%)" fill-opacity="1" d="M 92.445312 80.289062 L 90.828125 84.398438 L 79.097656 84.398438 L 79.097656 84.039062 L 84.4375 78.371094 C 87.257812 75.398438 88.335938 73.121094 88.335938 70.570312 C 88.335938 67.839844 86.714844 66.339844 84.167969 66.339844 C 82.007812 66.339844 80.957031 67.300781 79.757812 70.238281 L 79.125 70.089844 C 79.757812 66.578125 81.675781 64.121094 85.367188 64.121094 C 88.757812 64.121094 90.917969 66.429688 90.917969 69.398438 C 90.917969 71.769531 89.746094 74.019531 87.078125 76.839844 L 82.125 82.121094 L 89.148438 82.121094 C 90.40625 82.121094 91.035156 81.789062 92.027344 80.109375 Z M 92.445312 80.289062 "/>
<path fill-rule="nonzero" fill="rgb(0%, 0%, 0%)" fill-opacity="1" d="M 131.457031 60.078125 L 107.898438 60.078125 L 107.898438 57.441406 L 131.457031 57.441406 Z M 131.457031 52.078125 L 107.898438 52.078125 L 107.898438 49.441406 L 131.457031 49.441406 Z M 131.457031 52.078125 "/>
<path fill-rule="nonzero" fill="rgb(0%, 0%, 0%)" fill-opacity="1" d="M 167.207031 24.558594 L 166.289062 27.480469 L 161.808594 27.480469 C 161.25 29.199219 159.128906 34.320312 159.128906 37 C 159.128906 37.921875 159.769531 38.921875 160.648438 38.921875 C 161.488281 38.921875 162.609375 38.441406 163.570312 36.28125 L 164.207031 36.28125 C 163.367188 39.160156 161.25 41.960938 158.449219 41.960938 C 156.847656 41.960938 156.167969 40.519531 156.167969 38.960938 C 156.167969 38.039062 156.289062 37.238281 156.527344 36.480469 C 157.449219 33.640625 158.648438 30.839844 159.648438 27.480469 L 155.890625 27.480469 C 154.050781 32.359375 152.808594 39.238281 149.449219 41.761719 C 149.007812 42.121094 148.410156 42.199219 147.929688 42.199219 C 146.890625 42.199219 145.890625 41.398438 145.890625 40.441406 C 145.890625 39.839844 146.089844 38.800781 147.128906 38.519531 C 148.847656 38.039062 149.570312 36.878906 150.089844 35.71875 L 153.648438 27.480469 C 151.328125 27.480469 149.847656 27.480469 148.089844 29.601562 L 147.449219 29.601562 C 149.207031 26.398438 151.769531 24.558594 155.929688 24.558594 Z M 167.207031 24.558594 "/>
<path fill-rule="nonzero" fill="rgb(0%, 0%, 0%)" fill-opacity="1" d="M 183.027344 21.570312 L 181.410156 25.679688 L 169.679688 25.679688 L 169.679688 25.320312 L 175.019531 19.648438 C 177.839844 16.679688 178.917969 14.398438 178.917969 11.851562 C 178.917969 9.121094 177.300781 7.621094 174.75 7.621094 C 172.589844 7.621094 171.539062 8.578125 170.339844 11.519531 L 169.707031 11.371094 C 170.339844 7.859375 172.257812 5.398438 175.949219 5.398438 C 179.339844 5.398438 181.5 7.710938 181.5 10.679688 C 181.5 13.050781 180.328125 15.300781 177.660156 18.121094 L 172.707031 23.398438 L 179.730469 23.398438 C 180.988281 23.398438 181.617188 23.070312 182.609375 21.390625 Z M 183.027344 21.570312 "/>
<path fill="none" stroke-width="66" stroke-linecap="butt" stroke-linejoin="bevel" stroke="rgb(0%, 0%, 0%)" stroke-opacity="1" stroke-miterlimit="0" d="M 3612.206698 1371.972782 L 4636.229975 1371.972782 " transform="matrix(0.04, 0, 0, 0.04, -0.00000927405, -0.0000136018)"/>
<path fill-rule="nonzero" fill="rgb(0%, 0%, 0%)" fill-opacity="1" d="M 170.089844 85.359375 C 170.089844 80.238281 168.410156 77.601562 164.6875 77.601562 C 162.410156 77.601562 160.050781 78.558594 160.050781 82.238281 C 160.050781 88.320312 161.96875 92.320312 165.730469 92.320312 C 168.609375 92.320312 170.089844 89.441406 170.089844 85.359375 Z M 172.808594 65.519531 L 172.890625 66.160156 C 166.609375 67.199219 162.128906 71.519531 161.050781 77.558594 C 163.007812 76.039062 164.367188 75.761719 166.128906 75.761719 C 170.808594 75.761719 173.6875 78.960938 173.6875 84.121094 C 173.6875 86.679688 172.96875 88.921875 171.648438 90.519531 C 170.167969 92.359375 167.929688 93.441406 165.289062 93.441406 C 162.128906 93.441406 159.609375 91.960938 158.207031 89.398438 C 157.089844 87.359375 156.328125 84.519531 156.328125 81.71875 C 156.328125 77.398438 157.847656 73.601562 160.6875 70.679688 C 164.128906 67.078125 167.289062 66.121094 172.808594 65.519531 Z M 172.808594 65.519531 "/>
</g></svg>